<?xml version="1.0" encoding="utf-8"?>
<!-- Generator: Adobe Illustrator 23.0.1, SVG Export Plug-In . SVG Version: 6.00 Build 0)  -->
<svg version="1.1" id="Layer_1" xmlns="http://www.w3.org/2000/svg" xmlns:xlink="http://www.w3.org/1999/xlink" x="0px" y="0px"
	 viewBox="0 0 500 500" style="enable-background:new 0 0 500 500;" xml:space="preserve">
<path d="M357.8,412.3c-1.8,1-3.1,1.7-5,2.8c-0.9-1.2-1.8-2.4-3.1-4.1c-9.4,2.5-16.1-3.5-23.5-8.3c-1.5,0-3.2,0-4.8,0
	c0.3-0.5,0.5-0.9,0.8-1.4c-9.5-6.2-19.3-12-28.5-18.7c-8.3-6-16-12.9-23.7-19.6c-2.8-2.4-4.9-5.6-7.4-8.5
	c-28.8,46.6-68.5,73.6-121.8,79c-0.2-0.4-0.5-0.8-0.7-1.2c-3.5-2.1-6.9-4.1-10.4-6.2c-3.5-2-7-3.9-10-6.2c-3.5-3-7-6.1-10.6-9
	c-15.3-12.1-31.2-23.6-44.5-38c-0.7-0.7-1.4-1.5-1.8-2.4c-4.3-8.9-8.5-17.9-12.8-26.9c-6.3-13-5-26.3-3.3-40.1
	c2.6-19.9,7.7-39,16.9-56.8c9.6-18.5,19.9-36.7,30.6-54.6c12.8-21.2,28.3-40.4,44.4-59.3c18.1-21.3,35.6-43.1,54.8-63.5
	c6.5-6.9,13.5-13.2,20-20.1c4-4.3,7.5-9.1,12.4-15.2c13-0.7,27.7-1.4,43.8-2.3c22.2,19.6,44.7,40.3,68.3,59.9
	c19.1,15.9,33.9,35.6,50.8,53.4c2.5,2.6,4,6.2,6.1,9.2c6,8.3,12.1,16.5,18.2,24.7c1.8,2.4,3.8,4.7,5.4,7.3
	c14.4,23.9,26.4,49.1,32.5,76.4c2.7,12.1,3.1,24.8,3.3,37.2c0.7,33.8,4.2,26.1-15.6,59.2c-5.2,8.6-10.6,17.3-16.9,25.1
	c-7.7,9.4-17.1,17.1-28.6,21.8c-4.2,1.7-8.5,3.2-12.6,5.1C373,414.6,365.6,415.6,357.8,412.3L357.8,412.3z"/>
</svg>
