<?xml version="1.0" encoding="utf-8"?>
<!-- Generator: Adobe Illustrator 23.0.1, SVG Export Plug-In . SVG Version: 6.00 Build 0)  -->
<svg version="1.1" id="Layer_1" xmlns="http://www.w3.org/2000/svg" xmlns:xlink="http://www.w3.org/1999/xlink" x="0px" y="0px"
	 viewBox="0 0 500 500" style="enable-background:new 0 0 500 500;" xml:space="preserve">
<style type="text/css">
	.st0{fill:#FFFFFF;}
</style>
<g>
	<path class="st0" d="M230.8,204.9c-2.4-4.6-4.9-9.2-7.4-13.8c-5.5-10.3-11.2-20.9-16.5-31.6c-10.6-21.5-7.4-42.7,10.2-66.5
		c4.2-5.7,10.5-12.7,21.4-15.6l0.3-0.1l0.3,0.1c4.4,1.9,10.9,5.1,15.9,11.3c2.2,2.8,4.8,5.3,7.3,7.8c2.4,2.4,5,4.9,7.2,7.6l0.2,0.3
		c4.3,5.2,8.8,10.7,11.2,16.9c1.4,3.5,0.6,7.7-0.1,11.7c-0.2,1.2-0.4,2.4-0.6,3.5l-2.5,23.3c-0.1,6.6-8.3,18.3-19.1,27.1
		c-5.9,4.8-12.3,9-18.4,13c-2.7,1.8-5.4,3.6-8.1,5.4l-0.9,0.6L230.8,204.9z"/>
	<path d="M238.8,78.3c5.5,2.3,11.1,5.6,15.5,11.1c4.4,5.5,10,10,14.5,15.4c4.3,5.3,8.9,10.7,11.3,16.9c1.7,4.2-0.1,9.7-0.8,14.7
		l-2.5,23.3c-0.1,5.9-7.6,17.4-18.7,26.4c-8.4,6.8-17.8,12.4-26.4,18.4c-7.9-14.9-16.2-30-23.9-45.4c-11.9-24-4.8-45.3,10.1-65.5
		C223.1,86.4,229.2,80.8,238.8,78.3 M238.9,76.2l-0.7,0.2c-11.3,3-17.7,10.1-22,16c-17.8,24.2-21.1,45.6-10.3,67.5
		c5.3,10.7,11,21.3,16.5,31.6c2.4,4.5,5,9.2,7.4,13.8l1,2l1.9-1.3c2.6-1.8,5.4-3.6,8.1-5.4c6.2-4.1,12.6-8.3,18.5-13.1
		c11-8.9,19.3-20.8,19.5-27.8l2.4-23.2c0.2-1.1,0.4-2.2,0.6-3.4c0.8-4.2,1.6-8.5,0.1-12.3c-2.5-6.3-7-11.8-11.4-17.1l-0.2-0.3
		c-2.2-2.7-4.8-5.3-7.2-7.7c-2.5-2.5-5.1-5-7.2-7.7c-5.2-6.4-11.8-9.7-16.3-11.6L238.9,76.2L238.9,76.2z"/>
</g>
<path d="M259.2,119.5c-14-5.8-25.4-1.9-33,11.2c-1.1,1.9-2.1,4.3-3.8,5.2c-7,3.9-7,10-6.2,16.2c2,2.8,3.8,5.2,5.5,7.6
	c-0.2,0.2-0.3,0.5-0.5,0.7c10.3,4.2,20.7,8.3,31,12.5c0.3,0.1,0.3,0.9,0.4,1.5c4.5-1.2,9.4,0,12-5.1c2-3.9,5.1-7.2,8.1-11.2
	c-0.1,1.7-0.1,3.2-0.2,5.1c1.5-1.3,3.3-2.8,4.8-4.1l2.4-22.4l-0.3-0.4C274.9,127.9,267.5,123,259.2,119.5z"/>
</svg>
