<?xml version="1.0" encoding="utf-8"?>
<!-- Generator: Adobe Illustrator 23.0.1, SVG Export Plug-In . SVG Version: 6.00 Build 0)  -->
<svg version="1.1" id="Layer_1" xmlns="http://www.w3.org/2000/svg" xmlns:xlink="http://www.w3.org/1999/xlink" x="0px" y="0px"
	 viewBox="0 0 500 500" style="enable-background:new 0 0 500 500;" xml:space="preserve">
<style type="text/css">
	.st0{fill:#FFFFFF;}
</style>
<g>
	<g>
		<path class="st0" d="M256.6,228.6c-2.2-1.7-4.5-3.3-6.8-4.9c-5.2-3.7-10.7-7.5-15.1-12.1c-4.1-4.3-6.5-10.1-8.9-15.7
			c-0.5-1.1-1-2.3-1.5-3.4l-9.5-27.8v-0.2c0-0.9,0-1.9,0-2.9c-0.1-2.3-0.2-4.6,0.7-6.6c0.8-1.6,1.5-3.1,2.3-4.7
			c4.8-9.7,9.7-19.6,15.8-28.6c2.8-4.1,7.2-7,11.5-9.8c1.9-1.3,3.8-2.5,5.6-3.9c1.4-1.1,2.9-2.3,4.3-3.4l2.4-1.9l0.6,0.3
			c12.2,7.1,29.7,53.7,25.9,68.3c4,4.6,2.4,9.9,1,14.6l-0.2,0.5c-4.9,16.6-10.7,25.6-26.9,42l-0.6,0.6L256.6,228.6z"/>
		<path d="M257.6,103.9c11.8,6.9,29.5,54.3,25.3,67.7c4.2,4.4,2.5,9.6,1,14.5c-4.9,16.6-10.7,25.4-26.6,41.5
			c-7.4-5.6-15.5-10.4-21.8-16.9c-4.8-5-7.3-12.2-10.2-18.8l-9.4-27.5c0.1-3-0.6-6.5,0.6-9c5.6-11.3,11-22.8,18.1-33.2
			c3.9-5.7,11.1-9.1,16.8-13.5C253.5,107.2,255.6,105.5,257.6,103.9 M257.5,101.5l-1.1,0.8l-1.9,1.5c-1.4,1.1-2.9,2.3-4.3,3.4
			c-1.7,1.3-3.6,2.6-5.5,3.9c-4.3,2.9-8.8,5.9-11.7,10.1c-6.2,9-11.1,19-15.9,28.7c-0.8,1.6-1.5,3.1-2.3,4.7c-1.1,2.2-1,4.7-0.9,7.1
			c0,1,0.1,1.9,0,2.8v0.4l0.1,0.4l9.4,27.5v0.1v0.1c0.5,1.1,1,2.3,1.5,3.4c2.4,5.7,4.9,11.6,9.1,16c4.5,4.7,10,8.5,15.3,12.2
			c2.2,1.6,4.5,3.2,6.7,4.8l1.4,1.1l1.2-1.2c16.3-16.5,22.2-25.6,27.1-42.4l0.2-0.5c1.4-4.6,3-10.2-0.9-15.1
			c1.8-8.3-2.3-24.1-6.9-36.5c-4.9-13-12.5-28.4-19.5-32.5L257.5,101.5L257.5,101.5z"/>
	</g>
	<path d="M262.2,195.4c10.1-4,13.8-12.3,12.7-23c-1.2-12-6.6-19.1-18.7-22.5c-9.9-2.8-19-2.5-27.9,1.7c-3.5,1.6-6.2,4.9-9.6,7.6
		c-0.3,1.4-0.6,3.5-1,5.5c-0.6-0.1-1.8-0.1-2.4-0.2l8.9,26.8l1,0.6C237.1,200.5,249.7,200.4,262.2,195.4z"/>
</g>
</svg>
