<?xml version="1.0" encoding="utf-8"?>
<!-- Generator: Adobe Illustrator 23.0.1, SVG Export Plug-In . SVG Version: 6.00 Build 0)  -->
<svg version="1.1" id="Layer_1" xmlns="http://www.w3.org/2000/svg" xmlns:xlink="http://www.w3.org/1999/xlink" x="0px" y="0px"
	 viewBox="0 0 500 500" style="enable-background:new 0 0 500 500;" xml:space="preserve">
<style type="text/css">
	.st0{fill:none;stroke:#231F20;stroke-width:2;stroke-miterlimit:10;}
</style>
<g>
	<g>
		<path class="st0" d="M257.7,192.1c10.9-3.3,18.7-13.4,18.7-25.3c0-14.6-11.9-26.5-26.5-26.5s-26.5,11.9-26.5,26.5
			c0,12,7.9,22.1,18.7,25.3c2.4,0.7,5,1.2,7.7,1.2C252.7,193.2,255.2,192.8,257.7,192.1z"/>
		<path class="st0" d="M242.4,236.4c-4.7,2.7-7.9,7.8-7.9,13.6c0,8.7,7,15.7,15.7,15.7c8.7,0,15.7-7,15.7-15.7
			c0-5.8-3.2-10.9-7.9-13.6"/>
		<path class="st0" d="M250,193.2c-2.6,0-5.2-0.4-7.7-1.2v44.2c2.3-1.3,4.9-2,7.7-2c2.8,0,5.3,0.7,7.7,2V192
			C255.2,192.8,252.7,193.2,250,193.2z"/>
		<path class="st0" d="M257.7,236.4c-2.3-1.3-4.9-2-7.7-2c-2.8,0-5.3,0.7-7.7,2"/>
		<polyline class="st0" points="257.7,141.5 250,109.3 242.4,141.5 		"/>
		<line class="st0" x1="250" y1="193.2" x2="250" y2="166.9"/>
		<line class="st0" x1="272.9" y1="153.6" x2="250" y2="166.9"/>
		<line class="st0" x1="227.1" y1="153.6" x2="250" y2="166.9"/>
	</g>
</g>
</svg>
