<?xml version="1.0" encoding="utf-8"?>
<!-- Generator: Adobe Illustrator 23.0.1, SVG Export Plug-In . SVG Version: 6.00 Build 0)  -->
<svg version="1.1" id="Layer_1" xmlns="http://www.w3.org/2000/svg" xmlns:xlink="http://www.w3.org/1999/xlink" x="0px" y="0px"
	 viewBox="0 0 500 500" style="enable-background:new 0 0 500 500;" xml:space="preserve">
<path d="M251.8,270c8.4,3.2,15.8-13.1,18-16.9c2.1-3.8,3-19.6,3-19.6c1-3.3,1.2-8.9-1.5-13.6c0.1-3.6-2-21.2-8.7-33.7
	c2.6-5.5,2-9,0.5-13.2c1.5-8.9,2.6-23.8,0.5-38.7c-1.1-7.5-1.9-11.2-4.3-18.9c-0.8-2.9-0.8-4-1-5.2c-0.4-1.8-2.5-1.3-2.5-1.3
	c0-1.2,0-1.2-0.5-3.5l2.4-0.8c2-1.9-0.8-3.9-1.3-5.8c-0.2-2.7,2.6-1.9,4.6-0.8c0,0,2,0.6,2.9,0.5c0.5-0.1,1,0,1-0.7
	c0-0.6-0.2-1.1-1-1.8c-0.7-0.6-2.3-0.7-3.6-0.8c-2.4-1.8-3.5-1.2-4.6-1.7c-0.4-0.1-0.4-0.4-0.4-1c1.2-0.5,1.5-0.7,1.2-2.6
	c-0.2-1.5,0-1.7-2.4-2.9c0.2-0.8,0.2-2.9,0.5-4.5c1.2-1.5,1-2.3,1-2.3s0.4-2,0.8-4c0.2-1.1,0.6-1.9,0.5-2.6c1.1-2.3,1.4-2.1,1.7-3.3
	c0.5-2.3,0.8-1.5,1.1-2.9c1.1-2.1,0.7-2.7,0.6-4.4c-0.4-4.3-1.4-5.6-4.3-6.1c0,0-6.1,0.1-10.2,1.7c-2.6,1-5,3.8-6.1,6.7
	c-0.6,1.7-0.4,3.3-0.5,4.3c-0.8,7.5-4.6,5.6-5.9,11.5c-0.4,0.6,0.1,5.1,1.9,6c-1.1,1.7,1.2,2.3,1.4,5.4c-2,3.9,1.7,6.2,2,8.6
	c0.1,0.5,0.5,1,0.4,1.5c-0.5,2.4-0.2,1.2,0.6,3.1c0.7,2.4-0.1,2.1,0.4,4.6c-0.6,0.8-1.1,0.8-0.8,4.2c0.1,0.8,0.1,1.8,0.4,3.2
	c-3.3,2.4-2.5,2.7-2,5.4c0,0,0.5,3.3,1,7.6c0.6,5.6,1.1,12.5,1.4,14.5c-0.7,2.9-0.6,10-1,13.4c-0.2,7.3,0.5,19.8,1.4,26.2
	c-1.2,6.1-2.1,18-2.1,18c-0.4,4.2-0.8,8.1-1,11.8c-0.1,4-0.1,7.9-0.4,11.9c-0.2,3.8-0.6,7.7-0.8,11.9c0,0.7-0.1,1.3-0.1,2
	c0,0.1,0,0.1,0,0.2c-0.4,4.4-0.8,14,0.6,16.7C238.5,260.8,243.3,266.8,251.8,270z"/>
</svg>
