<?xml version="1.0" encoding="utf-8"?>
<!-- Generator: Adobe Illustrator 23.0.1, SVG Export Plug-In . SVG Version: 6.00 Build 0)  -->
<svg version="1.1" id="Layer_1" xmlns="http://www.w3.org/2000/svg" xmlns:xlink="http://www.w3.org/1999/xlink" x="0px" y="0px"
	 viewBox="0 0 500 500" style="enable-background:new 0 0 500 500;" xml:space="preserve">
<path d="M232.3,246.8c2.1,3.7,7.6,10.1,8.1,10.7c4.2,5.7,6.9,7.7,10.8,7.6c3.9-0.2,10.6-2.2,12.5-4.9c2-2.8,1.4-7.2,0.8-11.7
	c-0.6-4.3-1.2-8.2-1.2-8.2c-0.2-0.8,0-1.7,0-3c0.2-4-1-10.8-1.4-12.1c-0.8-3.7-1.2-8.8-1.5-14.8c-0.1-2.6-0.7-5.1-0.7-8.3
	c0-6.7-0.6-13.4-2.7-19.3c-1.2-3.6-1.4-5-1.7-6.5c-0.2-1.4-0.7-3-1.5-5.8c0.6-2.4,0.2-5.8,0.2-8.8c0-2.7,3.2-20.6,4.8-28.1
	c0.7-4.2,0.4-6.5-0.2-8c2.4-16.2,4.8-18.6,1.5-22.6l1.2-5.5c0.7-0.6,2.9-7.1,2.5-8.3c1.2-0.6,4.5-8.4,4.2-9.6
	c0.1,0.4,1.9-1.5,3.3-3.5c1.3-1.8,1.8-2.7,1.8-2.7c1.5-2.3,2.3-3.3,0.2-4.6c-0.8-0.5-2.6-1.5-3.5-1.9c-6.5-2.5-4.8-1.7-11.9-5.5
	c-2.3-1.8-6.4-4.4-10.6-6.3c-4.2-2-8.8-3.6-12.3-4.8c-2-0.7-3.5-1.3-4.6-1.5c-3.1-1-2.7-0.1-3.6,1.9c-0.4,2.5,0.1,4.8,2.1,6.4
	s5,3.2,5,3.2c3.1,1.5,3.8,3.5,5.2,5.8c2.7,4.2,3.1,8.1,6.4,13c0,0-4.6-0.2-8.7-1.4c-1.5-0.7-3.2-2.6-4.2-3.3c-0.4,0.1-1.3,0.4-1,1.3
	c0,0,1.4,2.6,3,3.6c1.9,1.2,4,1.8,5,2c0,0-0.1,1.3,0.8,1.5c2.6,0.7,2.1,0.6,3.6,2.3c0.4,0.6,0.2,2.9-0.4,5c0.8,1,1.1,0.8,1.2,1.5
	c-0.2,1-0.4,2.5-0.7,3.5c-1.3,0.1-1.3,0.1-3,0.2c-0.1,0-0.2,0.1-0.6,0.6c0,2-0.5,3.2-0.6,5.7c-4.8,16.7-9.8,43.7-11.1,59.7
	c-0.5,5.5-1.2,5.1,0.7,11.1c-1.8,4.6-3,9.3-4,13.7c-2.6,10.6-2.4,21.3-1.5,29c0.4,3.3,2.7,13.8,3.2,15.7S230.1,243.1,232.3,246.8z"
	/>
</svg>
