<?xml version="1.0" encoding="utf-8"?>
<!-- Generator: Adobe Illustrator 23.0.1, SVG Export Plug-In . SVG Version: 6.00 Build 0)  -->
<svg version="1.1" id="Layer_1" xmlns="http://www.w3.org/2000/svg" xmlns:xlink="http://www.w3.org/1999/xlink" x="0px" y="0px"
	 viewBox="0 0 500 500" style="enable-background:new 0 0 500 500;" xml:space="preserve">
<path d="M279.3,222.2l-4.3-6.1c0.7-12.5-1.1-22.8-5.7-37.6c-1.9-6.3-6.7-8-9.4-13.9c-2.7-5.8-4.9-9.5-4.8-15.7
	c2.7-13.7,1.9-14.8,0.4-22.6c0.6-2.9,0.6-4.4-0.2-9.9c1.9-7.7,1.2-12.7,1.3-18.8c0.8-0.8,1.8-1.7,1.9-4.6c0.1-3.5-0.5-8.7-0.7-10.8
	c-0.2-1.5-0.5-1.8-1.2-2.4c-0.8-4.4-1.4-13-1.8-15.7c0.1-0.8,0-1.7,0-1.7c1.1-7.9-2.6-6.7-1.9-8.6c0.2-0.4,0.6-0.5,1-0.7
	c0.6-0.1,1.3-0.2,1.9-0.5c10.2-2.9,16.1-13.6,13.2-23.8c-2.9-10.2-13.6-16.2-23.8-13.2c-10.2,2.9-16.1,13.6-13.2,23.8
	c0.1,0.6,0.4,1.1,0.6,1.7c0.1,0.1,0.1,0.4,0.2,0.5c0,0,2.1,5.2,3.2,6.5c1.5,2,3.7,4.9,5.6,7c0.7,0.7,0.8,1.9,1.2,2.6
	c1.4,2.1,2.4,3.3,2.1,7.7c0,1.5-0.1,9.4-0.4,13.7c-1.3,0.4-1.3,1.7-1.3,1.7c-0.2,3.3-0.7,8.6-0.8,12.4c0.1,1.3,0,1.5,0.6,2.1
	c-1.3,6.1-3,7.5-0.7,13.7c-0.4,2.4-0.8,5.6-1.1,8.7c-0.2,3.3-0.4,6.5-0.7,9.9c-3.7,4.8-3.9,5.5-4.9,9.4c-0.5-2.1-1.9-2.9-3-3.7
	c-0.7-3.7-0.4-3.2-5.6-3.5c-1.2-2-1.7-0.7-3.9-2.1c-2.4-1.5-3.9-3.3-10-3c-4.9,0.7-8.4,3.5-11.4,8c-2.6,4.2-3.7,9.2-1.9,14.6
	c1.7,5.1,7.7,7.9,10.2,9.4c-1.1,1.8-0.2,3.9-1.5,5.7c-0.7,1.7-3.1,4.3-3.1,4.3c-6.3,2.1-7,7.4-8.2,10.4c-0.5,1.2-0.8,2.4-1.3,3.7
	c-1.2,3.5-2.3,7-2.9,10.1c-4.4,6-4,12.9-4,12.9c-3.2,5-5.6,10.5-7.4,15c-3.9,9.9-4.4,15.9-5.5,19.9c-1.3,2.7-2.6,4.4-4.2,7.1
	c-1.1,0.8-2.6,4.5-2.6,4.5c-1.8,1.4-4.9,4.3-6.7,5.4c-3.7,1.9-8.6,3.5-10.6,3.9c-1.5,0.4-0.7,1.8,0.1,2c0.7,0.2,5.9-0.1,5.9-0.1
	c2.5-0.2,5.8-1.4,7.9-2.7c1.9-1.2,1.2,0.6,1.2,0.6c-1.9,1.8-3.5,2.7-4.5,3.5c-2.3,2.3,1,3,3.5,1.7c0,0,5.2-3.1,7.9-4.5
	c0.7,0.4-0.1,1.5-0.5,3c-0.2,0.8-0.1,2,0.5,2.3c4.4-0.2,4.4-5.6,6.7-7.9c3.2-1.9,2.3,2,7.9,1.7c1.4,0,4.5-0.4,4.3-2.6
	c-0.2-1.8-1.9-1.4-3.6-1.5c-1,0-2-1-2.5-1.8c0,0-0.2-0.2,0-2.5c-0.8-1.4-1.7-4-1.2-6.3c0,0.1,0.4-6.9,4.4-14
	c11.8-11.3,12.5-15.9,15.1-27.1c2.5-1.4,4-2,4.8-6.2c0.7-0.1,1.3-0.2,1.8-0.2c0.5,0,0.8,0,1.3,0c1.3,1.9,5.2,5.7,7.3,7.3
	c-0.4,3.7,3.9,5.5,4.2,5.8c1,2.6,2.3,5.7,4.6,9.2c-1.7,3.2-1.3,2.4-2.7,5.7c-9.5,2.6-3.2,14-3.3,18.8c0,0,9.9,23.7,33.2,21.9
	c23.3-1.8,33.3-31.8,33.3-31.8C292.7,225.6,283.1,223,279.3,222.2z"/>
</svg>
