<?xml version="1.0" encoding="utf-8"?>
<!-- Generator: Adobe Illustrator 23.0.1, SVG Export Plug-In . SVG Version: 6.00 Build 0)  -->
<svg version="1.1" id="Layer_1" xmlns="http://www.w3.org/2000/svg" xmlns:xlink="http://www.w3.org/1999/xlink" x="0px" y="0px"
	 viewBox="0 0 500 500" style="enable-background:new 0 0 500 500;" xml:space="preserve">
<style type="text/css">
	.st0{fill:#040303;}
	.st1{fill:#FCFDFF;}
	.st2{fill:#F2F1F1;}
	.st3{fill:#242424;}
	.st4{fill:#262626;}
	.st5{fill:#EAE9E9;}
	.st6{fill:#222222;}
	.st7{fill:#3A3A3A;}
	.st8{fill:#E3E2E2;}
	.st9{fill:#505050;}
	.st10{fill:#2C2D2D;}
	.st11{fill:#797879;}
	.st12{fill:#484848;}
	.st13{fill:#8A8989;}
	.st14{fill:#111111;}
	.st15{fill:#EFEEEE;}
	.st16{fill:#6D6D6C;}
	.st17{fill:#7F7F7F;}
	.st18{fill:#B3B3B3;}
	.st19{fill:#C7C6C6;}
	.st20{fill:#919191;}
	.st21{fill:#555554;}
	.st22{fill:#AFAFAF;}
	.st23{fill:#868787;}
	.st24{fill:#E5E4E4;}
	.st25{fill:#ACACAC;}
	.st26{fill:#979797;}
	.st27{fill:#6E6C6C;}
	.st28{fill:#969696;}
	.st29{fill:#1A1A1A;}
	.st30{fill:#F5F5F5;}
	.st31{fill:#B7B7B8;}
	.st32{fill:#242425;}
	.st33{fill:#636161;}
	.st34{fill:#8B8B8B;}
	.st35{fill:#D2D2D1;}
	.st36{fill:#BCBCBC;}
	.st37{fill:#737373;}
	.st38{fill:#5A5B5B;}
	.st39{fill:#C9C9C9;}
	.st40{fill:#535353;}
	.st41{fill:#888888;}
	.st42{fill:#A4A4A4;}
	.st43{fill:#CBCACB;}
	.st44{fill:#BFBEBF;}
	.st45{fill:#868686;}
	.st46{fill:#8E8E8E;}
	.st47{fill:#969697;}
	.st48{fill:#CECECE;}
	.st49{fill:#F0EFEE;}
	.st50{fill:#515151;}
	.st51{fill:#424343;}
	.st52{fill:#DEDEDE;}
	.st53{fill:#808080;}
	.st54{fill:#AEAEAF;}
	.st55{fill:#7C7C7C;}
	.st56{fill:#272727;}
	.st57{fill:#5E5E5E;}
	.st58{fill:#ADADAC;}
	.st59{fill:#656564;}
	.st60{fill:#616060;}
	.st61{fill:#6B6A6A;}
	.st62{fill:#BFBFBF;}
	.st63{fill:#7D7D7D;}
	.st64{fill:#474747;}
	.st65{fill:#6C6C6C;}
	.st66{fill:#686867;}
	.st67{fill:#494A49;}
	.st68{fill:#A6A6A6;}
	.st69{fill:#5D5D5E;}
	.st70{fill:#A5A5A5;}
	.st71{fill:#2E2F2F;}
	.st72{fill:#898989;}
	.st73{fill:#6D6D6D;}
	.st74{fill:#9B9A9B;}
	.st75{fill:#8C8C8C;}
	.st76{fill:#2C2C2C;}
	.st77{fill:#AAAAAA;}
	.st78{fill:#B0B0B0;}
	.st79{fill:#7B7B7B;}
	.st80{fill:#BEBDBE;}
	.st81{fill:#8C8B8C;}
	.st82{fill:#727171;}
	.st83{fill:#4C4C4C;}
	.st84{fill:#706F70;}
	.st85{fill:#575756;}
	.st86{fill:#C7C7C7;}
	.st87{fill:#838383;}
	.st88{fill:#5F5E5E;}
	.st89{fill:#A7A7A7;}
	.st90{fill:#A1A1A1;}
	.st91{fill:#4F4F4F;}
	.st92{fill:#C6C5C5;}
	.st93{fill:#919090;}
	.st94{fill:#7E7E7D;}
	.st95{fill:#7E7E7E;}
	.st96{fill:#474847;}
	.st97{fill:#333434;}
	.st98{fill:#727272;}
	.st99{fill:#6A6A6A;}
	.st100{fill:#6A6969;}
	.st101{fill:#676766;}
	.st102{fill:#DBDBDB;}
	.st103{fill:#787878;}
	.st104{fill:#C0C0C0;}
	.st105{fill:#383838;}
	.st106{fill:#E1E0E0;}
	.st107{fill:#D5D5D5;}
	.st108{fill:#D1D0D0;}
	.st109{fill:#323232;}
	.st110{fill:#E0E0E0;}
	.st111{fill:#1C1C1C;}
	.st112{fill:#202020;}
	.st113{fill:#343434;}
	.st114{fill:#B9B8B9;}
	.st115{fill:#959595;}
	.st116{fill:#2F2F2F;}
	.st117{fill:#4A4A4A;}
	.st118{fill:#BBBBBB;}
	.st119{fill:#454545;}
	.st120{fill:#232424;}
	.st121{fill:#FFFFFF;}
	.st122{fill:#D6D6D6;}
	.st123{fill:#D9D9D8;}
	.st124{fill:#E5E5E4;}
	.st125{fill:#A2A2A2;}
	.st126{fill:#E2E2E2;}
	.st127{fill:#D2D2D2;}
	.st128{fill:#A3A3A3;}
	.st129{fill:#9F9F9F;}
	.st130{fill:#B8B7B8;}
	.st131{fill:#9C9C9C;}
</style>
<g>
	<path class="st0" d="M257.3,157.4c0,8.7,3.4,16.5,6.5,24.5c2.6,0.1,2.8-0.3,3.5-4.9c7.7-20.9,13.8-42.5,24.8-61.9
		c1.6-2.9,1.2-6.1,2-9.1c0.2-1.6,1.1-1.7,2.3-1c3.7,6,10.1,10.2,11.5,17.7c0.5,2,0.9,4.2,0.3,6.3c-0.2,0.7-0.5,1.4-1.1,1.9
		c-1.1,1.2-2.3,1.8-3.9,1.6c-1.5-0.3-2.3-1.5-3.5-2.5c-2.3-1.8-3.2-6.9-7.7-4.2c-3.2,2-5.3,12.1-3.3,14.7c1,1.4,2.3,2.5,3.5,3.6
		c6,6.5,7.9,14.1,4.6,22.2c-3.4,8.5-9.5,14-19.4,13.9c-6.3-0.7-3.5-4.4-2.1-7.7c-2.7,3.7-3.1,7.9-3.7,12.2
		c-1.8,7.4,1.4,12.7,6.3,17.6c2.6,2.6,5.8,4.6,7.7,7.7c1.1,2.2,2.2,4.6,2.2,7.1c-0.4,1.7-1.7,2.5-3.4,2.5c-2.8-0.1-5.1-1.4-7.7-2.3
		c-1-0.4-1.9-0.9-2.9-1.4c-3.1-2.3-5.5-5.3-7.4-8.7c0.3,2.5,1,4.9,0.7,7.5c0.1,6.5-2.1,12.7-2.7,19c-0.7,2.7-0.7,5.8-2.5,8.1
		c-0.5,0.4-1.2,0.7-1.8,0.7c-3.2-1.3-6.1-0.3-8.9,1.6c-0.9,0.2-1.7,0-2.5-0.3c-0.7-0.2-1.5-0.3-2.1,0c-0.7,0.4-1.4,0.9-2.1,1.2
		c-0.6,0.1-1.2,0-1.7-0.2c-1.3-1.2-3.3-2.1-1.7-4.5c2.3-7.4,1.1-14.7,1.1-22.2c0.1-12.7-0.9-25.5-1-38.2c0-5.1-2.5-5.1-6-4.6
		c0.1-0.9,0.4-1.5,1.2-1.9c0.2-0.9,0.4-1.7,0.7-2.6c3.3,0.2,1.9-2.5,2.3-3.9c1.1-15.5-3.2-30.8-1.9-46.3c0.3-1.1,2.5-2.2,0-3.3
		c-0.7-3.1-0.6-6.3,0.4-9.3c1.2-3.3,2.9-1.2,3.9-0.1c1.8,1.7,3.3,3.9,5.3,5.5c0.5,0.4,1,1,1.3,1.5c1.5,2.6,2.7,5.3,3.4,8.3
		c0.1,5.1,1.1,9.9,2.3,14.7c0,1.4-0.1,2.8-1.9,3.1c-2.6-0.6-3.3-3.4-5.5-4.9c0.9,0.9,1.5,1.6,2,2.2c1.4,1.6,2.1,3.7,3.6,5.5
		c0.7,1,1.6,1.9,2.5,2.8c0.3,1.1,0.5,2.2,0.9,3.3C252.5,153.5,256.4,155.3,257.3,157.4z"/>
	<path class="st1" d="M284.8,211.6c-3.9-3.5-7.9-6.9-11.4-10.9c-4.2-4.8-5.5-9.9-3-15.8c-0.6-5.5,2.9-5.5,6.7-5.3
		c9.5-1,16.6-5.8,19-15.2c2.1-8.9-0.6-16.3-8.5-21.3c-3-1.9-3.7-3.9-2-7.1c1.6-3.2,3.1-6.7,4.3-10c2-5.8,4.5-4.7,7.9-1.1
		c2.3,2.5,3,6.1,6.1,7.9c3.9,2.7,4.3,7.4,6,11.1c0.4,2.3,1,4.6,1.5,6.9c0.9,3.3,0.3,6.5,0.2,9.9c-2.2,15.6-6.1,30.7-13.9,44.6
		c-0.7,1.2-1.2,2.5-1.6,3.7c-1.1,2.2-1.3,4.6-0.6,7.1c0.4,1.5,1.3,2.8,2,4.2c0.4,0.9,0.7,1.7,1.1,2.6c0.4,1.5,0.6,3,0.4,4.6
		c3.1,7.4-2.3,6.9-6.7,7.4c-0.7-2.2-0.3-4.5-0.2-6.9c-2.3-3.1-5.1-2.9-8.3-1.1c-3.3,0.5-3.3-1.8-3.4-3.9c-0.2-3.2,2.3-3,4.4-3.5
		c1.1-0.3,1.9-0.9,2.1-2.1C286.4,215.3,287.7,212.5,284.8,211.6z"/>
	<path class="st2" d="M260,242.4c0.4,0.1,0.9,0.2,1.2,0.4c1.6,2.5-1.5,5.1,0,7.5c-0.3,6.1-5.8-0.2-8.3,3.3c-1.6,2.3-2.8,6.9-7.1,6.9
		c-1.3,0-2.5-1.3-3.6-2c-1.1-2.9-3.4-1-5.1-1.3c-1.3,0.2-2.5,0-3.7,0.3c-1.3,0.1-2.5-0.3-3.6-0.9h0.1c-4.7,0.2-8.9-1.6-12.9-3.6
		c-1.5-0.6-3.1-1.3-6.3-2.6c7.7-1.1,7.1-8.1,11.5-10.9c0.7,2.1,3.2,1.2,4.4,2.5c2.2,0.7,1.7,3.9,4.2,4.6c2,0.5,4.2,1.2,6.3,1.6
		c2,0.3,3.9,0.3,5.3-1.3c0.6-0.6,1.5-1.2,2.5-1.4c0.2-0.4,0.3-0.9,0.5-1.2c0.5-0.3,1.1-0.2,1.5,0.1c0.4,0.4,0.9,0.9,1.2,1.3
		C252.6,247.4,255.3,241.5,260,242.4z"/>
	<path class="st3" d="M295.5,205.5c6.9-11.1,10.8-23.2,13-36c0.6-3.5,1.6-7.1,2.3-10.7c0.1-1.8,1-1.8,2.2-1.1
		c-0.2,15.6-5.3,29.9-11.8,43.9c-1.4,1.1-1.4,3-2.3,4.2C297.8,207.2,296.2,208.3,295.5,205.5z"/>
	<path class="st4" d="M250.4,94.4c0.7,0.5,1.1,1.2,0.2,1.9c-1.4,2.5-3,3.2-4.9,0.5c-1-1.5-1.8-3.1-2.9-4.6c-1-1.6-1.1-3.3-1.4-5.1
		c-0.3-1.4-0.3-2.9-0.4-4.3c0.1-0.9,0.3-1.8,0.4-2.7c0.2-1.9,0.4-3.9,2.7-4.6c1.2-0.1,2.2,0.2,3.2,0.9c1.2,1.1,1.6,2.3,1.7,3.9
		c0.1,1.3,0,2.7,0.1,3.9C249.7,87.7,250.6,90.9,250.4,94.4z"/>
	<path class="st5" d="M345.9,232.9c0.9,0.3,1.7,0.6,2.5,1c1.2,2.6-1.8,3.6-2.1,5.8c-1.7,1.2-3.1,0.1-4.7-0.5
		c-2.8,0.5-3.6-1.7-4.7-3.5c-3.5,0-5.8-2.1-7.7-4.7c-1.5-0.3-1.5-1.1-0.7-2.1c2.7-1.2,5.3,1.9,7.9,0.3c0.7,0.3,1.5,0.6,2.2,1
		C341.2,230.5,344.2,230.3,345.9,232.9z"/>
	<path class="st6" d="M252.3,109.4c2.1,3-0.6,6.5,1,9.5c-0.4,2.1-1.6,2-2.7,0.7c-1.1-1.2-1.7-2.8-2.7-4.2v0.1
		c-1.4-2.9-4.2-4.9-5.3-7.9c-0.5-2.7-1.5-5.1-2.3-7.7c-0.5-3.5-1.3-7.4,4.4-3.9C246.7,100.8,250.4,104.5,252.3,109.4z"/>
	<path class="st7" d="M243.1,107.2c2.1,2.5,5.5,4.3,4.7,8.3c-4.8-0.2-4.5-7.5-9.7-7.1c-1.4-5.1,0.4-10.1,1.3-15.2
		c0.4-2.9,2.3-1.9,4.2-1.6c1.8,0.9,2.8,2.2,2.7,4.3c-0.4,0.5-1.1,0.9-1.8,0.9c-5.3-2.6-3,1.4-3,3.4
		C241.6,102.7,242.9,104.8,243.1,107.2z"/>
	<path class="st8" d="M295.5,205.5c4.4,2.5,3.4-3.2,5.8-3.7c0,1.7-1.5,3.3-0.1,5.1c0.5-0.3,1.1-0.2,1.6,0.2c0.5,0.6,1,1.5,1.1,2.3
		c0.1,0.9-0.1,1.7-0.3,2.6c-0.1,0.5-0.2,1.1-0.3,1.6c-0.1,0.9-0.1,1.7-0.3,2.6c-0.1,0.6-0.4,1.2-0.7,1.6c-1.4,1.6-2.9,3.3-5.3,3.1
		c-1-1.4-2.8-2.2-3-4.3c2.8-1.8,0.9-4.8,1.7-7.1C294.4,208.1,294.6,206.8,295.5,205.5z"/>
	<path class="st9" d="M306.9,130c0.1-0.4,0.3-0.7,0.5-1.2c1.5-0.9,2.5-0.3,3.1,1.2c4.2,6.7,6.1,14,3.3,21.8
		c-1.7,0.2-2.3-0.9-2.9-2.2c-0.3-1.9-0.7-3.9-0.5-5.8C308.7,139.3,305.8,135.1,306.9,130z"/>
	<path class="st10" d="M244.4,96.8c0.6-0.3,1.2-0.5,1.8-0.9c1.3,2.2,2.9,1,4.4,0.3c-0.2,1.7,1.2,1.9,2.1,2.7c0.5,0.4,0.9,1,0.9,1.6
		c-2.5,2.6,0.1,6-1.4,8.9C249,105.7,244.3,102.7,244.4,96.8z"/>
	<path class="st11" d="M261.1,250.4c-4.9-2.6,0.5-5.1,0-7.5c1.4-2.8-0.1-6.3,2.1-8.9c4.4-1.6,5.3,0.5,4.6,4.4
		c-0.7,2-0.9,4.3-2.7,5.8C262.2,244.9,262.6,248.3,261.1,250.4z"/>
	<path class="st12" d="M273,245.9c-3.4,3.9-2,10.9-8.5,14.1c1.1-3.9,2-6.9,2.9-10c0.1-1.9-0.1-3.9,0.4-5.9c0.9-2,2.5-3,4.6-3.4
		c0.6,0,1.3,0.2,1.8,0.5c0.3,0.5,0.5,1.1,0.4,1.7C274.3,244,273.3,244.7,273,245.9z"/>
	<path class="st13" d="M288.1,234.8c-0.4,0.9-0.7,1.6-1.2,2.5c-2.8,1.2-2.3,4.9-5.1,6.1c-0.7,0.1-1.4,0-2-0.2
		c-2.7-2.8-1.8-5.8-0.5-8.9c0.4-0.5,0.9-1,1.5-1.3c0.9-0.4,1.8-0.7,2.7-1.1c1.2-0.5,2.1-1.3,3.4-1.4c0.6,0.1,1.2,0.4,1.6,1
		C289,232.7,289.5,233.8,288.1,234.8z"/>
	<path class="st14" d="M247.7,80.9c-0.1-1.1-0.2-2.1-0.2-3.2c-0.4-1.4-1.9-1.5-2.7-2.6c-0.6-1.6-0.5-3.1,0.1-4.7
		c1.2-1.1,2-2.7,4.2-1.5c-0.7,4.6,3.9,7.5,3.5,12.1C251,84.5,249.4,82.5,247.7,80.9z"/>
	<path class="st15" d="M322.2,193.5c-1.1,2.2,5.8,10.2-4.3,5.9c-1.2-0.2-1.5-1.2-1.6-2.1c0-0.6,0-1.4,0.1-2c0.4-1.9,0.2-4.2,2.6-5.3
		C321,190.3,322.2,191.5,322.2,193.5z"/>
	<path class="st16" d="M311.7,209c1.4,4.2-1.6,6-3.9,8.3c-2.2,0.7-3.1-0.6-3.9-2.3c-0.1-0.6-0.1-1.4,0.1-2c1.3-2.2,1.3-5.8,5.1-5.8
		C310.1,207.5,311.1,207.9,311.7,209z"/>
	<path class="st17" d="M304.5,214.3c1.1,1,2.1,1.9,3.2,2.9c-2.1,1.7-4.4,3.5-6.5,5.3c-1.1,0.7-2.2,1.5-3.4,0.1
		c-0.3-0.6-0.5-1.3-0.9-1.9c1.7-1.4,3.3-2.8,5.1-4.2C303,216.2,303,214.4,304.5,214.3z"/>
	<path class="st18" d="M281.6,243c1.3-2.3,0.6-6.5,5.3-5.8c-1.2,3.3,2.7,9.5-5.1,9C281.2,245.1,281,244.2,281.6,243z"/>
	<path class="st19" d="M244.3,245.6c-0.3,0.7-0.6,1.6-1,2.3c-2.1,0.7-4.3,1.7-6.7,1.1c-0.7-0.7-1.1-1.6-0.7-2.7
		c1.1-2.5,2.8-4.3,5.3-5.3C242.2,242.6,243.2,244,244.3,245.6z"/>
	<path class="st20" d="M317.1,197.7c0.3,0.6,0.6,1.2,1,1.8c0.2,1.6,1.4,3.2-0.1,4.7c-0.5,0.2-1.1,0.4-1.6,0.4c-0.9,0-1.7,0-2.5,0.3
		c-0.5,0.4-1.1,0.5-1.6,0.4c-1.2-0.6-1.8-1.6-2-2.9c0-0.6,0-1.3,0.2-1.9c0.3-1,0.9-1.7,1.6-2.2C313.5,197.7,315.1,196.3,317.1,197.7
		z"/>
	<path class="st21" d="M275.2,99.4c9.3-1,10.8,0.6,8.3,8.5C284.1,101.9,280.8,99.7,275.2,99.4z"/>
	<path class="st22" d="M328.5,228.7c0.2,0.6,0.4,1.3,0.6,1.9c-3.2,1.5-5.3-1.1-7.9-2.7c3,0.6,4.6-4.5,8.1-1.6
		C330,227.5,329.5,228.3,328.5,228.7z"/>
	<path class="st23" d="M214,209.6c4.2,1.6,8.1,3.3,13.3,5.3C220.1,217.6,217.5,212.5,214,209.6z"/>
	<path class="st24" d="M268.5,244.2c1.3,2.2,0.1,4.2-1.1,5.9c-1.2-1.8-2-3.6-2.1-5.9c-0.3-2-0.3-3.9,1.3-5.5
		C271.4,239,268.2,242.2,268.5,244.2z"/>
	<path class="st25" d="M312.3,198.6c-0.3,1-0.7,1.9-1.1,2.9c-1.4,0.9-2.8,1.4-3.9-0.3c-1.3-2.9-0.6-5.3,2.1-6.9c0.3-0.4,0.6-1,1-1.4
		c0.7,0,1.3,0.1,1.9,0.6C313.3,195.1,314.9,196.7,312.3,198.6z"/>
	<path class="st26" d="M308.1,201.6c1.1,0,2-0.1,3.1-0.1c-0.1,0.3-0.2,0.6-0.4,0.9c0.3,1.5,0.1,3-1,4.2c-2.5,0.6-4.9,1.7-7.5,0.7
		c-0.3-0.2-0.6-0.4-1-0.6c0.6-1.7,1.4-3.4,2-5.1c0.4-0.5,0.9-0.6,1.4-0.3C305.7,201.8,306.9,201.6,308.1,201.6z"/>
	<path class="st27" d="M342.1,149.2c3.3,1.4,4.4,3.9,2,6.7c-1.3,1.6-3.5,3.7-5.1-0.2C340.4,153.7,340.2,150.9,342.1,149.2z"/>
	<path class="st28" d="M380.2,151.8c-4.2-1.6-7.1-5.3-11.5-6.9c4.7,1.4,9.9,1.6,13.2,6.1C381.5,151.6,380.9,151.8,380.2,151.8z"/>
	<path class="st29" d="M257.3,157.4c-2.3-1.1-5.3-1.6-5.1-5.1c0.2-2.2,1.9-2.3,3.7-1.8C256.4,152.7,256.9,155.1,257.3,157.4z"/>
	<path class="st30" d="M311.6,181c0.9-2.8,3.4-2.2,5.5-2.7c1,0.3,1.7,0.9,2.5,1.6c0.9,1.1,1.5,2.2,1.3,3.7c-0.3,1.1-0.9,1.8-1.8,2.1
		C315.6,185.6,314.4,182,311.6,181z"/>
	<path class="st31" d="M320,183c-0.6-0.9-1.4-1.8-2-2.7c-0.3-1.7,0.1-3.1,1.6-4.2c4.2,1.3,2,6,4.6,8.3v-0.1
		c-0.2,0.4-0.3,0.9-0.5,1.4C321.1,186.8,320.7,184.8,320,183z"/>
	<path class="st32" d="M311.7,149.3c0.7,0.9,1.5,1.6,2.3,2.5c0.5,2.1,0.3,4.2-0.9,6c-0.7,0.3-1.5,0.6-2.2,1.1
		c-0.3-2.9-0.6-5.8-1-8.5C310.3,149.7,310.9,149.4,311.7,149.3z"/>
	<path class="st33" d="M245.8,70.9c-0.3-0.9-0.6-1.6-1-2.5c0.2-2.1-0.3-4.4,1.7-6.5c2,1.9,2.6,4.2,2.6,6.9
		C247.9,69.6,247,70.3,245.8,70.9z"/>
	<path class="st34" d="M273.1,98.4c-5.5,1-6.9-3-9.9-4.2C266.6,94.2,269.4,95.8,273.1,98.4z"/>
	<path class="st35" d="M296,98.9c-1.6-3.4,0.9-5.8,2-9.1c2.6,3.6,0,6.3-0.6,9.3c-0.3,0.3-0.6,0.3-1,0.2C296,99.1,295.8,99,296,98.9z
		"/>
	<path class="st36" d="M322.2,193.5c-1.2-1.1-2.2-2.1-3.4-3.2c-2-0.3-1.7-1.6-1.2-2.9c0.4-0.5,1-0.9,1.7-0.9
		c2.5,0.2,3.2,2.1,4.2,3.9c0.9,0.6,2.2,1,1.7,2.3C324.5,194.1,323.3,193.5,322.2,193.5z"/>
	<path class="st37" d="M250.4,94.4c-1.1-3.3-3.5-6.3-2.3-10.2c1.5-0.2,2.1,0.9,2.9,1.9c0.4,0.9,1.2,1.3,2,1.5
		C254.5,90.6,250.8,91.8,250.4,94.4z"/>
	<path class="st38" d="M294.1,227.6c-0.5,2.3-1.1,4.6-1.6,6.9c-0.3-0.1-0.6-0.1-1.1-0.1c-2-1.6-2.8-3.7-2.8-6.3
		C290.5,227.3,291.7,222.1,294.1,227.6z"/>
	<path class="st39" d="M311.6,181c3.9-0.9,4.8,3.3,7.5,4.5c0.3,0.6,0.1,1.1-0.5,1.3l0,0c-2,1.5-3.9,0.5-5.9-0.3
		c-1-0.5,0.4-2.2-1.2-2.5C311.5,183,311.5,182.2,311.6,181z"/>
	<path class="st40" d="M308.1,201.6c-0.9,1.3-1.8,2.6-3.5,2.7c0-0.9,0-1.7,0-2.7c0.5-2.9,1.2-5.8,3.5-7.9c0.4,0.1,0.9,0.2,1.2,0.5
		C308.1,196.6,307.9,199.1,308.1,201.6z"/>
	<path class="st41" d="M311.1,193.4c-0.3-0.2-0.6-0.4-1-0.5c0-0.4,0-0.9,0.2-1.3c-0.4-1.8,0.3-3.2,1.7-4.4c4.2,0.5,4.7,2.9,3.3,6.3
		C314,194.9,312.5,195.3,311.1,193.4z"/>
	<path class="st42" d="M303.7,262.7c-3.6-1.5-7.4-3-11.8-4.7c2.9-0.6,5.1-0.5,7.4,0.3C300.1,260.6,304.5,259,303.7,262.7z"/>
	<path class="st43" d="M229.6,246.7c-1.7,0.5-1.7,0.5-3.1-4.2c0.3-0.5,0.4-1.1,0.4-1.6c4.8-2.9,2.7,1.8,3.5,3.3
		C230.9,245.6,230.5,246.3,229.6,246.7z"/>
	<path class="st44" d="M348.2,192.3c-2.2-0.6-4.5-1.2-6.7-3.4c4.2-1.5,6.5,0,8.5,2.6C349.7,192.4,348.8,192.1,348.2,192.3z"/>
	<path class="st45" d="M229.6,246.7c0.3-0.7,0.5-1.6,0.9-2.3c1.8,0.6,3.6,1.2,5.3,1.8c0.3,0.7,0.5,1.4,0.9,2.1
		c0.4,0.7,0.3,1.2-0.5,1.4C233.7,249.3,230.9,249.6,229.6,246.7z"/>
	<path class="st22" d="M368.3,185c3.5,2.3,3.6,4.3,1.7,6.5c-0.5,0.6-1.9,1.4-2.5,0.4C366,189.6,368.8,188,368.3,185z"/>
	<path class="st46" d="M236.5,256.2c1.8-0.4,3.6-0.9,5.3-1.3c1.2-0.2,2.7-0.3,2.3,1.3c-0.1,0.9-1.5,1.5-2.2,2.3
		c-1.5,0-3-0.1-4.5-0.1C236.7,257.9,236.3,257.2,236.5,256.2z"/>
	<path class="st12" d="M380.2,151.8c0.5-0.2,1.2-0.5,1.7-0.7c1.9,4.2,0.4,6.1-3.9,6.3c-1.6-0.1-1.7-0.9-0.9-2
		C378.7,154.6,380.2,153.9,380.2,151.8z"/>
	<path class="st47" d="M328.5,228.7c0.3-0.7,0.7-1.5,1.1-2.2c2.2,0.9,4.6,1.6,6.9,2.5C333.7,233.1,331.1,229.1,328.5,228.7z"/>
	<path class="st28" d="M365.4,153.5c-2.9-0.6-4.9-2.3-6.7-4.8c2.8,0.3,5.5,0.6,7.1,3.4C366.2,152.7,366.1,153.2,365.4,153.5z"/>
	<path class="st29" d="M251.9,140.9c1.5-0.2,2-1.4,2.7-2.5c0.2,2.9,0.4,5.8,0.6,8.7c-1.7,0.5-2.8-0.4-3.7-1.6
		c-0.2-1.3-0.5-2.6-0.4-3.9C251.3,141.4,251.5,141.2,251.9,140.9z"/>
	<path class="st48" d="M342.1,149.2c-0.7,2.2,0.5,5.5-3,6.5C337,152.1,339.1,150.5,342.1,149.2z"/>
	<path class="st49" d="M318.5,187c0.1-0.4,0.3-0.9,0.5-1.3c0.3-0.9,0.6-1.7,1.1-2.6c1.2,1,2.3,1.8,3.6,2.7c-0.1,1.5-0.1,3-0.2,4.6
		C322,189.2,320.1,188.2,318.5,187z"/>
	<path class="st50" d="M247.8,115.6c2.6-0.2,1.9,5.1,5.3,3.3c1.1,1.9-0.1,3.4-1.1,4.9C249,121.9,248.6,118.7,247.8,115.6z"/>
	<path class="st51" d="M249.9,86.6c-0.6-0.9-1.3-1.6-1.9-2.5c-0.9-1-0.7-2.1-0.3-3.2c1.6,0.6,3.2,1.4,4.8,0.1
		c-0.1,1.6-0.2,3.2-0.2,4.7C251.8,86.5,251,86.8,249.9,86.6z"/>
	<path class="st52" d="M318.9,174.4c0.2-2.6-1.9-5.8,2.5-8.3C320.7,169.6,323.1,172.7,318.9,174.4L318.9,174.4z"/>
	<path class="st53" d="M296,98.9c0.4,0.2,0.9,0.3,1.3,0.3c1.7,2.2-0.7,3.9-0.7,6c-0.7,0.3-1.5,0.6-2.3,1
		C293.3,103.2,294.9,101.1,296,98.9z"/>
	<path class="st45" d="M304.4,104.4c2.1,1.5,3.5,3.1,3.3,6.3C305.1,109.2,302.3,108.3,304.4,104.4z"/>
	<path class="st54" d="M338.8,200c2.7-1.4,4.3,0,6.1,1.6C342,203.6,340.4,202.6,338.8,200z"/>
	<path class="st55" d="M313.9,259.8c-1.7-3.3-5.5-3.4-8.1-5.5c-0.5-0.6-0.5-1,0.3-1c3.2,1.3,7.1,1.2,9.1,4.8
		C315.5,259.1,315,259.8,313.9,259.8z"/>
	<path class="st56" d="M310.7,130c-1.1-0.4-2-0.7-3.1-1.2c-0.2-2-0.4-4.2,0.6-6C309.9,124.9,311.3,127,310.7,130z"/>
	<path class="st57" d="M277,250.9c-0.6,0.6-1.3,1.3-1.9,2c-1.4-1.5-1.3-3-0.2-4.6c2-0.7-0.6-4.4,2.7-4.4c0.6,0.2,1.3,0.6,1.7,1.2
		C279.4,247.5,278.6,249.3,277,250.9z"/>
	<path class="st58" d="M308.9,206.7c0.6-1.5,1.2-2.9,1.8-4.4c0.6,0.9,1.4,1.8,2,2.8c1.1-0.2,1.5,0.2,1.4,1.3
		c-0.9,0.9-1.6,1.7-2.5,2.5c-1-0.4-1.9-0.7-2.8-1.2C308.1,207.4,308.1,207.1,308.9,206.7z"/>
	<path class="st59" d="M277,250.9c0.5-2.1,2.5-4.3,0.4-6.7c0.5-1.5,1.8-1.6,3.2-1.5c0.3,0.2,0.6,0.3,1.1,0.3c0,1.1,0.1,2.1,0.1,3.1
		C279.4,247,279.6,250.4,277,250.9z"/>
	<path class="st50" d="M337.1,105.9c0.9,4.3-0.7,5.8-4.9,4.4c-0.3-0.6-0.1-1.1,0.5-1.4c1.5-0.5,2.5-1.3,1.4-3
		C335.1,103.8,336.2,104.6,337.1,105.9z"/>
	<path class="st60" d="M354,205.9c-0.7-3.5,2.1-4.4,2.8-6.3C358.5,202.8,357.2,204.6,354,205.9z"/>
	<path class="st61" d="M352.4,124.5c0.2-1.9,0.4-3.7,0.6-5.5c0.7,0.4,2,0.5,2.2,1.2C356,121.9,355.6,123.6,352.4,124.5z"/>
	<path class="st62" d="M324.3,184.6c0.3-1.2,0.5-2.3,1.1-4.2c2.3,1.9,2.7,3.9,1.6,6.1c-0.9-0.7-1.8-1.4-2.7-2.1
		C324.3,184.4,324.3,184.6,324.3,184.6z"/>
	<path class="st63" d="M297.6,222.7c1.2,0,2.2-0.1,3.4-0.1c-0.1,1.7,0,3.6-1.9,4.6C297,226.3,297.4,224.4,297.6,222.7z"/>
	<path class="st64" d="M289.4,228.9c0.6,1.8,1.4,3.7,2,5.5c-1,1.6-2.1,1-3.3,0.3c-0.1-1.2-0.2-2.3-0.3-3.4
		C287.5,230.1,287.9,229.1,289.4,228.9z"/>
	<path class="st65" d="M337.1,105.9c-1,0-1.9,0-2.9,0c-1.8-0.6-3.4-1.6-5.3-4.9C332.5,102.9,335.4,103.2,337.1,105.9z"/>
	<path class="st66" d="M243.5,91.6c-1.4,0.5-2.7,1.1-4.2,1.6c-0.4-1.2-0.7-2.2,0.1-3.3c1.5-0.7,1-3.1,2.8-3.5
		C242.7,88.2,243.1,89.9,243.5,91.6z"/>
	<path class="st67" d="M237.7,117.7c3.4-0.3,4.5,2.5,3.6,4.5c-0.9,1.9-1.6-3-3.6-1.2C237,120.1,236.9,118.8,237.7,117.7z"/>
	<path class="st68" d="M273.1,84c-3.7-0.3-4.2-2.3-4.5-4.8C270.6,80.2,272.8,80.9,273.1,84z"/>
	<path class="st69" d="M231.7,208.8c-2-1.6-4.2-3.2-6.1-4.7c3.7,0.2,7.1,1,7.9,5.3C232.5,209.8,232.1,209.6,231.7,208.8z"/>
	<path class="st70" d="M271.6,103.3c1.7,1.2,3.4,2.3,5.1,3.5c-3,0.3-5.5-0.2-6.9-2.9C270.3,103.6,271,103.3,271.6,103.3z"/>
	<path class="st68" d="M226.9,241.1c0.4,0.7,0.9,1.4-0.4,1.6c-1.2-0.3-2.3-1-3.4-0.7c-3.9,0.7-2.2-1-1.2-2.5
		C223.9,238.7,225.1,241,226.9,241.1z"/>
	<path class="st71" d="M231.7,208.8c0.5,0.2,1.2,0.4,1.7,0.6c0.2,3.1-1,5.1-4.3,6.3C228.1,212.3,232.3,211.4,231.7,208.8z"/>
	<path class="st72" d="M271.6,103.3c-0.6,0.2-1.2,0.4-1.8,0.6c-2.7-1.2-5.3-2.2-7.9-3.4v0.1C265.9,98.8,268.5,102.2,271.6,103.3z"/>
	<path class="st73" d="M270.7,74.5c3.9,1.1,6.5,1.9,5.5,6.5C274.4,78.9,272.9,77.1,270.7,74.5z"/>
	<path class="st74" d="M236.5,174.1c-0.4,0.6-0.7,1.3-1.2,1.9c-2.2,1-4.6,0-3.9-2.1C232.1,171.7,234.7,174.2,236.5,174.1z"/>
	<path class="st75" d="M253.7,100.6c-1-0.2-1-0.9-0.9-1.6c2.8,1.8,6.3-0.2,9.1,1.8v-0.1C259,102.6,256.3,101.6,253.7,100.6z"/>
	<path class="st76" d="M242.3,86.4c-0.6,1.4-0.6,3.3-2.8,3.5c0.5-2.3-0.9-5.1,1.4-7.1C241.4,84,241.8,85.2,242.3,86.4z"/>
	<path class="st77" d="M276.2,244c-0.3,1.5,1.5,3.7-1.4,4.3c-0.5-0.7-1.2-1.5-1.7-2.2c-1.2-1.7,0.4-2,1.3-2.9
		C275.1,242.8,275.9,243.1,276.2,244z"/>
	<path class="st78" d="M332.7,109c-0.2,0.4-0.4,0.9-0.5,1.4c-2.7,1.5-3.7-0.1-4.6-2.5C329.7,106.7,331.1,108.8,332.7,109z"/>
	<path class="st79" d="M303.7,262.7c-1.5-1.5-3-2.9-4.4-4.4c2.5,0.6,5.5,1.3,6.3,3.9C306.4,264.5,304.5,263,303.7,262.7z"/>
	<path class="st80" d="M317.1,227.8c-1.7,1.7-3.5,1.9-4.3,0.7c-1.6-2.3,0.5-2.1,1.9-1.9C315.3,226.6,316,227.1,317.1,227.8z"/>
	<path class="st81" d="M348.2,192.3c0.6-0.3,1.2-0.5,1.8-0.9c1.7,1.1,4.2,1.3,4.6,4.3C351.4,196.3,350.4,193.2,348.2,192.3z"/>
	<path class="st82" d="M376.2,130.3c-0.2-1.6,0.4-2.2,1.9-1.6c1.2,0.4,1.7,1.4,1.1,2.8c-0.6,1.4-1.5,2.3-3.2,1.5
		C374.2,131.9,375.7,131.2,376.2,130.3z"/>
	<path class="st83" d="M346.3,239.5c-3-3.3,2.8-3.3,2.1-5.8C350.6,236.7,348,238,346.3,239.5z"/>
	<path class="st84" d="M356.5,185.9c2.8-1.9,4.2-3,6.5-4.7C362.4,184.8,361,185.8,356.5,185.9z"/>
	<path class="st85" d="M345.9,232.9c-2-1.8-5.8,0-7.1-3C341.8,229.1,344.8,228.7,345.9,232.9z"/>
	<path class="st86" d="M336.8,235.4c1.6,1.2,3.2,2.3,4.7,3.5C338.6,239.8,335.9,239.9,336.8,235.4z"/>
	<path class="st87" d="M319.1,283.6c-1.4-1.2-2.9-2.5-4.6-3.9c3.4-0.9,5.1,0.7,6.3,3.2C320.7,284.2,320,284.3,319.1,283.6z"/>
	<path class="st88" d="M363.1,109.4c-0.3,1.4-1.1,1.9-2.1,1.5c-0.5-0.2-1.2-1.3-1.1-1.5c0.4-0.7,1.2-1.7,1.9-1.8
		C363.3,107.6,362.9,109,363.1,109.4z"/>
	<path class="st89" d="M306.1,253.3l-0.2,0.4l-0.2,0.4c-2.3-1-4.7-1.9-8.1-3.2C301.7,250.5,303.8,252,306.1,253.3z"/>
	<path class="st65" d="M312.3,187.4c-0.6,1.4-1.3,2.8-1.8,4.2c-2-2.8,1.1-4.9,1.2-7.4c3.2-1.2,1,1.3,1.4,2
		C313.1,186.8,312.9,187.2,312.3,187.4z"/>
	<path class="st8" d="M308.1,193.8c-1.2,2.6-2.3,5.3-3.5,7.9c-0.4,0-0.7,0-1.2,0C304.7,198.8,304.2,195.1,308.1,193.8z"/>
	<path class="st90" d="M267.4,177.1c0.7,2.2-0.1,4.4-1.3,6.1c-1.2,1.7-2.3,0.9-2.3-1.2C266.6,181.4,265.7,178.4,267.4,177.1z"/>
	<path class="st91" d="M229.6,256.8c1.3-0.1,2.6-0.1,3.7-0.2c1.6,0.3,1.8,1.2,1,2.5C232.3,259.1,230.1,259.5,229.6,256.8z"/>
	<path class="st92" d="M239.6,167.4c1.1,1.4,1.2,3,0.5,4.5c-0.1,0.2-1.9-0.3-3-0.5H237c-1-1.1-0.9-2,0.1-2.9
		C238.1,168.1,238.8,167.8,239.6,167.4z"/>
	<path class="st93" d="M249,58c2.3,2,2.8,3.9,1.9,6.9C249.5,62.7,248.3,61.2,249,58z"/>
	<path class="st4" d="M249.9,86.6c0.7-0.3,1.6-0.6,2.3-0.9c0.2,0.6,0.4,1.3,0.6,1.8c-0.6,0.5-0.7,2.1-1.8,1.5
		C250.6,88.7,250.4,87.4,249.9,86.6z"/>
	<path class="st94" d="M237.2,168.5c0,1-0.1,1.9-0.1,2.9c-2.2-0.5-2.9-2.7-4.4-4.2C234.7,166.4,235.9,167.8,237.2,168.5z"/>
	<path class="st95" d="M234.4,259c-0.3-0.9-0.6-1.6-1-2.5c1.1-0.1,2.1-0.2,3.2-0.3c0.3,0.7,0.6,1.5,1,2.2
		C236.5,259.1,235.5,259.5,234.4,259z"/>
	<path class="st96" d="M344.5,126.7c1.2,0.7,1.3,1.9,0.9,3.1c-0.2,0.5-1.2,1.3-1.5,1.2c-1.7-0.9-1-2.5-1-3.7
		C343,126.3,343.7,126.5,344.5,126.7z"/>
	<path class="st97" d="M312.9,263.9c-1.3,1.2-2.8,1.5-4.8,0.9c0.5-2.1,2.6-2.2,3.9-2.9C313.4,262.1,314.2,262.5,312.9,263.9z"/>
	<path class="st40" d="M312.9,263.9c-0.2-0.6-0.5-1.4-0.7-2c0.5-0.6,1.2-1.4,1.7-2c0.4-0.5,0.9-1.2,1.3-1.7
		C316.9,260.9,315.1,262.5,312.9,263.9z"/>
	<path class="st98" d="M365.4,153.5c0.2-0.4,0.3-1,0.5-1.4c2.2,1.1,4.4,2,6.7,3.1c0.4,0.6,0.3,1.1-0.4,1.2
		C369.9,155.5,367.6,154.6,365.4,153.5z"/>
	<path class="st99" d="M319.1,286.6c-2,1.8-3.5,0.1-5.3-0.3c1.3-2.3,3.3-0.6,4.6-1.6C319.1,285.3,319.3,285.9,319.1,286.6z"/>
	<path class="st100" d="M319.1,286.6c-0.2-0.6-0.5-1.3-0.7-1.9c0.2-0.4,0.4-0.9,0.7-1.3c0.5-0.2,1.2-0.4,1.7-0.7
		C323.6,285.5,320.9,285.9,319.1,286.6z"/>
	<path class="st101" d="M372,156.5c0.1-0.4,0.3-0.7,0.4-1.2c1.5,0,3.1,0.1,4.6,0.1c0.3,0.6,0.5,1.4,0.9,2
		C375.8,158.3,373.9,157.7,372,156.5z"/>
	<path class="st100" d="M402.7,137.5c0,1,0.2,1.6,0.1,2.1c-0.4,1.2-1.3,1.9-2.7,1.4c-1.1-0.3-1.5-1-0.4-1.8
		C400.5,138.7,401.6,138.1,402.7,137.5z"/>
	<path class="st102" d="M319.6,176.3c-0.5,1.4-1.1,2.7-1.6,4.2c-0.3-0.6-0.6-1.4-1-2c0.3-0.3,0.5-0.7,0.7-1.2
		c-0.4-0.9-0.1-1.4,0.7-1.5C318.9,175.9,319.3,176.1,319.6,176.3z"/>
	<path class="st103" d="M314.2,206.4c-0.4-0.4-1-0.9-1.4-1.3c0.2-0.4,0.3-0.9,0.5-1.3c1-0.4,1.7-0.1,2.6,0.2
		c0.6,0.2,1.1,0.6,1.3,1.2C316.6,206.8,315.5,206.7,314.2,206.4z"/>
	<path class="st104" d="M318.5,175.7c-0.2,0.5-0.5,1-0.7,1.5c-1.1-1.5-0.9-2.6,1.2-2.9v0.1C318.8,174.8,318.7,175.3,318.5,175.7z"/>
	<path class="st105" d="M317.3,205.2c-0.3-0.2-0.7-0.3-1.1-0.3c-0.6-0.7-0.4-1.2,0.5-1.3c0.4,0.1,0.7,0.3,1.2,0.5l-0.1,0.6
		L317.3,205.2z"/>
	<path class="st106" d="M268.5,244.2c-1.4-1.6,0.9-4.4-1.9-5.5c1.9-3.6-0.4-4.3-3.2-4.6c1-6.3,1.8-12.7,2.8-19
		c2.5-4.6,4.3,0,6.3,0.4c0.3,0.6,0.4,1.3,0.3,1.9c-1,3.3-3.6,6.7-0.1,10.1c1.7,2.5,3.9,4.7,3.1,8.1c-0.7,1.9-4.3,2.6-2.9,5.5
		C271.8,242.7,269.3,241.9,268.5,244.2z"/>
	<path class="st107" d="M271.8,228c-6.5-3.5-2-7.4-0.2-11.1l0.4-0.3l0.5,0.1c0.3,0.2,0.5,0.4,0.9,0.7c0.3,0,0.7-0.1,1.1-0.3
		c0.3-0.2,0.6-0.4,1-0.5c0.3-0.2,0.7-0.3,1.1-0.2c2.8,1,5.5,1.9,8.3,2.9c-3.1,1.9-4.7,4.2-1.4,7.1c0.3,0.5,0.4,1.2,0.4,1.8
		c-0.1,0.6-0.4,1.2-0.7,1.7c-0.4,0.5-1,0.9-1.6,1.1c-1.3,0.3-2.6,0.4-3.9,0C275.7,230.3,274.4,228,271.8,228z"/>
	<path class="st108" d="M277.3,179.4c-3.1,0.7-6.1,1.5-6.7,5.3c-1.1-4.2,2.1-7.1,2.2-11.1c0.1-1.9-0.3-4.6,2.5-5.1
		c0.6-0.1,1.7,1.4,2.3,2.2c1.7,2.3,0.4,3.9-1.7,5.1C269.8,179.8,277.3,178.1,277.3,179.4z"/>
	<path class="st109" d="M260,242.4c-3.5,2-6.9,4.3-10.6,6.3c-2.9,1.5-4.7,1.1-3.6-2.8c0.7-0.2,1.3-0.6,2-1c0.4-0.2,1-0.3,1.4-0.4
		c0.2,0.1,0.4,0.2,0.7,0.3C252.9,242.8,255.3,236.9,260,242.4z"/>
	<path class="st56" d="M306.9,130c1.8,4.4,3.5,9,5.3,13.3c-1.1,0.5-2.1,1.2-3.4,0.6c-1.6-3.9-3.1-7.7-4.7-11.5
		C305.1,131.6,306,130.9,306.9,130z"/>
	<path class="st110" d="M272.1,215.5c-2.1,1.2-3.9-2.7-6.1-0.6c-1.6-3.1-1.3-6,1-9.1c2.5,3.2,4.7,6.3,6.9,9.3
		c0.2,0.6,0.1,1.2-0.5,1.5C272.8,216.4,272.3,216.2,272.1,215.5z"/>
	<path class="st111" d="M249,139.8c-1-1-2.2-1.9-2.9-3.1c-0.5-1-2.8-2.2-0.6-3.4c1.9-1.1,2.1,1,2.9,2.1c1.1,1.9,2.3,3.6,3.4,5.5
		h-0.1C250.6,141.4,249.7,140.9,249,139.8z"/>
	<path class="st75" d="M284.8,211.6c5.9-0.3,3.2,3,2.2,5.5C285,215.9,284.9,213.7,284.8,211.6z"/>
	<path class="st112" d="M259.4,190.5c2.1,0.9,3.2,1.9,3.2,3.7c0,0.2-1.1,0.9-1.5,0.7C259,194.5,259.2,192.8,259.4,190.5z"/>
	<path class="st113" d="M249,139.8c0.9,0.4,1.8,0.7,2.7,1.2c-0.1,1.5-0.2,3-0.3,4.5C250.2,143.9,249.2,141.9,249,139.8z"/>
	<path class="st29" d="M252.9,165.8c0.6-0.3,1.3-0.6,1.3-0.6c0.4,0.7,1.1,1.6,1.3,2.5c0.2,1.2-0.9,1.1-1.3,0.5
		C253.7,167.6,253.5,166.6,252.9,165.8z"/>
	<path class="st114" d="M273.5,216.1c0.1-0.4,0.3-0.7,0.4-1.2c0.9,0.5,1.8,1,2.7,1.5l-0.1,0.2c-0.6,0.6-1.4,1.1-2.2,1.5h0.1
		c-0.6,0.1-1.1-0.1-1.5-0.5l0,0C272.6,216.9,272.9,216.4,273.5,216.1z"/>
	<path class="st115" d="M248.6,242.4c1.1,0.3,1.3,1.2,1.2,2.1c-0.3,0.1-0.5,0-0.6-0.3c-0.5,0-1-0.2-1.2-0.6
		C247.9,242.9,248.1,242.6,248.6,242.4z"/>
	<path class="st116" d="M248.6,242.4c-0.2,0.4-0.3,0.9-0.5,1.4c-0.3,0.1-0.6,0.1-1,0.2c-0.3-0.2-0.5-0.3-0.9-0.5
		c0.2-0.3,0.3-0.5,0.5-0.9C247.4,242.6,248.1,242.4,248.6,242.4z"/>
	<path class="st117" d="M246.2,244.7c-0.4-0.1-0.9-0.3-1.3-0.4c0.6-0.5,1.3-1.2,1.9-1.7c0,0.2,0,0.5-0.1,0.7c0,0.3,0.1,0.5,0.1,0.9
		C246.6,244.5,246.4,244.7,246.2,244.7z"/>
	<path class="st118" d="M283,227.9c0.2-0.4,0.3-1,0.5-1.4c1.2-1.4,2.3-5.8,3.4-3.9c1.8,3.3,9.5-2.6,7.1,5.1
		c-2.1-1.9-3.7-1.4-4.7,1.3c-0.5,0.7-1.1,1.6-1.5,2.3c-0.3-0.1-0.6-0.2-1-0.3c-1.5,0.5-2.2-0.4-3-1.5
		C283.5,228.9,283.3,228.5,283,227.9z"/>
	<path class="st119" d="M295.6,209.4c1.5,1.7,1.6,3.9,1.7,5.8c0.1,3.3-1.6,2.6-3.4,1.3C294.4,214.1,292.5,211.2,295.6,209.4z"/>
	<path class="st120" d="M308.7,144c1-1.1,2.1-1.1,3.4-0.6c-0.2,2-0.4,3.9-0.6,6c-0.5,0.3-1.2,0.5-1.7,0.9
		C309.5,148.2,309.3,146,308.7,144z"/>
	<path class="st64" d="M236.3,249.9c0.2-0.4,0.3-1,0.5-1.4c2.2,0.4,4.3-2.2,6.5-0.5C241.8,251.7,239,250.4,236.3,249.9z"/>
	<path class="st121" d="M248.3,245.4c-0.9,1.2-1.8,0.7-2.7,0.2c0.2-0.2,0.3-0.5,0.5-0.9v-0.3c0.4-0.2,1-0.2,1.4-0.1
		C248.1,244.5,248.3,244.9,248.3,245.4z"/>
	<path class="st105" d="M244.9,76.6c0.3-0.5,0.6-1,0.9-1.5c1,0.5,1.8,1.3,1.7,2.6C246.6,77.3,245.8,77,244.9,76.6z"/>
	<path class="st55" d="M243.1,107.2c-1.7-2-2.5-4.3-1.6-6.9C242.9,102.4,244.3,104.5,243.1,107.2z"/>
	<path class="st41" d="M308.9,206.7c0,0.3-0.1,0.7-0.1,1.1c-2.9,0.4-1.3,4.5-4.2,5.1c-0.3,0.2-0.7,0.3-1.1,0.1
		c-0.3-0.1-0.5-0.2-0.4-0.3c-0.4-1.1,0.6-2.2,0-3.3c-0.3-0.6-0.6-1.4-1-2C304.4,206,306.7,206.1,308.9,206.7z"/>
	<path class="st122" d="M303.6,212.5c0.3,0.2,0.7,0.3,1.1,0.5c-0.2,0.4-0.3,0.9-0.3,1.4c-0.5,1.2-1.1,2.2-2.6,2.3
		c0.1-0.7,0.3-1.5,0.4-2.2c-0.2-0.2-0.4-0.4-0.6-0.6c0.1-0.6,0.3-1.3,0.4-1.9C302.9,211.3,303.4,211.5,303.6,212.5z"/>
	<path class="st30" d="M303.6,212.5c-0.5-0.2-1-0.4-1.5-0.5c0.3-0.9,0.7-1.6,1.1-2.5C304.6,210.3,303.7,211.4,303.6,212.5z"/>
	<path class="st17" d="M301.7,213.9c0.2,0.2,0.4,0.4,0.6,0.6C301.9,214.3,301.8,214.1,301.7,213.9z"/>
	<path class="st123" d="M271.8,228c4.5-4.3,4.5,2.2,6.9,2.9c1.1,0,1.6,0.6,2,1.5c0,0.3,0,0.6,0,1c-1.5,3.1-1.6,6.3-0.2,9.3
		c-1.1,0.5-2.1,1.1-3.2,1.5c-0.3-0.2-0.7-0.3-1.2-0.3c-0.6-0.2-1.3-0.5-1.9-0.7c0.1-0.4,0.1-1,0-1.4c-0.4-2-0.4-3.9,0.7-5.8
		C275.3,232.7,272.6,230.7,271.8,228z"/>
	<path class="st55" d="M275,235.9c0.6,2,0.1,3.9-0.7,5.8c-0.4-0.1-0.9-0.3-1.3-0.5C270.6,238.3,271.9,236.7,275,235.9z"/>
	<path class="st124" d="M284.4,228.5c0.9,0.9,1.6,1.7,2.5,2.7c-0.6,1-1.1,2.1-2.7,1.8c-0.5-0.2-0.9-0.5-1.2-1.1
		c-0.2-0.5-0.2-1.1-0.1-1.6C283.2,229.5,283.5,228.7,284.4,228.5z"/>
	<path class="st125" d="M283.2,231.1c0.3,0.6,0.6,1.2,1,1.8c-0.7,0.2-1.4,0.5-2.1,0.7C281.7,232.4,282.2,231.5,283.2,231.1z"/>
	<path class="st126" d="M283.2,231.1c-0.4,0.9-0.7,1.7-1.2,2.6c-0.4-0.1-0.9-0.2-1.2-0.3l0,0c-0.4-1.3-0.1-2.1,1.1-2.7h-0.1
		c0.5-0.3,0.9-0.3,1.1-0.1C283.2,230.8,283.3,231.1,283.2,231.1L283.2,231.1z"/>
	<path class="st127" d="M312.3,187.4c0.1-0.4,0.3-0.9,0.6-1.2c1.9,0.2,3.9,0.5,5.8,0.7c-0.5,1.2-0.6,2.2,0.2,3.3
		c-0.3,2-0.7,3.9-1.1,6c-1.9-0.2-2.8-1.4-3.1-3.1C315.1,190.6,314.8,188.6,312.3,187.4z"/>
	<path class="st128" d="M314.6,193.1c1.1,1.1,2,2.1,3.1,3.1c-0.2,0.4-0.4,0.9-0.7,1.3c-1.6,0.4-2.9,2-4.8,1c1.1-2-0.9-3.4-1.1-5.1
		C312.3,193.9,313.5,194,314.6,193.1z"/>
	<path class="st20" d="M316.6,203.6l-0.3,0.6l-0.2,0.6c-1-0.3-1.9-0.7-2.9-1.1C314.4,202.9,315.6,203,316.6,203.6z"/>
	<path class="st129" d="M273.5,216.1c-0.2,0.4-0.4,1-0.6,1.4c-0.5,0-1-0.2-1.3-0.5c0.2-0.4,0.3-1,0.4-1.4
		C272.6,215.8,273.1,215.9,273.5,216.1z"/>
	<path class="st130" d="M281.9,230.5c-0.3,0.9-0.7,1.8-1.1,2.7c-0.6-0.9-1.3-1.6-2-2.5C279.8,229.9,280.9,230.1,281.9,230.5z"/>
	<path class="st130" d="M283.3,231.1c-0.4-0.2-1-0.3-1.4-0.5c0.3-0.9,0.7-1.8,1.1-2.7c0.4,0.2,0.9,0.3,1.3,0.5
		C284,229.4,283.7,230.3,283.3,231.1z"/>
	<path class="st129" d="M274.3,218c0.7-0.5,1.5-1,2.2-1.5C276.2,217.7,275.4,218.3,274.3,218z"/>
	<path class="st129" d="M272.9,217.5c0.5,0.2,1,0.4,1.5,0.5C273.5,219,272.8,219.4,272.9,217.5z"/>
	<path class="st121" d="M248.3,245.4h-0.1c-0.7-0.5-0.9-1.1-0.2-1.7l0,0c0.3,0.2,0.7,0.4,1.1,0.5C249,244.7,248.8,245.1,248.3,245.4
		z"/>
	<path class="st131" d="M248.1,243.8c0.1,0.5,0.1,1.2,0.2,1.7c-0.6-0.3-1.4-0.6-2.1-1c0.1-0.4,0.3-0.7,0.5-1.1
		C247.2,243.3,247.6,243.5,248.1,243.8z"/>
</g>
</svg>
