<?xml version="1.0" encoding="utf-8"?>
<!-- Generator: Adobe Illustrator 23.0.1, SVG Export Plug-In . SVG Version: 6.00 Build 0)  -->
<svg version="1.1" id="Layer_1" xmlns="http://www.w3.org/2000/svg" xmlns:xlink="http://www.w3.org/1999/xlink" x="0px" y="0px"
	 viewBox="0 0 500 500" style="enable-background:new 0 0 500 500;" xml:space="preserve">
<style type="text/css">
	.st0{fill:#231F20;}
</style>
<path class="st0" d="M276.4,126.8v8.4v1.5h-1.5h-14.6v2h14.6h1.5v1.5v7.8v1.5h-1.5h-14.6v2.4h14.6h1.5v1.5v3.6v4.7v1.5v3.2v1.2
	l-1.1,0.2l-15,3.5v6.3l14.9,2.8l1.2,0.2v1.2v7.6v1.9l0,0v5.9l0,0v5.2v1.9v1.5h-1.5h-4.3c2.1,1.5,3.8,3.6,5.1,5.9
	c0.5,1,0.9,2.2,1.2,3.5c0.2,1.2,0.4,2.5,0.4,3.8v0.1v0.1c0,0.4,0,0.7-0.1,1c-0.6,5.1-2.8,8.9-6.2,11.4c-3.3,2.5-7.8,3.6-12.8,3.3
	c-0.4,0-0.9,0-1.2-0.1l-1.4-0.1v-1.4v-8.3V223l2,0.7c1.5,0.5,2.8,0.7,4.2,0.7c1.1,0,2.2-0.2,3.1-0.7c0.7-0.5,1.4-1.1,1.7-2.2
	c0.2-0.6,0.4-1.4,0.2-2.4l0,0c-0.2-3.1-1.6-4.8-3.3-5.4c-0.4-0.1-0.7-0.2-1.1-0.2c-0.5,0-0.9-0.1-1.4-0.1l0,0
	c-3.7,0.1-5.6,4.6-7.3,8.5c-0.6,1.5-1.4,3-2,4.3l0,0l0,0l0,0c-1.1,1.9-2.5,3.5-4,4.8c-1.6,1.4-3.3,2.4-5.4,3c-2,0.6-3.8,0.9-5.6,0.7
	c-1.9-0.1-3.6-0.6-5.4-1.4c-2-0.9-3.7-2-5.2-3.3c-1.4-1.4-2.5-2.8-3.3-4.6c-1.4-3-1.9-5.9-1.5-9c0-0.6,0.2-1.2,0.4-2
	c0.1-0.6,0.4-1.2,0.6-1.9c0.2-0.5,0.5-1,0.7-1.6c1.1-2.1,2.6-3.8,4.5-5.1h-5.6h-1.5v-1.5v-7.1v-1.5h1.5h41.8v-6.9l-42.7-8.3
	l-1.2-0.2v-1.2v-0.6v-6.9V171v-1.2l1.1-0.2L249,163h-21h-0.1h-0.1c-2.7-0.5-5-1.9-6.3-3.6c-1.1-1.5-1.9-3.3-2-5.2s0.2-3.7,1.1-5.6
	c0.9-1.7,2.1-3.2,3.8-4.5c-1.9-1.2-3.1-2.8-4-4.7s-1.1-3.8-0.9-5.7c0.1-1.9,0.9-3.7,2-5.3c1.4-1.9,3.5-3.2,6.1-3.6h0.1l0,0h22.8
	v-5.1h-49.6h-2.4l1-2.1c2.1-4.7,4.7-9.2,8.2-13.1s7.8-7.3,13.4-9.8l0,0l0,0l0,0c1-0.4,2-0.9,3-1.2v-7.3v-1.5h1.5h38
	c0.2-0.1,0.4-0.2,0.5-0.5s0.1-0.5,0.1-0.7c0-0.2,0-0.5-0.1-0.7c-0.1-0.1-0.2-0.4-0.5-0.4h-38h-1.6V81v-7.4v-1.5h1.5h0.9
	c-0.9-1.7-1.4-4-1.4-6.9c0-2.4,0.6-4.6,1.6-6.4h-23.4h-1.5v-1.5v-9.3v-1.5h1.5h43.8l-20.7-13.9l-0.7-0.5v-0.9V20.3v-3l2.4,1.7
	l23.9,17.3l21.5-20.1l2.6-2.4v3.5v10.9V29l-0.5,0.5l-17.8,17.2h27.9h1.5v1.5v9.2v1.5h-1.5h-9.5v3.6v1.5h-1.5h-38.3l0,0
	c-0.1,0-0.1,0.1-0.2,0.4c0,0.1-0.1,0.4-0.1,0.6c0,0.2,0,0.5,0,0.6c0,0.2,0.2,0.5,0.6,0.6h38.3h1.5v1.5v7.7v1.5h-1.5h-3.1
	c1.1,1.9,1.7,4.3,1.9,7.1v0.1l0,0c0,0.7-0.1,1.5-0.2,2.2c-0.1,0.7-0.4,1.5-0.6,2.2c-1.2,3.3-3.6,6.3-7.2,6.9c1.6,0.7,3,1.5,4.5,2.5
	c7.3,4.6,12.5,11.5,15.5,20.4l0.6,2h-2.1h-23.4v5.1H275h1.5L276.4,126.8L276.4,126.8z M250.5,136.7h-16.7c-1,0-1.7,0.4-1.9,0.7v0.1
	c0,0,0,0.1,0.1,0.2c0.2,0.4,0.9,0.7,1.9,0.9h16.6V136.7L250.5,136.7z M250.5,149.6h-16.7c-0.9,0-1.2,0.4-1.5,0.7
	c0,0.1-0.1,0.2-0.1,0.4s0,0.2,0.1,0.4c0.2,0.4,0.7,0.7,1.6,0.9h16.6V149.6L250.5,149.6z M250.5,173.7l-5.3,1.2l5.3,1V173.7
	L250.5,173.7z M250.5,108.7v-3.8v-2.7c-1.6-0.2-3.3-0.4-5.1-0.4c-7.6-0.1-15.5,1.2-21.3,4.5c-1.4,0.7-2.7,1.6-3.7,2.5H250.5
	L250.5,108.7z M251,102.3l1.9,1.4l6.7,5l0,0h6.7c-0.5-0.5-1.1-1-1.7-1.5C261.3,104.6,256.4,103,251,102.3L251,102.3z M252.4,206.1
	h-10.5v6.8v2.4l-2.1-1c-2.2-1-4.2-0.9-5.6,0c-0.2,0.1-0.5,0.4-0.7,0.6c-0.2,0.2-0.5,0.5-0.6,0.9l0,0l0,0l0,0
	c-0.9,1.2-1.1,2.6-0.9,3.8l0,0c0,0.2,0.1,0.5,0.1,0.7c0.1,0.2,0.1,0.5,0.4,0.9l0,0l0,0l0,0c0.6,1.1,1.5,2,3,2.4
	c0.2,0.1,0.6,0.1,1,0.2c0.4,0,0.7,0.1,1,0.1c1.7-0.1,2.8-0.9,3.7-1.7c1-1,1.7-2.5,2.4-3.8c0.6-1.4,1.2-2.6,1.9-3.8
	c0.7-1.4,1.5-2.6,2.4-3.7C249.3,208.8,250.6,207.2,252.4,206.1L252.4,206.1z"/>
</svg>
