<?xml version="1.0" encoding="utf-8"?>
<!-- Generator: Adobe Illustrator 23.0.1, SVG Export Plug-In . SVG Version: 6.00 Build 0)  -->
<svg version="1.1" id="Layer_1" xmlns="http://www.w3.org/2000/svg" xmlns:xlink="http://www.w3.org/1999/xlink" x="0px" y="0px"
	 viewBox="0 0 500 500" style="enable-background:new 0 0 500 500;" xml:space="preserve">
<style type="text/css">
	.st0{fill:#696869;}
	.st1{fill:#ADADAC;}
	.st2{fill:#8C8B8B;}
	.st3{fill:#393A3A;}
	.st4{fill:#FFFFFF;}
	.st5{fill:#919292;}
	.st6{fill:#383838;}
	.st7{fill:#ADADAD;}
	.st8{fill:#8F8E8E;}
	.st9{fill:#8E8E8E;}
	.st10{fill:#A6A6A6;}
	.st11{fill:#9B9A9A;}
	.st12{fill:#868686;}
	.st13{fill:#7C7C7C;}
	.st14{fill:#979796;}
	.st15{fill:#484848;}
	.st16{fill:#DFDFDE;}
	.st17{fill:#60605F;}
	.st18{fill:#868787;}
	.st19{fill:#7F7F7F;}
	.st20{fill:#6E6C6C;}
	.st21{fill:#717171;}
	.st22{fill:#969696;}
	.st23{fill:#A9A9A9;}
	.st24{fill:#979797;}
	.st25{fill:#949494;}
	.st26{fill:#9D9C9D;}
	.st27{fill:#8B8B8B;}
	.st28{fill:#DEDEDE;}
	.st29{fill:#515151;}
	.st30{fill:#A4A4A4;}
	.st31{fill:#90908F;}
	.st32{fill:#333333;}
	.st33{fill:#6A6969;}
	.st34{fill:#B3B2B3;}
	.st35{fill:#686868;}
	.st36{fill:#717272;}
	.st37{fill:#929191;}
	.st38{fill:#A2A2A2;}
	.st39{fill:#A09F9F;}
	.st40{fill:#CECECE;}
	.st41{fill:#696868;}
	.st42{fill:#B3B3B4;}
	.st43{fill:#818282;}
	.st44{fill:#A9A8A8;}
	.st45{fill:#C6C6C6;}
	.st46{fill:#2E2F2F;}
	.st47{fill:#838383;}
	.st48{fill:#B2B1B1;}
	.st49{fill:#6F6F6F;}
	.st50{fill:#515252;}
	.st51{fill:#B4B4B4;}
	.st52{fill:#676767;}
	.st53{fill:#BCBCBC;}
	.st54{fill:#6C6B6B;}
	.st55{fill:#F1F1F1;}
	.st56{fill:#8F8F8F;}
	.st57{fill:#B4B4B5;}
	.st58{fill:#AEAEAF;}
	.st59{fill:#666766;}
	.st60{fill:#828181;}
	.st61{fill:#A2A1A2;}
	.st62{fill:#AEAEAE;}
	.st63{fill:#8E8E8D;}
	.st64{fill:#B7B7B7;}
	.st65{fill:#818181;}
	.st66{fill:#9B9A9B;}
	.st67{fill:#727272;}
	.st68{fill:#545454;}
	.st69{fill:#6C6C6C;}
	.st70{fill:#ACACAC;}
	.st71{fill:#B5B5B5;}
	.st72{fill:#737273;}
	.st73{fill:#444444;}
	.st74{fill:#5D5D5E;}
	.st75{fill:#868585;}
	.st76{fill:#353535;}
	.st77{fill:#5D5D5C;}
	.st78{fill:#979696;}
	.st79{fill:#747474;}
	.st80{fill:#919091;}
	.st81{fill:#B0B0B0;}
	.st82{fill:#969595;}
	.st83{fill:#1E1E1E;}
	.st84{fill:#828182;}
	.st85{fill:#7B7B7B;}
	.st86{fill:#4B4B4B;}
	.st87{fill:#7B7C7C;}
	.st88{fill:#6B6A6A;}
	.st89{fill:#ACABAB;}
	.st90{fill:#656565;}
	.st91{fill:#706F6F;}
	.st92{fill:#ABABAA;}
	.st93{fill:#9F9F9F;}
	.st94{fill:#999999;}
	.st95{fill:#585858;}
	.st96{fill:#858485;}
	.st97{fill:#7D7D7D;}
	.st98{fill:#323232;}
	.st99{fill:#A7A7A7;}
	.st100{fill:#7A7A7A;}
	.st101{fill:#B1B1B1;}
	.st102{fill:#BABABA;}
	.st103{fill:#A4A3A3;}
	.st104{fill:#575857;}
	.st105{fill:#BBBBBB;}
	.st106{fill:#6D6D6D;}
	.st107{fill:#626262;}
	.st108{fill:#C6C5C5;}
	.st109{fill:#959595;}
	.st110{fill:#D0D0CF;}
	.st111{fill:#D9DAD9;}
	.st112{fill:#595A5A;}
	.st113{fill:#7E7E7D;}
	.st114{fill:#525251;}
	.st115{fill:#A8A9A9;}
	.st116{fill:#737474;}
	.st117{fill:#888888;}
	.st118{fill:#706F70;}
	.st119{fill:#4A4A4A;}
	.st120{fill:#898989;}
	.st121{fill:#474847;}
	.st122{fill:#333434;}
	.st123{fill:#535353;}
	.st124{fill:#676766;}
	.st125{fill:#807F80;}
	.st126{fill:#F7F7F7;}
	.st127{fill:#BFBEBF;}
	.st128{fill:#ECEBEB;}
	.st129{fill:#555555;}
</style>
<path class="st0" d="M236.3,346.8c-2.7,0.5-5.4,0.9-9.7,1.8c2.8-3.1,5.3-2.2,7.3-2.8C235.1,345.1,236.3,344.6,236.3,346.8z"/>
<path class="st1" d="M237.6,344.4c0.8-0.6,1.7-1.2,2.6-1.7c1.1-0.6,2.6-1.4,3,0c0.4,1.3-1.4,1.7-2.6,1.9
	C239.4,345.2,238.4,345.4,237.6,344.4z"/>
<path class="st2" d="M237.6,344.4c0.9,0.1,2,0.1,3,0.2c-0.9,1.5-2.6,1.8-4.1,2.1c-0.8-0.4-1.7-0.7-2.4-1.1
	C234.8,344.6,236.1,344.5,237.6,344.4z"/>
<path class="st3" d="M209.2,347.1c-0.4,0-0.8,0-1.2,0c-2,0-2-1.1-1.3-2.5c0.9-0.4,1.9-0.8,2.7-1.2
	C208.5,344.5,209.1,345.8,209.2,347.1z"/>
<path class="st4" d="M166.2,213.5c-0.2-0.4-0.4-0.8-0.6-1.2c-0.2-0.6-0.1-1.1,0.1-1.5c0.5-0.4,1.1-0.2,1.5,0l-0.1,0.2
	C166.7,211.9,166.4,212.7,166.2,213.5z"/>
<path class="st5" d="M144.3,113.9c3,2.7,6.1-2,9.3,0.6c-2.8,2-6,2-9.2,2.2C144.3,115.8,144.3,114.9,144.3,113.9z"/>
<path class="st6" d="M162.3,353.1c-1.7,0-3.2,0.1-4.8,0.1c-1.2,0.5-2.4,1.1-2.5-1.1c2-0.5,4-0.8,6.1-1.3
	C161.6,351.7,161.9,352.4,162.3,353.1z"/>
<path class="st7" d="M158.2,227.2c1.1-0.2,2,0.1,2.7,0.9c0,0.8-0.8,0.9-1.3,1.4c-6.6-0.4-13.3,1.3-19.9-1.2
	c-0.4-0.5-0.4-0.9,0.1-1.4c4.1,0.1,8.3,0.2,12.4,0.4C154.4,228,156.4,228.2,158.2,227.2z"/>
<path class="st8" d="M178.7,106.5c-5,1.7-10,2-15.1,0.1c5-1.8,10.1-0.6,15.2-1.3C179.1,105.8,179,106.1,178.7,106.5z"/>
<path class="st9" d="M100.5,144.8c6.4-2.5,12.5-0.5,18.8,0.5c0.6,0.4,0.6,0.6,0,0.9c-5.4,0-10.7-0.1-16.2-0.1
	C102.4,145.3,101,146,100.5,144.8z"/>
<path class="st10" d="M133,141.4c6.6,0,13.2,0.1,19.8,0.1c0.4,0.7,0.1,1.2-0.6,1.5c-3.1,0.5-6.3-0.6-9.3,0.6
	c-3.4,0.8-6.6-1.2-9.9-1.2C132.4,142.1,132.4,141.8,133,141.4z"/>
<path class="st11" d="M261.3,287.9c2.7-0.2,5.8-1.5,7.4,1.8c1.4,2.8,1.7,5.7-1.5,7.8c-0.5-0.4-1.2-0.5-1.2-1.3
	c3.1-4.5,1.3-6.5-3.4-7.1C261.3,289.7,261.2,288.9,261.3,287.9z"/>
<path class="st12" d="M207.9,31.9c6-1.9,12-0.9,18.1,1.3c-3.1,0-6.1,0-9.2,0c-2-0.9-4.2-0.2-6.4-0.5
	C209.5,32.6,208.5,32.8,207.9,31.9z"/>
<path class="st12" d="M152.7,142.7c0-0.4,0-0.7,0.1-1.1c0.8,0,1.7,0,2.5,0c4.4,0.9,8.9,0.1,13.3,0.5c1.3,0.1,3.4-1.1,3.9,1.5
	c-6.6,0-13.2,0-19.8,0C152.1,143.3,152.1,143,152.7,142.7z"/>
<path class="st13" d="M172.4,143.5c-3.4-2.1-7.2-0.6-10.7-1.1c-2.1-0.2-4.5,0.8-6.5-0.9c5.7,0,11.3-0.1,16.9-0.1
	c1.1,0,2.7-0.1,2.4,1.8C174.3,144.3,173.2,143.7,172.4,143.5z"/>
<path class="st14" d="M170.6,113.6c-4-0.1-8.3,1.8-12.9-1.3C162.8,110.9,166.7,112,170.6,113.6z"/>
<path class="st15" d="M201.9,312.5c5.7-0.8,11.4,0.7,17.1-1.2c0.9-0.4,1.7,0.2,1.1,1.2c-0.4,0.6-1.3,0.7-2,1.1
	c-4.4,1.1-8.7,0.2-13,0.5C203.9,314,201.9,315.1,201.9,312.5z"/>
<path class="st16" d="M98.5,380.3c3.8-1.4,5.8-1.2,6.6,2.1c0.2,0.9,1.1,2.5-0.1,2.7C101.2,385.8,102.1,381.1,98.5,380.3z"/>
<path class="st17" d="M195.4,388.9c2.7-0.5,5.4-1.1,8.3-1.3c1.7-0.1,4.4-1.2,4,2.4l0.1-0.1c-3.7,0.1-7.3,0.2-10.9,0.2
	C195.5,390.7,195.3,390.1,195.4,388.9z"/>
<path class="st18" d="M265.8,99.1c3.7,0,7.4,0,12.2,0C273.2,103.3,269.5,100.1,265.8,99.1z"/>
<path class="st19" d="M67,271.8c3-0.2,4.6,0.4,4.4,3.5c-0.1,1.5-0.4,3.3-2,3.1c-2.7-0.4-0.9-1.7-0.4-3
	C69.9,273.7,66.9,273.8,67,271.8z"/>
<path class="st20" d="M187.6,197.1c3.1,0.1,4.6,1.7,3.8,4.6c-0.5,1.7-1.5,4.1-4,1.4C187.6,201.1,186.7,199.1,187.6,197.1z"/>
<path class="st21" d="M109.9,363.4c1.2-1.5,5.9-1.3,2.5-5.1c-0.2-2.4,1.2-1.8,2.5-1.3c3.3,5.7-0.7,6.5-4.8,7.2
	C109.3,364.1,109.2,363.8,109.9,363.4z"/>
<path class="st22" d="M218.3,187.1c-3.8,0-7.3-1.9-11.1-1.7c4.1-0.4,8.3-1.9,12.3,0.6C219.1,186.5,218.8,186.9,218.3,187.1z"/>
<path class="st23" d="M234.7,60.2c-4.2,0-7.2,0-10,0C227.5,58.5,230.4,57,234.7,60.2z"/>
<path class="st24" d="M34.4,260c3-2.2,6.7-1.2,10-2.1c1.5,1.1,3.8-0.5,5.2,1.2c-3.2,1.5-6.8,0.6-10.1,1.3
	C37.8,261.2,36.1,261.1,34.4,260z"/>
<path class="st2" d="M49.7,259.1c-1.7-0.6-3.8,0.4-5.2-1.2c4-0.4,7.9-0.8,12.5-1.2C54.7,260,51.9,258.7,49.7,259.1z"/>
<path class="st12" d="M177.8,143.5c3.3,0.2,6.8,0.4,7.1,5.5C181.7,147.6,180.4,144.6,177.8,143.5z"/>
<path class="st25" d="M260,297.4c-4.2-0.1-8.6,0.6-13.1-1.4c2.1-1.4,4-0.7,5.8-0.6c1.9,0.8,3.9,0.2,5.9,0.5
	C259.5,295.9,260.2,296.3,260,297.4z"/>
<path class="st26" d="M129.9,228.5c3.5-0.6,6.6,0.2,10.5,2.7c-4.5,0.4-7.4-0.8-10.5-1.8C129.3,229.2,129.3,228.9,129.9,228.5z"/>
<path class="st27" d="M55.5,224.2c3.9,0,7.8,0,12.9,0c-5.3,2.4-9.8,0.9-14,1.2C54,224.3,54.2,223.7,55.5,224.2z"/>
<path class="st28" d="M41.8,265.1c3.1-0.5,5.8,0.9,10.3,2c-4.6,0.4-7.6,1.4-10.3-0.8C41.3,265.8,41.3,265.5,41.8,265.1z"/>
<path class="st29" d="M204.2,313.8c4.7,0,9.3,0,14,0c-4.5,1.7-9.1,1.1-13.7,0.9C203.9,314.6,203.8,314.2,204.2,313.8z"/>
<path class="st9" d="M179.4,278.8c3.1,0,6.7-3.7,8.9,1.5l0.1-0.1c-1.7,0-3.4,0-5.1-0.1C182.2,279,180.2,280.4,179.4,278.8z"/>
<path class="st30" d="M103,191c-3.3,0-6.7,0-10.7,0c2.1-1.4,3.9-2,5.9-2C99.5,190.4,102.4,187.8,103,191z"/>
<path class="st31" d="M119.3,146.3c0-0.4,0-0.6,0-0.9c3.7,0.5,7.3,0.8,11,1.3c0.1,2.2-1.2,1.5-2.4,1.2
	C125,147.4,121.9,147.9,119.3,146.3z"/>
<path class="st32" d="M83.7,261c0.7,1.5,3.3,2.1,2.4,4.5c-0.8,2-2.2,1.3-3.5,0.7C82.4,264.3,82.4,262.5,83.7,261z"/>
<path class="st33" d="M155.1,352.3c0.8,0.4,1.7,0.7,2.5,1.1c-2.7,1.8-5.9,1.4-8.9,2.1c-0.6-0.1-0.9-0.5-1.2-0.9
	C149.5,352.3,152.6,353.4,155.1,352.3z"/>
<path class="st34" d="M148.5,233.4c2.2,1.3,5.4,0.9,7.7,4.5c-3.8-0.7-6.5-1.5-9.1-3.1C147.2,233.9,148,233.7,148.5,233.4z"/>
<path class="st35" d="M236.5,26c-2.8-2.5-5.7,0.4-8.5,0c-1.3,0.6-1.5-0.1-1.3-1.2c3.3-0.2,6.5-3.7,9.9-0.5
	C237.2,24.9,237.1,25.5,236.5,26z"/>
<path class="st13" d="M135.2,333.7c-3.3,1.5-6.6,1.4-10.1,0.2c3-0.5,6-0.9,9-1.3C134.6,332.7,135,333.1,135.2,333.7z"/>
<path class="st15" d="M218.3,187.1c0.4-0.4,0.7-0.7,1.2-1.2c2.8,2.6,2.2,4.6-1.1,6.1c-1.3,0.5-1.7-0.1-1.3-1.3
	C218,189.7,219,188.7,218.3,187.1z"/>
<path class="st36" d="M97.3,387.3c-2.2-2-3.5-3.1-5.4-4.7C96.3,381.8,97.3,383.2,97.3,387.3z"/>
<path class="st22" d="M207.2,193.1c-2.5,0.4-4.6-0.4-6.7-1.7c2.2-0.6,4.5-1.3,6.7,0.5C207.7,192.3,207.7,192.6,207.2,193.1z"/>
<path class="st37" d="M33.1,264.9c0-0.4,0-0.6,0-0.9c2.8,0.4,5.8,0.7,8.6,1.1c0,0.4,0.1,0.8,0.1,1.2
	C38.8,266.4,35.9,266.4,33.1,264.9z"/>
<path class="st38" d="M164.7,307.5c-1.1-1.4-3.5-0.5-4.6-2.8c2.6-1.4,4.4-0.8,5.8,1.5C165.9,307,165.4,307.4,164.7,307.5z"/>
<path class="st39" d="M188.3,109.2c-1.1-1.2-2.2-2.5-4.2-4.7C188,104.7,189.2,105.9,188.3,109.2z"/>
<path class="st40" d="M187.6,197.1c0.1,2,2.1,4.1-0.2,6C184.6,201,185.7,199,187.6,197.1z"/>
<path class="st41" d="M236.5,26c0-0.6,0.1-1.1,0.1-1.7c3.2,1.8,4.1,4.4,2.7,7.8C238.9,29.9,237.9,27.9,236.5,26z"/>
<path class="st42" d="M129.9,228.5v0.5v0.5c-3.8,0-7.6,0-11.3,0c0-0.4,0-0.7,0-0.9C122.4,228.5,126.1,228.5,129.9,228.5z"/>
<path class="st10" d="M239.4,95.5c3-0.8,4,0.5,4.4,2.5c0.1,0.5-0.6,1.4-0.8,1.4C241.1,99.2,240.4,97.5,239.4,95.5z"/>
<path class="st43" d="M227.6,245.4c2-0.8,4-1.5,6.3-1.2c0.5,0.5,1.3,0.6,1.4,1.3c-2.4,1.3-5,1.1-7.6,0.8
	C227.1,246.1,227.2,245.8,227.6,245.4z"/>
<path class="st44" d="M65.4,230.6c-3.3-0.1-6.6-0.2-9.9-0.5c0-2.8,2.7-0.9,3.5-2.1c2.1,0.4,4.1,0.7,6.3,1.2
	C65.7,229.7,65.7,230.2,65.4,230.6z"/>
<path class="st45" d="M215.5,304.9c-2.1,0.1-4.2,0.4-7.6,0.6c2.4-2.4,4.2-2.7,6.4-3C214.9,303.2,216.1,303.6,215.5,304.9z"/>
<path class="st46" d="M251.5,58.3c1.1-2.1,2-4.1,3.2-6.6c1.1,3.3,1.1,5.9-1.8,7.7C251.6,60.1,251.4,59.4,251.5,58.3z"/>
<path class="st47" d="M204.2,313.8c0.1,0.2,0.2,0.6,0.4,0.9c-2.1,0.2-4.2,0.6-6.5-0.4c0.8-2.1,2.5-1.7,4-1.8
	C202.3,313.7,203.2,313.7,204.2,313.8z"/>
<path class="st13" d="M253.3,74c1.2-1.8,2.1-3.3,3-4.7C257.5,72.5,257,74.2,253.3,74z"/>
<path class="st48" d="M114.8,357c-0.9,0.1-2.1,0-2.5,1.3c-1.4,0-3.1,0.7-4.6-0.9C110.1,355.9,112.3,355.2,114.8,357z"/>
<path class="st49" d="M239.9,244.3c2.4,0.2,3.3,1.8,3.5,4.2c-2-2.2-4.8-2.1-7.3-3.1C237.1,244.1,238.9,245.3,239.9,244.3z"/>
<path class="st50" d="M207.7,390c5.3,1.4,1.8,5.2,1.8,8c-0.6-2.7-1.1-5.4-1.7-8.1L207.7,390z"/>
<path class="st51" d="M220.4,246.3c-1.8,0.1-3.5,0.5-4.4-2c2.4-0.6,4.7-0.6,6.7,0.8C222.3,246.2,221,245.6,220.4,246.3z"/>
<path class="st52" d="M79.2,231.1c0.6-2.5,1.1-4.8,0.9-7.3C82,226.5,82.5,229,79.2,231.1z"/>
<path class="st36" d="M164.7,307.5c0.5-0.5,0.8-0.8,1.3-1.3c1.8,2,1.2,3.9,0,5.9C163.7,310.9,165.8,308.9,164.7,307.5z"/>
<path class="st32" d="M84.8,256.3c1.4,0.2,3,0.2,2.1,2.5c-0.6,1.7-1.4,2.2-3.1,1.3C83.8,258.7,83.5,257.3,84.8,256.3z"/>
<path class="st53" d="M133,141.4v0.6v0.6c-2.7,0.2-5.2-0.4-7.8-1.8C128.2,138.9,130.4,141.2,133,141.4z"/>
<path class="st54" d="M146.9,295.3c0.7,0.8,1.4,1.3,1.5,2c0.4,1.7-0.4,2.8-2.2,3c-0.5,0-1.1-0.4-1.7-0.6
	C146,298.7,146.4,297.2,146.9,295.3z"/>
<path class="st55" d="M34.4,260c1.7,0.1,3.3,0.2,5,0.4c0,0.8,2.4,1.5,0.7,1.9C38.3,262.6,35.3,263.5,34.4,260z"/>
<path class="st56" d="M174.3,390.8c2.7,0.6,5.9-0.4,9.1,2.8c-3.8-0.5-6.4-0.9-9.1-1.3C173.9,391.9,173.9,391.3,174.3,390.8z"/>
<path class="st57" d="M127.8,147.7c0.8-0.4,1.7-0.8,2.4-1.2c1.9-0.2,3.5,0.6,6.4,1.9C132.8,148.7,130.3,149.4,127.8,147.7z"/>
<path class="st58" d="M174.3,390.8c0,0.6,0,1.1,0,1.7c-2,0-4.1,0.5-5.7-1.8C170.6,389.5,172.5,389.6,174.3,390.8z"/>
<path class="st59" d="M127.7,342.1c-3.7,0-7.4,0-11.1,0c-0.6-0.4-0.6-0.7,0-0.9c3.7,0,7.3,0,11-0.1
	C128.3,341.3,128.3,341.7,127.7,342.1z"/>
<path class="st60" d="M226.7,24.8c0.5,0.4,0.8,0.7,1.3,1.2c-2.7,1.9-5.8,1.1-8.7,1.1c-0.6-0.4-0.6-0.7,0-1.1
	C221.7,25.6,224.2,25.3,226.7,24.8z"/>
<path class="st47" d="M116.6,341.1c0,0.4,0,0.7,0,0.9c-2.1,0.7-4.2,1.3-7.3,0.6C111.7,340.3,114.2,341,116.6,341.1z"/>
<path class="st13" d="M110,185.4c-2.4-2-5.5-0.9-8.1-1.8c-0.6-0.2-0.7-0.6,0-0.8c3,0,5.9-1.3,8.6,0.9
	C111,184.5,110.8,185.1,110,185.4z"/>
<path class="st61" d="M165,236.2c-0.4,2.7-1.8,4.1-4.8,4.5c-0.2-2.8,2.7-3.1,3.2-4.8C164,235.4,164.6,235.5,165,236.2z"/>
<path class="st62" d="M101.7,345.7c-2.1,1.9-4.8,2-7.4,2.5c-0.5-0.4-0.5-0.8,0.1-1.1c2.5-0.8,5-1.7,7.4-2.5
	C102.1,344.9,102.1,345.4,101.7,345.7z"/>
<path class="st29" d="M169.9,164.9c2.1,3.1,1.2,4.7-2.5,5c-0.5-0.5-0.5-0.8,0-1.3c0.9-0.9,1.5-1.8,0.1-2.8
	C167.8,163.7,168.9,164.1,169.9,164.9z"/>
<path class="st63" d="M165,236.2c-0.6-0.1-1.1-0.2-1.7-0.4c0-1.7,0-3.3,0-5c0.2-0.4,0.5-0.4,0.8-0.2c0.2,0.1,0.4,0.2,0.4,0.4
	C166.9,232.4,166,234.3,165,236.2z"/>
<path class="st64" d="M178.8,287.3c-2,0.7-3.9,1.3-5.2-1.2C175.8,284.6,177.2,285.6,178.8,287.3z"/>
<path class="st65" d="M221.5,253c-2.6-0.1-5.1-0.1-7.4-1.4c-0.6-0.4-0.6-0.7,0-1.1c2.6-0.6,4.8,1.2,7.3,1.2
	C221.9,252,221.9,252.5,221.5,253z"/>
<path class="st66" d="M169.2,302.4c-1.2-1.7-0.9-3.1,0.2-4.2c0.1-0.1,1.3,0.2,1.4,0.6C171.3,300.3,171.1,301.7,169.2,302.4z"/>
<path class="st30" d="M190.2,393.9c1.7,0.6,3.5,0.7,4.8,2.8c-2.7,0.9-4.4-0.4-6.1-1.5C189,394.3,189.8,394.2,190.2,393.9z"/>
<path class="st67" d="M195.4,388.9c0.5,0.4,0.9,0.8,1.4,1.2c-2.8,1.1-5.3-0.1-8-1.2C191.1,388.9,193.2,388.9,195.4,388.9z"/>
<path class="st38" d="M195.2,253.4c3.8-0.7,6.1-1.2,9.2-1.8C201.7,254.8,199.1,254.1,195.2,253.4z"/>
<path class="st68" d="M141.3,333.6c3.7,2.2,3.7,2.4,0,7.9c0.6-3.4,1.5-5.9,0.1-8L141.3,333.6z"/>
<path class="st44" d="M101.7,345.7c0-0.4,0-0.7,0-1.2c1.2-1.5,2.7-2.1,5-1.9C105.6,345.1,103.7,345.5,101.7,345.7z"/>
<path class="st47" d="M205.3,61.1c0,0.9-0.6,1.7-1.4,1.3c-0.7-0.2-1.4-0.8-1.8-1.5c-0.5-0.8,0.1-1.4,1.2-1.5
	C204.5,59.3,205.1,59.9,205.3,61.1z"/>
<path class="st69" d="M169.9,164.9c-0.8,0.4-1.5,0.6-2.4,0.9c-1.7,0.1-3.2-0.1-5.8-2.2C165.4,164,167.8,163.3,169.9,164.9z"/>
<path class="st70" d="M250.5,50.7c-2.2,1.2-4.2,1.7-7.2-0.8C246.6,50.2,248.6,50.4,250.5,50.7z"/>
<path class="st71" d="M55.5,224.2c-0.4,0.4-0.8,0.8-1.2,1.2c-1.9,0-3.4-0.6-5.2-2.6C51.8,222.7,53.8,222.6,55.5,224.2z"/>
<path class="st72" d="M152.7,142.7c0,0.4,0,0.6,0,0.9c-3.3,0-6.5,0.1-9.8,0.1C146,141.7,149.4,143.1,152.7,142.7z"/>
<path class="st73" d="M60.4,244.6c0.1-1.7,0.2-3.3,0.5-5.2C63.7,241.4,61.9,243,60.4,244.6z"/>
<path class="st74" d="M279.5,92.8c-2.1-0.6-4.2-1.2-6.4-1.8c3-1.1,5.8-1.4,7.9,1.8C280.5,93.3,279.9,93.4,279.5,92.8z"/>
<path class="st46" d="M279.5,92.8c0.5,0,1.1,0,1.5,0c1.1,2.4,0.8,4.4-1.3,6.4C277.7,96.7,280.6,94.7,279.5,92.8z"/>
<path class="st75" d="M77.8,248.9c-1.8-0.4-3.4-0.8-5.2-1.2C74.9,246.3,76.9,245.6,77.8,248.9L77.8,248.9z"/>
<path class="st66" d="M272.1,64.1c-0.1,0.6-0.2,1.3-0.4,1.9c-1.5,1.4-3.5,1.5-3.7-0.5C268,63.6,270.8,64.7,272.1,64.1z"/>
<path class="st25" d="M59,228.2c-1.2,0.7-2.4,1.4-3.5,2.1c-0.7,0-1.7,0.5-2-0.5c-0.5-0.9,0.2-1.5,0.9-1.7
	C55.9,227.9,57.5,228,59,228.2z"/>
<path class="st76" d="M251.5,58.3c0.5,0.4,0.9,0.7,1.4,1.1c-2.2,2.4-4.8,1.1-7.4,0.4C247.5,59.3,249.5,58.8,251.5,58.3z"/>
<path class="st13" d="M50,229.8c-0.7,2.5-2.5,2.5-4.4,2.8C46.6,230.5,47.8,229.6,50,229.8z"/>
<path class="st44" d="M106.2,394.2c2,1.8,2,1.8,0.6,4.5c-1.8-1.2-0.4-3-0.8-4.4L106.2,394.2z"/>
<path class="st27" d="M186.1,113.7c0.4-1.9,0.9-3.1,2.6-3.2c0.6,0,1.2,0.4,0.8,1.2C189,113,188.3,114.2,186.1,113.7z"/>
<path class="st77" d="M42.6,285.8c-1.7-1.1,0.1-3.4-2.2-3.9c0.7-0.5,1.2-0.9,1.4-0.8C44.6,282.1,45.2,283.6,42.6,285.8z"/>
<path class="st78" d="M106,394.5c-1.7-0.2-3.4,0.5-6.4-1.5c3.2,0.6,5.2-3.3,6.5,1.3C106.2,394.2,106,394.5,106,394.5z"/>
<path class="st79" d="M41.5,289.1c-1.7,1.2-3.4,0.9-6.1,0c2.4-0.7,4-1.2,5.8-1.7C41.3,288,41.4,288.5,41.5,289.1z"/>
<path class="st80" d="M228.9,82.8c-0.8-0.4-1.3-1.1-0.8-1.8c0.5-0.7,1.3-0.7,2-0.1c1.4,1.4,2,2.8,0.4,4.6
	C229.4,84.9,230.1,83.4,228.9,82.8z"/>
<path class="st81" d="M167.6,168.6c0,0.5,0,0.8,0,1.3c-1.7,2-3,1.1-4.4-0.5C164.5,167.7,166.2,168.9,167.6,168.6z"/>
<path class="st82" d="M219.3,26v0.6v0.6c-2.6,0.2-5.2,0.5-7.9-0.7C214.2,25.3,216.8,26,219.3,26z"/>
<path class="st83" d="M183.9,149.3c-0.5,4-2,4.6-5,3.9C180.4,151.9,181.7,151,183.9,149.3z"/>
<path class="st48" d="M210.9,76.6c0.8,0.6,2.1,0.8,1.7,2.1c-0.2,0.7-0.8,1.7-1.8,1.1c-0.8-0.6-1.7-1.5-1.7-2.4
	C209,76.4,210.2,76.6,210.9,76.6z"/>
<path class="st84" d="M207.7,50.9c0.2-1.1,0.6-2.1,1.7-2.2c1.2-0.2,1.3,0.8,1.2,1.5c-0.1,0.7-0.7,1.4-1.3,1.7
	C208.5,52.2,207.6,52.1,207.7,50.9z"/>
<path class="st85" d="M103,191c-1.7-0.7-3.3-1.4-4.8-2c2.1-0.2,4.7-0.7,6.1,0.9C105.6,191.5,103.7,190.9,103,191z"/>
<path class="st86" d="M147.4,354.4c0.4,0.4,0.8,0.7,1.2,0.9c-2.5,0.1-4.7,2-7.3,1.3c-0.1-0.2-0.1-0.5,0-0.7c0.5-1.4,2-0.7,2.7-1.4
	C145.1,354.6,146.3,354.4,147.4,354.4z"/>
<path class="st87" d="M214.1,250.5c0,0.4,0,0.7,0,1.1c-2.7,0-5.4,0-9.6,0C208.5,249.6,211.4,250.1,214.1,250.5z"/>
<path class="st88" d="M179.4,278.8c1.2,0.7,3-0.1,3.9,1.4c-2.8,0-5.7-0.1-8.5-0.1c-0.5-0.2-0.5-0.6-0.1-0.9
	C176.2,279,177.8,278.9,179.4,278.8z"/>
<path class="st89" d="M221.5,253c0-0.5-0.1-0.8-0.1-1.3c1.8,0.4,3.4,0.8,5.8,1.3C224.8,254.4,223,254.5,221.5,253z"/>
<path class="st90" d="M187.9,285.2c0.7-1.5,0.9-3.2,0.5-5l-0.1,0.1c4.2,0.7,2,3,1.2,4.8C188.9,285.8,188.3,285.8,187.9,285.2z"/>
<path class="st91" d="M164.5,230.9c-0.4-0.1-0.7-0.1-1.2,0c-1.2-0.5-2.5-0.9-3.7-1.3c0.5-0.5,0.8-0.9,1.3-1.4
	C162.7,228.3,164.6,228.3,164.5,230.9z"/>
<path class="st92" d="M139.8,227c0,0.5,0,0.9-0.1,1.4c-1.8,0.4-2.8-0.8-4.1-1.8C137.4,225.1,138.7,225.9,139.8,227z"/>
<path class="st9" d="M219.3,304.9c1.3,0.7,2.8,2,1.5,3.1c-1.8,1.4-1.5-1.7-2.8-2C217.8,305,218,304.3,219.3,304.9z"/>
<path class="st93" d="M219.3,304.9c-0.5,0.4-0.8,0.7-1.3,1.1c-0.8-0.4-1.7-0.7-2.6-1.1c-0.5-0.8-0.8-1.5-1.3-2.4
	C216.4,302.4,218,303.5,219.3,304.9z"/>
<path class="st24" d="M220.4,246.3c0.8-0.4,1.7-0.7,2.5-1.2c1.7,0.1,3.2,0.1,4.8,0.2c0,0.4,0,0.6,0,0.9
	C225.3,246.3,222.8,246.3,220.4,246.3z"/>
<path class="st94" d="M174.7,279c0.1,0.4,0.1,0.7,0.1,0.9c-1.2,0.2-2.4,0.5-3.4-0.5c-0.1-0.1-0.1-0.8,0.1-1.1
	C172.8,277.6,173.7,278.1,174.7,279z"/>
<path class="st95" d="M168.5,333.1c1.8-0.9,3.3-1.8,4.8-2.7c0.1,0.6,0.4,1.3,0.1,1.7C172.4,334.1,170.8,334.3,168.5,333.1z"/>
<path class="st96" d="M190.2,393.9c-0.5,0.4-0.8,0.8-1.3,1.2c-1.4-0.4-3.3,0.2-4.4-2.2C186.7,393.3,188.5,393.6,190.2,393.9z"/>
<path class="st97" d="M136.4,342.1c1.1-0.7,1.5-1.2,2.2-1.5c0.8-0.5,1.7-0.2,1.4,0.8c-0.1,0.6-1.1,1.1-1.8,1.3
	C137.9,342.9,137.4,342.4,136.4,342.1z"/>
<path class="st98" d="M135.2,333.7c-0.4-0.4-0.8-0.7-1.2-1.2c2.5-0.1,5.2-1.8,7.2,1.1l0.1-0.1C139.4,333.4,137.2,333.6,135.2,333.7z
	"/>
<path class="st99" d="M101.8,182.8v0.5v0.5c-2.1,0-4.2,0-7.3,0C97.5,182,99.7,182.5,101.8,182.8z"/>
<path class="st100" d="M94.3,347.1v0.6l-0.1,0.6c-1.9,0.4-3.7,0.7-6,1.2C90,346.7,92.3,347.1,94.3,347.1z"/>
<path class="st101" d="M83.3,348.4c1.1,0,1.9,0.1,1.8,1.2c0,0.4-0.7,0.8-1.2,0.9c-0.7,0.1-1.7,0.1-1.5-1.1
	C82.5,349.1,83.1,348.8,83.3,348.4z"/>
<path class="st102" d="M169.7,150.3c-0.6,0.9-1.4,1.2-2.1,0.8c-0.5-0.2-0.9-0.9-0.8-1.3c0.4-0.8,1.2-1.1,2-0.7
	C169.1,149.3,169.5,149.9,169.7,150.3z"/>
<path class="st61" d="M206.9,99.9c-0.8,1.5-2,0.9-3.2,0.5c-0.5-0.2-1.3-0.6-0.5-1.2c0.6-0.4,1.5-0.2,2.4-0.4
	C206.6,98.2,207,98.7,206.9,99.9z"/>
<path class="st103" d="M206.6,95.4c-1.2-0.6-3.7-0.1-3.1-1.9c0.5-1.5,2.4-0.8,3.3,0.5C207.5,94.6,207.3,95,206.6,95.4z"/>
<path class="st104" d="M207.9,31.9c0.8,0.2,1.7,0.4,2.5,0.6c0,0.2,0.1,0.5,0.1,0.7c-2.2,0.1-4.6,0.2-7.3,0.5
	C204.7,31.4,206.4,32.1,207.9,31.9z"/>
<path class="st75" d="M206.6,95.4c0.1-0.5,0.1-0.9,0.2-1.4c2.5,2,1.9,3.9,0,5.9c-0.5-0.4-0.8-0.7-1.3-1.1
	C206.5,97.9,206.9,96.7,206.6,95.4z"/>
<path class="st105" d="M85.4,405.5c1.1,0.2,1.9,0.5,1.8,1.5c-0.1,0.4-0.8,0.8-1.3,0.8c-0.8,0-1.8-0.2-1.5-1.3
	C84.5,406.1,85.1,405.8,85.4,405.5z"/>
<path class="st106" d="M25.7,274.8c0.1-1.2-0.2-2.5,1.3-2.4c0.9,0,1.3,0.9,1.2,1.8c-0.1,0.7-0.7,1.5-1.3,1.8
	C25.7,276.4,26.1,275.1,25.7,274.8z"/>
<path class="st51" d="M178.7,106.5c0-0.4,0.1-0.7,0.1-1.2c0.6-0.9,1.5-1.3,2.5-0.8c0.4,0.2,0.7,1.2,0.6,1.3
	C181,107,179.7,106.6,178.7,106.5z"/>
<path class="st107" d="M77.6,249.1c4.6,1.8,1.3,3.2-0.7,4.6C77.3,252,77.5,250.5,77.6,249.1C77.8,248.9,77.6,249.1,77.6,249.1z"/>
<path class="st108" d="M272.5,58c1.3,0.7,1.9,1.9,1.9,3.3c0,0.2-1.7,0.4-2.5,0.6h-0.1c-1.1-0.5-1.3-1.3-0.8-2.4
	C271.4,58.9,272,58.5,272.5,58z"/>
<path class="st109" d="M109.9,363.4l0.1,0.4v0.5c-2.1,0.5-4.4,0.7-6.6-0.2C105.5,362.7,107.6,363.2,109.9,363.4z"/>
<path class="st35" d="M78.3,221.8c-2.7,2-4.6,0.7-7.9,2C73.5,220.4,75.5,221.1,78.3,221.8z"/>
<path class="st110" d="M65.4,230.6c0-0.5-0.1-0.9-0.1-1.4c1.2,0,2.5-0.5,3.2,0.9c0.1,0.2-0.1,0.8-0.4,0.9
	C67,231.7,66.1,231.6,65.4,230.6z"/>
<path class="st111" d="M58.3,266.2c0.6,0.4,1.3,0.6,1.4,1.1c0.2,1.1-0.6,1.4-1.4,1.3c-0.5-0.1-1.1-0.6-1.1-1.1
	C57.2,267.1,57.9,266.6,58.3,266.2z"/>
<path class="st112" d="M249.9,91.5c0.8,0.7,1.4,0.9,1.5,1.4c0.1,0.7,0,1.7-0.4,2c-0.9,0.7-1.3-0.1-1.4-0.9
	C249.6,93.3,249.8,92.7,249.9,91.5z"/>
<path class="st17" d="M100.5,144.8c0.9,0.4,2.1,0.1,2.6,1.3c-0.9,0.1-1.9,0.2-3,0.5c-0.7,0.1-1.8,0.6-1.8-0.6
	C98.3,144.6,99.7,145.2,100.5,144.8z"/>
<path class="st113" d="M271,59.5c0.2,0.8,0.6,1.5,0.8,2.4c-1.9,0.2-3.2-1.2-4.7-1.9C268.2,58.6,269.7,59.4,271,59.5z"/>
<path class="st67" d="M158.2,227.2c-2,1.9-3.9,1.5-5.9,0C154.4,227.2,156.2,227.2,158.2,227.2z"/>
<path class="st39" d="M148.5,233.4c-0.5,0.5-0.9,0.8-1.4,1.3c-0.9-0.2-2.5-0.6-2-1.5C146.1,231.1,147.3,233.5,148.5,233.4z"/>
<path class="st114" d="M266,296.1c0.4,0.5,0.8,0.8,1.2,1.3c-1.9,0.6-3.9,0.5-5.8-0.1c-0.1-2.4,1.4-1.3,2.5-1.2
	C264.6,296.1,265.3,296.1,266,296.1z"/>
<path class="st27" d="M263.9,296.1c-0.8,0.4-1.7,0.8-2.5,1.2c-0.5,0-0.9,0-1.4,0c-0.5-0.4-0.8-0.7-1.3-1.1c-0.5-0.4-0.5-0.7,0-0.9
	C260.5,295,262.2,295,263.9,296.1z"/>
<path class="st115" d="M261.3,287.9c0.5,0.4,0.8,0.7,1.3,1.2c-1.1,0.9-2.4,1.3-3.9,0.9C258.7,288.2,260.2,288.4,261.3,287.9z"/>
<path class="st49" d="M228.9,82.8c1.3,0.5,1.4,1.7,1.5,2.7c-2.1,2.8-2.2,2.8-1.9,0.2C228.8,84.8,228.9,83.7,228.9,82.8z"/>
<path class="st116" d="M258.7,295.3v0.5v0.5c-2-0.2-4.1,0.6-5.9-0.9C254.7,295.3,256.7,295.3,258.7,295.3z"/>
<path class="st117" d="M213.5,72.9c0.5-0.8,0.2-2.2,1.4-2.2c0.5,0,1.3,1.1,1.3,1.5c0,0.6-0.7,1.4-1.3,1.7
	C214.3,74.2,213.2,74.2,213.5,72.9z"/>
<path class="st118" d="M210.5,33.1c0-0.2,0-0.5-0.1-0.7c2.1,0,4.4-1.2,6.3,0.7C214.7,33.1,212.5,33.1,210.5,33.1z"/>
<path class="st47" d="M236.3,254.7c2.4-0.8,3.8-1.5,5.5-0.4C240.3,256,238.7,255.7,236.3,254.7z"/>
<path class="st119" d="M239.9,244.3c-1.3,0.4-2.6,0.8-3.8,1.2c-0.2,0.1-0.6,0.1-0.8,0.1c-0.5-0.5-0.9-0.9-1.4-1.3
	C235.9,244.2,237.9,244.2,239.9,244.3z"/>
<path class="st120" d="M187.9,285.2c0.5,0,1.1,0,1.5,0c-0.5,1.5-1.9,3.7-3,2.8C184.7,286.8,186.9,286,187.9,285.2z"/>
<path class="st121" d="M182.3,178.7c1.2,0.2,1.7,1.1,1.7,2.1c0,0.5-0.6,1.4-0.8,1.4c-1.5-0.1-1.5-1.7-1.9-2.6
	C180.9,178.8,181.7,178.7,182.3,178.7z"/>
<path class="st122" d="M110.4,189c-0.6,1.4-1.7,2.1-3.5,2.1c-0.2-1.9,1.3-2.6,2.2-3.5C110.3,187.5,111,187.6,110.4,189z"/>
<path class="st123" d="M110.4,189c-0.5-0.5-0.8-0.9-1.3-1.4c0.2-0.7,0.5-1.4,0.7-2.1c0.1-0.6,0.2-1.2,0.5-1.8
	C112.8,185.4,111.9,187.2,110.4,189z"/>
<path class="st67" d="M207.2,193.1c0-0.4,0-0.8,0-1.2c2,0.1,4.1,0.2,6.1,0.4c0.5,0.4,0.6,0.7,0,1.1
	C211.2,193.2,209.2,193.1,207.2,193.1z"/>
<path class="st124" d="M213.2,193.2c0-0.4,0-0.7,0-1.1c1.2-0.5,2.5-0.9,3.7-1.4c0.5,0.5,0.8,0.8,1.3,1.3
	C216.9,193.6,215.1,193.6,213.2,193.2z"/>
<path class="st125" d="M127.7,342.1c0-0.4,0-0.7,0-1.1c1.8-0.4,3.5-0.1,5.3,0.6C131.2,342.3,129.5,342.4,127.7,342.1z"/>
<path class="st126" d="M144,354.6c-0.9,0.5-1.9,0.9-2.7,1.4c-0.8-0.1-1.7-0.1-2.4-0.2C139.8,352.6,142.2,354.6,144,354.6z"/>
<path class="st127" d="M201.1,397.9c1.1,0.4,2.1,0.7,3.7,1.2C202.9,400.1,201.7,399.9,201.1,397.9z"/>
<path class="st128" d="M145.4,293.3c1.9-0.7,3.3-1.1,3.8,0.2c0.5,1.3-0.8,0.7-1.4,0.6C147.3,294,146.7,293.8,145.4,293.3z"/>
<path class="st85" d="M162.4,285.1c-1.8,0.4-3.5,0.5-5.4-0.4c1.8-1.2,3.5-1.1,5.3-0.7C162.8,284.3,162.8,284.7,162.4,285.1z"/>
<path class="st129" d="M162.4,285.1c0-0.4,0-0.7-0.1-1.1c1.9-0.1,3.9-0.5,5.8,0.6C166.2,286,164.3,285.2,162.4,285.1z"/>
<path class="st0" d="M406.7,346.8c-2.7,0.5-5.4,0.9-9.7,1.8c2.8-3.1,5.3-2.2,7.3-2.8C405.4,345.1,406.6,344.6,406.7,346.8z"/>
<path class="st1" d="M407.9,344.4c0.8-0.6,1.7-1.2,2.6-1.7c1.1-0.6,2.6-1.4,3,0c0.4,1.3-1.4,1.7-2.6,1.9
	C409.7,345.2,408.7,345.4,407.9,344.4z"/>
<path class="st2" d="M407.9,344.4c0.9,0.1,2,0.1,3,0.2c-0.9,1.5-2.6,1.8-4.1,2.1c-0.8-0.4-1.7-0.7-2.4-1.1
	C405.1,344.6,406.4,344.5,407.9,344.4z"/>
<path class="st3" d="M379.5,347.1c-0.4,0-0.8,0-1.2,0c-2,0-2-1.1-1.3-2.5c0.9-0.4,1.9-0.8,2.7-1.2
	C378.9,344.5,379.4,345.8,379.5,347.1z"/>
<path class="st4" d="M336.5,213.5c-0.2-0.4-0.4-0.8-0.6-1.2c-0.2-0.6-0.1-1.1,0.1-1.5c0.5-0.4,1.1-0.2,1.5,0l-0.1,0.2
	C337,211.9,336.7,212.7,336.5,213.5z"/>
<path class="st5" d="M314.6,113.9c3,2.7,6.1-2,9.3,0.6c-2.8,2-6,2-9.2,2.2C314.6,115.8,314.6,114.9,314.6,113.9z"/>
<path class="st6" d="M332.7,353.1c-1.7,0-3.2,0.1-4.8,0.1c-1.2,0.5-2.4,1.1-2.5-1.1c2-0.5,4-0.8,6.1-1.3
	C331.9,351.7,332.2,352.4,332.7,353.1z"/>
<path class="st7" d="M328.5,227.2c1.1-0.2,2,0.1,2.7,0.9c0,0.8-0.8,0.9-1.3,1.4c-6.6-0.4-13.3,1.3-19.9-1.2
	c-0.4-0.5-0.4-0.9,0.1-1.4c4.1,0.1,8.3,0.2,12.4,0.4C324.7,228,326.7,228.2,328.5,227.2z"/>
<path class="st8" d="M349,106.5c-5,1.7-10,2-15.1,0.1c5-1.8,10.1-0.6,15.2-1.3C349.4,105.8,349.4,106.1,349,106.5z"/>
<path class="st9" d="M270.8,144.8c6.4-2.5,12.5-0.5,18.8,0.5c0.6,0.4,0.6,0.6,0,0.9c-5.4,0-10.7-0.1-16.2-0.1
	C272.7,145.3,271.3,146,270.8,144.8z"/>
<path class="st10" d="M303.3,141.4c6.6,0,13.2,0.1,19.8,0.1c0.4,0.7,0.1,1.2-0.6,1.5c-3.1,0.5-6.3-0.6-9.3,0.6
	c-3.4,0.8-6.6-1.2-9.9-1.2C302.7,142.1,302.7,141.8,303.3,141.4z"/>
<path class="st11" d="M431.6,287.9c2.7-0.2,5.8-1.5,7.4,1.8c1.4,2.8,1.7,5.7-1.5,7.8c-0.5-0.4-1.2-0.5-1.2-1.3
	c3.1-4.5,1.3-6.5-3.4-7.1C431.6,289.7,431.5,288.9,431.6,287.9z"/>
<path class="st12" d="M392,110.5c6-1.9,12-0.9,18.1,1.3c-3.1,0-6.1,0-9.2,0c-2-0.9-4.2-0.2-6.4-0.5
	C393.6,111.2,392.6,111.4,392,110.5z"/>
<path class="st12" d="M323,142.7c0-0.4,0-0.7,0.1-1.1c0.8,0,1.7,0,2.5,0c4.4,0.9,8.9,0.1,13.3,0.5c1.3,0.1,3.4-1.1,3.9,1.5
	c-6.6,0-13.2,0-19.8,0C322.4,143.3,322.4,143,323,142.7z"/>
<path class="st13" d="M342.7,143.5c-3.4-2.1-7.2-0.6-10.7-1.1c-2.1-0.2-4.5,0.8-6.5-0.9c5.7,0,11.3-0.1,16.9-0.1
	c1.1,0,2.7-0.1,2.4,1.8C344.6,144.3,343.5,143.7,342.7,143.5z"/>
<path class="st14" d="M340.9,113.6c-4-0.1-8.3,1.8-12.9-1.3C333.1,110.9,337,112,340.9,113.6z"/>
<path class="st15" d="M372.3,312.5c5.7-0.8,11.4,0.7,17.1-1.2c0.9-0.4,1.7,0.2,1.1,1.2c-0.4,0.6-1.3,0.7-2,1.1
	c-4.4,1.1-8.7,0.2-13,0.5C374.3,314,372.3,315.1,372.3,312.5z"/>
<path class="st16" d="M268.8,380.3c3.8-1.4,5.8-1.2,6.6,2.1c0.2,0.9,1.1,2.5-0.1,2.7C271.5,385.8,272.4,381.1,268.8,380.3z"/>
<path class="st17" d="M365.7,388.9c2.7-0.5,5.4-1.1,8.3-1.3c1.7-0.1,4.4-1.2,4,2.4l0.1-0.1c-3.7,0.1-7.3,0.2-10.9,0.2
	C365.8,390.7,365.6,390.1,365.7,388.9z"/>
<path class="st18" d="M384.5,85.8c3.7,0,7.4,0,12.2,0C391.8,90.1,388.1,86.9,384.5,85.8z"/>
<path class="st19" d="M299.2,462.9c3-0.2,4.6,0.4,4.4,3.5c-0.1,1.5-0.4,3.3-2,3.1c-2.7-0.4-0.9-1.7-0.4-3
	C301.9,464.8,299,465,299.2,462.9z"/>
<path class="st20" d="M357.9,197.1c3.1,0.1,4.6,1.7,3.8,4.6c-0.5,1.7-1.5,4.1-4,1.4C357.9,201.1,357,199.1,357.9,197.1z"/>
<path class="st21" d="M280.2,363.4c1.2-1.5,5.9-1.3,2.5-5.1c-0.2-2.4,1.2-1.8,2.5-1.3c3.3,5.7-0.7,6.5-4.8,7.2
	C279.6,364.1,279.5,363.8,280.2,363.4z"/>
<path class="st22" d="M388.6,187.1c-3.8,0-7.3-1.9-11.1-1.7c4.1-0.4,8.3-1.9,12.3,0.6C389.4,186.5,389.1,186.9,388.6,187.1z"/>
<path class="st23" d="M418.9,138.8c-4.2,0-7.2,0-10,0C411.6,137.1,414.5,135.6,418.9,138.8z"/>
<path class="st24" d="M266.5,451.1c3-2.2,6.7-1.2,10-2.1c1.5,1.1,3.8-0.5,5.2,1.2c-3.2,1.5-6.8,0.6-10.1,1.3
	C269.8,452.4,268.1,452.2,266.5,451.1z"/>
<path class="st2" d="M281.7,450.2c-1.7-0.6-3.8,0.4-5.2-1.2c4-0.4,7.9-0.8,12.5-1.2C286.8,451.1,284.1,449.8,281.7,450.2z"/>
<path class="st12" d="M348.1,143.5c3.3,0.2,6.8,0.4,7.1,5.5C352,147.6,350.7,144.6,348.1,143.5z"/>
<path class="st25" d="M430.3,297.4c-4.2-0.1-8.6,0.6-13.1-1.4c2.1-1.4,4-0.7,5.8-0.6c1.9,0.8,3.9,0.2,5.9,0.5
	C429.8,295.9,430.5,296.3,430.3,297.4z"/>
<path class="st26" d="M300.3,228.5c3.5-0.6,6.6,0.2,10.5,2.7c-4.5,0.4-7.4-0.8-10.5-1.8C299.8,229.2,299.8,228.9,300.3,228.5z"/>
<path class="st27" d="M287.6,415.2c3.9,0,7.8,0,12.9,0c-5.3,2.4-9.8,0.9-14,1.2C286.1,415.3,286.3,414.8,287.6,415.2z"/>
<path class="st28" d="M273.8,456.2c3.1-0.5,5.8,0.9,10.3,2c-4.6,0.4-7.6,1.4-10.3-0.8C273.3,457,273.3,456.5,273.8,456.2z"/>
<path class="st29" d="M374.5,313.8c4.7,0,9.3,0,14,0c-4.5,1.7-9.1,1.1-13.7,0.9C374.2,314.6,374.1,314.2,374.5,313.8z"/>
<path class="st9" d="M349.7,278.8c3.1,0,6.7-3.7,8.9,1.5l0.1-0.1c-1.7,0-3.4,0-5.1-0.1C352.5,279,350.6,280.4,349.7,278.8z"/>
<path class="st30" d="M273.3,191c-3.3,0-6.7,0-10.7,0c2.1-1.4,3.9-2,5.9-2C269.8,190.4,272.7,187.8,273.3,191z"/>
<path class="st31" d="M289.6,146.3c0-0.4,0-0.6,0-0.9c3.7,0.5,7.3,0.8,11,1.3c0.1,2.2-1.2,1.5-2.4,1.2
	C295.3,147.4,292.3,147.9,289.6,146.3z"/>
<path class="st32" d="M315.7,452c0.7,1.5,3.3,2.1,2.4,4.5c-0.8,2-2.2,1.3-3.5,0.7C314.4,455.5,314.4,453.6,315.7,452z"/>
<path class="st33" d="M325.4,352.3c0.8,0.4,1.7,0.7,2.5,1.1c-2.7,1.8-5.9,1.4-8.9,2.1c-0.6-0.1-0.9-0.5-1.2-0.9
	C319.8,352.3,322.9,353.4,325.4,352.3z"/>
<path class="st34" d="M318.8,233.4c2.2,1.3,5.4,0.9,7.7,4.5c-3.8-0.7-6.5-1.5-9.1-3.1C317.5,233.9,318.3,233.7,318.8,233.4z"/>
<path class="st35" d="M420.7,104.6c-2.8-2.5-5.7,0.4-8.5,0c-1.3,0.6-1.5-0.1-1.3-1.2c3.3-0.2,6.5-3.7,9.9-0.5
	C421.3,103.5,421.3,104.1,420.7,104.6z"/>
<path class="st13" d="M305.5,333.7c-3.3,1.5-6.6,1.4-10.1,0.2c3-0.5,6-0.9,9-1.3C304.9,332.7,305.3,333.1,305.5,333.7z"/>
<path class="st15" d="M388.6,187.1c0.4-0.4,0.7-0.7,1.2-1.2c2.8,2.6,2.2,4.6-1.1,6.1c-1.3,0.5-1.7-0.1-1.3-1.3
	C388.3,189.7,389.3,188.7,388.6,187.1z"/>
<path class="st36" d="M267.6,387.3c-2.2-2-3.5-3.1-5.4-4.7C266.6,381.8,267.6,383.2,267.6,387.3z"/>
<path class="st22" d="M377.5,193.1c-2.5,0.4-4.6-0.4-6.7-1.7c2.2-0.6,4.5-1.3,6.7,0.5C378,192.3,378,192.6,377.5,193.1z"/>
<path class="st37" d="M265.2,455.9c0-0.4,0-0.6,0-0.9c2.8,0.4,5.8,0.7,8.6,1.1c0,0.4,0.1,0.8,0.1,1.2
	C271,457.5,267.9,457.6,265.2,455.9z"/>
<path class="st38" d="M335,307.5c-1.1-1.4-3.5-0.5-4.6-2.8c2.6-1.4,4.4-0.8,5.8,1.5C336.2,307,335.7,307.4,335,307.5z"/>
<path class="st39" d="M358.6,109.2c-1.1-1.2-2.2-2.5-4.2-4.7C358.3,104.7,359.6,105.9,358.6,109.2z"/>
<path class="st40" d="M357.9,197.1c0.1,2,2.1,4.1-0.2,6C354.9,201,356,199,357.9,197.1z"/>
<path class="st41" d="M420.7,104.6c0-0.6,0.1-1.1,0.1-1.7c3.2,1.8,4.1,4.4,2.7,7.8C423,108.5,422,106.5,420.7,104.6z"/>
<path class="st42" d="M300.3,228.5v0.5v0.5c-3.8,0-7.6,0-11.3,0c0-0.4,0-0.7,0-0.9C292.7,228.5,296.6,228.5,300.3,228.5z"/>
<path class="st10" d="M358.2,82.3c3-0.8,4,0.5,4.4,2.5c0.1,0.5-0.6,1.4-0.8,1.4C359.7,86,359.1,84.2,358.2,82.3z"/>
<path class="st43" d="M398.1,245.4c2-0.8,4-1.5,6.3-1.2c0.5,0.5,1.3,0.6,1.4,1.3c-2.4,1.3-5,1.1-7.6,0.8
	C397.5,246.1,397.5,245.8,398.1,245.4z"/>
<path class="st44" d="M297.4,421.7c-3.3-0.1-6.6-0.2-9.9-0.5c0-2.8,2.7-0.9,3.5-2.1c2.1,0.4,4.1,0.7,6.3,1.2
	C297.7,420.8,297.7,421.2,297.4,421.7z"/>
<path class="st45" d="M385.8,304.9c-2.1,0.1-4.2,0.4-7.6,0.6c2.4-2.4,4.2-2.7,6.4-3C385.2,303.2,386.5,303.6,385.8,304.9z"/>
<path class="st46" d="M435.6,136.9c1.1-2.1,2-4.1,3.2-6.6c1.1,3.3,1.1,5.9-1.8,7.7C435.7,138.7,435.6,138,435.6,136.9z"/>
<path class="st47" d="M374.5,313.8c0.1,0.2,0.2,0.6,0.4,0.9c-2.1,0.2-4.2,0.6-6.5-0.4c0.8-2.1,2.5-1.7,4-1.8
	C372.6,313.7,373.5,313.7,374.5,313.8z"/>
<path class="st13" d="M437.4,152.8c1.2-1.8,2.1-3.3,3-4.7C441.7,151.1,441.1,152.9,437.4,152.8z"/>
<path class="st48" d="M285.1,357c-0.9,0.1-2.1,0-2.5,1.3c-1.4,0-3.1,0.7-4.6-0.9C280.5,355.9,282.6,355.2,285.1,357z"/>
<path class="st49" d="M410.2,244.3c2.4,0.2,3.3,1.8,3.5,4.2c-2-2.2-4.8-2.1-7.3-3.1C407.4,244.1,409.2,245.3,410.2,244.3z"/>
<path class="st50" d="M378,390c5.3,1.4,1.8,5.2,1.8,8c-0.6-2.7-1.1-5.4-1.7-8.1L378,390z"/>
<path class="st51" d="M390.7,246.3c-1.8,0.1-3.5,0.5-4.4-2c2.4-0.6,4.7-0.6,6.7,0.8C392.6,246.2,391.4,245.6,390.7,246.3z"/>
<path class="st52" d="M311.2,422.2c0.6-2.5,1.1-4.8,0.9-7.3C314,417.6,314.6,420.2,311.2,422.2z"/>
<path class="st36" d="M335,307.5c0.5-0.5,0.8-0.8,1.3-1.3c1.8,2,1.2,3.9,0,5.9C334,310.9,336.1,308.9,335,307.5z"/>
<path class="st32" d="M316.9,447.4c1.4,0.2,3,0.2,2.1,2.5c-0.6,1.7-1.4,2.2-3.1,1.3C315.9,449.8,315.6,448.4,316.9,447.4z"/>
<path class="st53" d="M303.3,141.4v0.6v0.6c-2.7,0.2-5.2-0.4-7.8-1.8C298.5,138.9,300.7,141.2,303.3,141.4z"/>
<path class="st54" d="M317.2,295.3c0.7,0.8,1.4,1.3,1.5,2c0.4,1.7-0.4,2.8-2.2,3c-0.5,0-1.1-0.4-1.7-0.6
	C316.3,298.7,316.9,297.2,317.2,295.3z"/>
<path class="st55" d="M266.5,451.1c1.7,0.1,3.3,0.2,5,0.4c0,0.8,2.4,1.5,0.7,1.9C270.5,453.7,267.3,454.6,266.5,451.1z"/>
<path class="st56" d="M344.6,390.8c2.7,0.6,5.9-0.4,9.1,2.8c-3.8-0.5-6.4-0.9-9.1-1.3C344.2,391.9,344.2,391.3,344.6,390.8z"/>
<path class="st57" d="M298.1,147.7c0.8-0.4,1.7-0.8,2.4-1.2c1.9-0.2,3.5,0.6,6.4,1.9C303.2,148.7,300.6,149.4,298.1,147.7z"/>
<path class="st58" d="M344.6,390.8c0,0.6,0,1.1,0,1.7c-2,0-4.1,0.5-5.7-1.8C340.9,389.5,342.8,389.6,344.6,390.8z"/>
<path class="st59" d="M298,342.1c-3.7,0-7.4,0-11.1,0c-0.6-0.4-0.6-0.7,0-0.9c3.7,0,7.3,0,11-0.1C298.6,341.3,298.6,341.7,298,342.1
	z"/>
<path class="st60" d="M410.9,103.4c0.5,0.4,0.8,0.7,1.3,1.2c-2.7,1.9-5.8,1.1-8.7,1.1c-0.6-0.4-0.6-0.7,0-1.1
	C406,104.2,408.4,103.9,410.9,103.4z"/>
<path class="st47" d="M286.9,341.1c0,0.4,0,0.7,0,0.9c-2.1,0.7-4.2,1.3-7.3,0.6C282,340.3,284.5,341,286.9,341.1z"/>
<path class="st13" d="M280.3,185.4c-2.4-2-5.5-0.9-8.1-1.8c-0.6-0.2-0.7-0.6,0-0.8c3,0,5.9-1.3,8.6,0.9
	C281.3,184.5,281.2,185.1,280.3,185.4z"/>
<path class="st61" d="M335.3,236.2c-0.4,2.7-1.8,4.1-4.8,4.5c-0.2-2.8,2.7-3.1,3.2-4.8C334.3,235.4,334.9,235.5,335.3,236.2z"/>
<path class="st62" d="M272,345.7c-2.1,1.9-4.8,2-7.4,2.5c-0.5-0.4-0.5-0.8,0.1-1.1c2.5-0.8,5-1.7,7.4-2.5
	C272.5,344.9,272.4,345.4,272,345.7z"/>
<path class="st29" d="M340.3,164.9c2.1,3.1,1.2,4.7-2.5,5c-0.5-0.5-0.5-0.8,0-1.3c0.9-0.9,1.5-1.8,0.1-2.8
	C338.1,163.7,339.2,164.1,340.3,164.9z"/>
<path class="st63" d="M335.3,236.2c-0.6-0.1-1.1-0.2-1.7-0.4c0-1.7,0-3.3,0-5c0.2-0.4,0.5-0.4,0.8-0.2c0.2,0.1,0.4,0.2,0.4,0.4
	C337.2,232.4,336.3,234.3,335.3,236.2z"/>
<path class="st64" d="M349.1,287.3c-2,0.7-3.9,1.3-5.2-1.2C346.1,284.6,347.5,285.6,349.1,287.3z"/>
<path class="st65" d="M391.8,253c-2.6-0.1-5.1-0.1-7.4-1.4c-0.6-0.4-0.6-0.7,0-1.1c2.6-0.6,4.8,1.2,7.3,1.2
	C392.2,252,392.2,252.5,391.8,253z"/>
<path class="st66" d="M339.5,302.4c-1.2-1.7-0.9-3.1,0.2-4.2c0.1-0.1,1.3,0.2,1.4,0.6C341.6,300.3,341.4,301.7,339.5,302.4z"/>
<path class="st30" d="M360.5,393.9c1.7,0.6,3.5,0.7,4.8,2.8c-2.7,0.9-4.4-0.4-6.1-1.5C359.3,394.3,360.1,394.2,360.5,393.9z"/>
<path class="st67" d="M365.7,388.9c0.5,0.4,0.9,0.8,1.4,1.2c-2.8,1.1-5.3-0.1-8-1.2C361.4,388.9,363.6,388.9,365.7,388.9z"/>
<path class="st38" d="M365.5,253.4c3.8-0.7,6.1-1.2,9.2-1.8C372.1,254.8,369.5,254.1,365.5,253.4z"/>
<path class="st68" d="M311.6,333.6c3.7,2.2,3.7,2.4,0,7.9c0.6-3.4,1.5-5.9,0.1-8L311.6,333.6z"/>
<path class="st44" d="M272,345.7c0-0.4,0-0.7,0-1.2c1.2-1.5,2.7-2.1,5-1.9C275.9,345.1,274,345.5,272,345.7z"/>
<path class="st47" d="M389.6,139.7c0,0.9-0.6,1.7-1.4,1.3c-0.7-0.2-1.4-0.8-1.8-1.5c-0.5-0.8,0.1-1.4,1.2-1.5
	C388.7,137.9,389.3,138.5,389.6,139.7z"/>
<path class="st69" d="M340.3,164.9c-0.8,0.4-1.5,0.6-2.4,0.9c-1.7,0.1-3.2-0.1-5.8-2.2C335.9,164,338.1,163.3,340.3,164.9z"/>
<path class="st70" d="M434.8,129.3c-2.2,1.2-4.2,1.7-7.2-0.8C430.9,128.8,432.8,129,434.8,129.3z"/>
<path class="st71" d="M287.6,415.2c-0.4,0.4-0.8,0.8-1.2,1.2c-1.9,0-3.4-0.6-5.2-2.6C283.8,413.8,285.8,413.7,287.6,415.2z"/>
<path class="st72" d="M323,142.7c0,0.4,0,0.6,0,0.9c-3.3,0-6.5,0.1-9.8,0.1C316.3,141.7,319.8,143.1,323,142.7z"/>
<path class="st73" d="M292.4,435.6c0.1-1.7,0.2-3.3,0.5-5.2C295.9,432.5,294,434.2,292.4,435.6z"/>
<path class="st74" d="M463.6,171.4c-2.1-0.6-4.2-1.2-6.4-1.8c3-1.1,5.8-1.4,7.9,1.8C464.6,172,464.1,172,463.6,171.4z"/>
<path class="st46" d="M463.6,171.4c0.5,0,1.1,0,1.5,0c1.1,2.4,0.8,4.4-1.3,6.4C461.9,175.3,464.9,173.3,463.6,171.4z"/>
<path class="st75" d="M309.8,440c-1.8-0.4-3.4-0.8-5.2-1.2C306.9,437.4,309,436.7,309.8,440L309.8,440z"/>
<path class="st66" d="M456.4,142.7c-0.1,0.6-0.2,1.3-0.4,1.9c-1.5,1.4-3.5,1.5-3.7-0.5C452.2,142.2,454.9,143.3,456.4,142.7z"/>
<path class="st25" d="M291.1,419.2c-1.2,0.7-2.4,1.4-3.5,2.1c-0.7,0-1.7,0.5-2-0.5c-0.5-0.9,0.2-1.5,0.9-1.7
	C287.9,419.1,289.5,419.2,291.1,419.2z"/>
<path class="st76" d="M435.6,136.9c0.5,0.4,0.9,0.7,1.4,1.1c-2.2,2.4-4.8,1.1-7.4,0.4C431.6,137.9,433.6,137.4,435.6,136.9z"/>
<path class="st13" d="M282.2,421c-0.7,2.5-2.5,2.5-4.4,2.8C278.6,421.6,279.8,420.7,282.2,421z"/>
<path class="st44" d="M276.5,394.2c2,1.8,2,1.8,0.6,4.5c-1.8-1.2-0.4-3-0.8-4.4L276.5,394.2z"/>
<path class="st27" d="M356.4,113.7c0.4-1.9,0.9-3.1,2.6-3.2c0.6,0,1.2,0.4,0.8,1.2C359.3,113,358.6,114.2,356.4,113.7z"/>
<path class="st77" d="M274.6,476.8c-1.7-1.1,0.1-3.4-2.2-3.9c0.7-0.5,1.2-0.9,1.4-0.8C276.6,473.2,277.3,474.7,274.6,476.8z"/>
<path class="st78" d="M276.3,394.5c-1.7-0.2-3.4,0.5-6.4-1.5c3.2,0.6,5.2-3.3,6.5,1.3C276.5,394.2,276.3,394.5,276.3,394.5z"/>
<path class="st79" d="M273.6,480.1c-1.7,1.2-3.4,0.9-6.1,0c2.4-0.7,4-1.2,5.8-1.7C273.3,479.1,273.4,479.7,273.6,480.1z"/>
<path class="st80" d="M413.2,161.4c-0.8-0.4-1.3-1.1-0.8-1.8s1.3-0.7,2-0.1c1.4,1.4,2,2.8,0.4,4.6
	C413.6,163.5,414.2,162,413.2,161.4z"/>
<path class="st81" d="M337.9,168.6c0,0.5,0,0.8,0,1.3c-1.7,2-3,1.1-4.4-0.5C334.8,167.7,336.5,168.9,337.9,168.6z"/>
<path class="st82" d="M403.5,104.6v0.6v0.6c-2.6,0.2-5.2,0.5-7.9-0.7C398.3,103.9,400.9,104.6,403.5,104.6z"/>
<path class="st83" d="M354.2,149.3c-0.5,4-2,4.6-5,3.9C350.7,151.9,352,151,354.2,149.3z"/>
<path class="st48" d="M395.1,155.2c0.8,0.6,2.1,0.8,1.7,2.1c-0.2,0.7-0.8,1.7-1.8,1.1c-0.8-0.6-1.7-1.5-1.7-2.4
	C393.1,155,394.3,155.2,395.1,155.2z"/>
<path class="st84" d="M391.8,129.5c0.2-1.1,0.6-2.1,1.7-2.2c1.2-0.2,1.3,0.8,1.2,1.5c-0.1,0.7-0.7,1.4-1.3,1.7
	C392.7,130.8,391.8,130.7,391.8,129.5z"/>
<path class="st85" d="M273.3,191c-1.7-0.7-3.3-1.4-4.8-2c2.1-0.2,4.7-0.7,6.1,0.9C275.9,191.5,274,190.9,273.3,191z"/>
<path class="st86" d="M317.7,354.4c0.4,0.4,0.8,0.7,1.2,0.9c-2.5,0.1-4.7,2-7.3,1.3c-0.1-0.2-0.1-0.5,0-0.7c0.5-1.4,2-0.7,2.7-1.4
	C315.4,354.6,316.6,354.4,317.7,354.4z"/>
<path class="st87" d="M384.4,250.5c0,0.4,0,0.7,0,1.1c-2.7,0-5.4,0-9.6,0C378.8,249.6,381.7,250.1,384.4,250.5z"/>
<path class="st88" d="M349.7,278.8c1.2,0.7,3-0.1,3.9,1.4c-2.8,0-5.7-0.1-8.5-0.1c-0.5-0.2-0.5-0.6-0.1-0.9
	C346.5,279,348.1,278.9,349.7,278.8z"/>
<path class="st89" d="M391.8,253c0-0.5-0.1-0.8-0.1-1.3c1.8,0.4,3.4,0.8,5.8,1.3C395.1,254.4,393.5,254.5,391.8,253z"/>
<path class="st90" d="M358.2,285.2c0.7-1.5,0.9-3.2,0.5-5l-0.1,0.1c4.2,0.7,2,3,1.2,4.8C359.2,285.8,358.8,285.8,358.2,285.2z"/>
<path class="st91" d="M334.8,230.9c-0.4-0.1-0.7-0.1-1.2,0c-1.2-0.5-2.5-0.9-3.7-1.3c0.5-0.5,0.8-0.9,1.3-1.4
	C333,228.3,334.9,228.3,334.8,230.9z"/>
<path class="st92" d="M310.1,227c0,0.5,0,0.9-0.1,1.4c-1.8,0.4-2.8-0.8-4.1-1.8C307.7,225.1,309,225.9,310.1,227z"/>
<path class="st9" d="M389.6,304.9c1.3,0.7,2.8,2,1.5,3.1c-1.8,1.4-1.5-1.7-2.8-2C388.3,305,388.3,304.3,389.6,304.9z"/>
<path class="st93" d="M389.6,304.9c-0.5,0.4-0.8,0.7-1.3,1.1c-0.8-0.4-1.7-0.7-2.6-1.1c-0.5-0.8-0.8-1.5-1.3-2.4
	C386.7,302.4,388.3,303.5,389.6,304.9z"/>
<path class="st24" d="M390.7,246.3c0.8-0.4,1.7-0.7,2.5-1.2c1.7,0.1,3.2,0.1,4.8,0.2c0,0.4,0,0.6,0,0.9
	C395.6,246.3,393.2,246.3,390.7,246.3z"/>
<path class="st94" d="M345,279c0.1,0.4,0.1,0.7,0.1,0.9c-1.2,0.2-2.4,0.5-3.4-0.5c-0.1-0.1-0.1-0.8,0.1-1.1
	C343.1,277.6,344,278.1,345,279z"/>
<path class="st95" d="M338.8,333.1c1.8-0.9,3.3-1.8,4.8-2.7c0.1,0.6,0.4,1.3,0.1,1.7C342.8,334.1,341.1,334.3,338.8,333.1z"/>
<path class="st96" d="M360.5,393.9c-0.5,0.4-0.8,0.8-1.3,1.2c-1.4-0.4-3.3,0.2-4.4-2.2C357.1,393.3,358.8,393.6,360.5,393.9z"/>
<path class="st97" d="M306.7,342.1c1.1-0.7,1.5-1.2,2.2-1.5c0.8-0.5,1.7-0.2,1.4,0.8c-0.1,0.6-1.1,1.1-1.8,1.3
	C308.2,342.9,307.7,342.4,306.7,342.1z"/>
<path class="st98" d="M305.5,333.7c-0.4-0.4-0.8-0.7-1.2-1.2c2.5-0.1,5.2-1.8,7.2,1.1l0.1-0.1C309.7,333.4,307.7,333.6,305.5,333.7z
	"/>
<path class="st99" d="M272.1,182.8v0.5v0.5c-2.1,0-4.2,0-7.3,0C267.8,182,270,182.5,272.1,182.8z"/>
<path class="st100" d="M264.6,347.1v0.6l-0.1,0.6c-1.9,0.4-3.7,0.7-6,1.2C260.3,346.7,262.6,347.1,264.6,347.1z"/>
<path class="st101" d="M253.6,348.4c1.1,0,1.9,0.1,1.8,1.2c0,0.4-0.7,0.8-1.2,0.9c-0.7,0.1-1.7,0.1-1.5-1.1
	C252.8,349.1,253.4,348.8,253.6,348.4z"/>
<path class="st102" d="M340.1,150.3c-0.6,0.9-1.4,1.2-2.1,0.8c-0.5-0.2-0.9-0.9-0.8-1.3c0.4-0.8,1.2-1.1,2-0.7
	C339.5,149.3,339.8,149.9,340.1,150.3z"/>
<path class="st61" d="M325.5,86.7c-0.8,1.5-2,0.9-3.2,0.5c-0.5-0.2-1.3-0.6-0.5-1.2c0.6-0.4,1.5-0.2,2.4-0.4
	C325.4,85,325.7,85.5,325.5,86.7z"/>
<path class="st103" d="M390.7,174c-1.2-0.6-3.7-0.1-3.1-1.9c0.5-1.5,2.4-0.8,3.3,0.5C391.7,173.2,391.6,173.6,390.7,174z"/>
<path class="st104" d="M392,110.5c0.8,0.2,1.7,0.4,2.5,0.6c0,0.2,0.1,0.5,0.1,0.7c-2.2,0.1-4.6,0.2-7.3,0.5
	C388.9,110,390.6,110.7,392,110.5z"/>
<path class="st75" d="M390.7,174c0.1-0.5,0.1-0.9,0.2-1.4c2.5,2,1.9,3.9,0,5.9c-0.5-0.4-0.8-0.7-1.3-1.1
	C390.6,176.5,391,175.3,390.7,174z"/>
<path class="st105" d="M255.7,405.5c1.1,0.2,1.9,0.5,1.8,1.5c-0.1,0.4-0.8,0.8-1.3,0.8c-0.8,0-1.8-0.2-1.5-1.3
	C254.8,406.1,255.5,405.8,255.7,405.5z"/>
<path class="st106" d="M257.9,465.9c0.1-1.2-0.2-2.5,1.3-2.4c0.9,0,1.3,0.9,1.2,1.8c-0.1,0.7-0.7,1.5-1.3,1.8
	C257.7,467.5,258.1,466.2,257.9,465.9z"/>
<path class="st51" d="M349,106.5c0-0.4,0.1-0.7,0.1-1.2c0.6-0.9,1.5-1.3,2.5-0.8c0.4,0.2,0.7,1.2,0.6,1.3
	C351.3,107,350.1,106.6,349,106.5z"/>
<path class="st107" d="M309.7,440.1c4.6,1.8,1.3,3.2-0.7,4.6C309.3,443.2,309.5,441.5,309.7,440.1
	C309.8,440,309.7,440.1,309.7,440.1z"/>
<path class="st108" d="M456.6,136.6c1.3,0.7,1.9,1.9,1.9,3.3c0,0.2-1.7,0.4-2.5,0.6h-0.1c-1.1-0.5-1.3-1.3-0.8-2.4
	C455.7,137.5,456.1,137.1,456.6,136.6z"/>
<path class="st109" d="M280.2,363.4l0.1,0.4v0.5c-2.1,0.5-4.4,0.7-6.6-0.2C275.8,362.7,277.9,363.2,280.2,363.4z"/>
<path class="st35" d="M310.4,412.9c-2.7,2-4.6,0.7-7.9,2C305.5,411.6,307.5,412.2,310.4,412.9z"/>
<path class="st110" d="M297.4,421.7c0-0.5-0.1-0.9-0.1-1.4c1.2,0,2.5-0.5,3.2,0.9c0.1,0.2-0.1,0.8-0.4,0.9
	C299,422.8,298.1,422.7,297.4,421.7z"/>
<path class="st111" d="M290.3,457.4c0.6,0.4,1.3,0.6,1.4,1.1c0.2,1.1-0.6,1.4-1.4,1.3c-0.5-0.1-1.1-0.6-1.1-1.1
	C289.2,458.2,290,457.8,290.3,457.4z"/>
<path class="st112" d="M434.1,170.1c0.8,0.7,1.4,0.9,1.5,1.4c0.1,0.7,0,1.7-0.4,2c-0.9,0.7-1.3-0.1-1.4-0.9
	C433.8,171.9,433.9,171.3,434.1,170.1z"/>
<path class="st17" d="M270.8,144.8c0.9,0.4,2.1,0.1,2.6,1.3c-0.9,0.1-1.9,0.2-3,0.5c-0.7,0.1-1.8,0.6-1.8-0.6
	C268.6,144.6,270.1,145.2,270.8,144.8z"/>
<path class="st113" d="M455.2,138.1c0.2,0.8,0.6,1.5,0.8,2.4c-1.9,0.2-3.2-1.2-4.7-1.9C452.5,137.3,453.9,138,455.2,138.1z"/>
<path class="st67" d="M328.5,227.2c-2,1.9-3.9,1.5-5.9,0C324.7,227.2,326.7,227.2,328.5,227.2z"/>
<path class="st39" d="M318.8,233.4c-0.5,0.5-0.9,0.8-1.4,1.3c-0.9-0.2-2.5-0.6-2-1.5C316.4,231.1,317.6,233.5,318.8,233.4z"/>
<path class="st114" d="M436.3,296.1c0.4,0.5,0.8,0.8,1.2,1.3c-1.9,0.6-3.9,0.5-5.8-0.1c-0.1-2.4,1.4-1.3,2.5-1.2
	C434.9,296.1,435.6,296.1,436.3,296.1z"/>
<path class="st27" d="M434.2,296.1c-0.8,0.4-1.7,0.8-2.5,1.2c-0.5,0-0.9,0-1.4,0c-0.5-0.4-0.8-0.7-1.3-1.1c-0.5-0.4-0.5-0.7,0-0.9
	C430.9,295,432.6,295,434.2,296.1z"/>
<path class="st115" d="M431.6,287.9c0.5,0.4,0.8,0.7,1.3,1.2c-1.1,0.9-2.4,1.3-3.9,0.9C429,288.2,430.5,288.4,431.6,287.9z"/>
<path class="st49" d="M413.2,161.4c1.3,0.5,1.4,1.7,1.5,2.7c-2.1,2.8-2.2,2.8-1.9,0.2C413,163.4,413,162.4,413.2,161.4z"/>
<path class="st116" d="M429,295.3v0.5v0.5c-2-0.2-4.1,0.6-5.9-0.9C425,295.3,427,295.3,429,295.3z"/>
<path class="st117" d="M397.7,151.5c0.5-0.8,0.2-2.2,1.4-2.2c0.5,0,1.3,1.1,1.3,1.5c0,0.6-0.7,1.4-1.3,1.7
	C398.5,152.8,397.5,152.8,397.7,151.5z"/>
<path class="st118" d="M394.8,111.7c0-0.2,0-0.5-0.1-0.7c2.1,0,4.4-1.2,6.3,0.7C398.8,111.7,396.8,111.7,394.8,111.7z"/>
<path class="st47" d="M406.6,254.7c2.4-0.8,3.8-1.5,5.5-0.4C410.6,256,409,255.7,406.6,254.7z"/>
<path class="st119" d="M410.2,244.3c-1.3,0.4-2.6,0.8-3.8,1.2c-0.2,0.1-0.6,0.1-0.8,0.1c-0.5-0.5-0.9-0.9-1.4-1.3
	C406.2,244.2,408.2,244.2,410.2,244.3z"/>
<path class="st120" d="M358.2,285.2c0.5,0,1.1,0,1.5,0c-0.5,1.5-1.9,3.7-3,2.8C355,286.8,357.3,286,358.2,285.2z"/>
<path class="st121" d="M352.6,178.7c1.2,0.2,1.7,1.1,1.7,2.1c0,0.5-0.6,1.4-0.8,1.4c-1.5-0.1-1.5-1.7-1.9-2.6
	C351.3,178.8,352,178.7,352.6,178.7z"/>
<path class="st122" d="M280.7,189c-0.6,1.4-1.7,2.1-3.5,2.1c-0.2-1.9,1.3-2.6,2.2-3.5C280.6,187.5,281.5,187.6,280.7,189z"/>
<path class="st123" d="M280.7,189c-0.5-0.5-0.8-0.9-1.3-1.4c0.2-0.7,0.5-1.4,0.7-2.1c0.1-0.6,0.2-1.2,0.5-1.8
	C283.1,185.4,282.2,187.2,280.7,189z"/>
<path class="st67" d="M377.5,193.1c0-0.4,0-0.8,0-1.2c2,0.1,4.1,0.2,6.1,0.4c0.5,0.4,0.6,0.7,0,1.1
	C381.5,193.2,379.5,193.1,377.5,193.1z"/>
<path class="st124" d="M383.7,193.2c0-0.4,0-0.7,0-1.1c1.2-0.5,2.5-0.9,3.7-1.4c0.5,0.5,0.8,0.8,1.3,1.3
	C387.2,193.6,385.4,193.6,383.7,193.2z"/>
<path class="st125" d="M298,342.1c0-0.4,0-0.7,0-1.1c1.8-0.4,3.5-0.1,5.3,0.6C301.5,342.3,299.8,342.4,298,342.1z"/>
<path class="st126" d="M314.3,354.6c-0.9,0.5-1.9,0.9-2.7,1.4c-0.8-0.1-1.7-0.1-2.4-0.2C310.3,352.6,312.5,354.6,314.3,354.6z"/>
<path class="st127" d="M371.4,397.9c1.1,0.4,2.1,0.7,3.7,1.2C373.2,400.1,372,399.9,371.4,397.9z"/>
<path class="st128" d="M315.8,293.3c1.9-0.7,3.3-1.1,3.8,0.2c0.5,1.3-0.8,0.7-1.4,0.6C317.6,294,317.1,293.8,315.8,293.3z"/>
<path class="st85" d="M332.7,285.1c-1.8,0.4-3.5,0.5-5.4-0.4c1.8-1.2,3.5-1.1,5.3-0.7C333.1,284.3,333.1,284.7,332.7,285.1z"/>
<path class="st129" d="M332.7,285.1c0-0.4,0-0.7-0.1-1.1c1.9-0.1,3.9-0.5,5.8,0.6C336.5,286,334.6,285.2,332.7,285.1z"/>
<path class="st0" d="M133.5,63.9c-2.7,0.5-5.4,0.9-9.7,1.8c2.8-3.1,5.3-2.2,7.3-2.8C132.2,62.2,133.4,61.7,133.5,63.9z"/>
<path class="st1" d="M134.7,61.5c0.8-0.6,1.7-1.2,2.6-1.7c1.1-0.6,2.6-1.4,3,0c0.4,1.3-1.4,1.7-2.6,1.9
	C136.6,62.3,135.6,62.5,134.7,61.5z"/>
<path class="st2" d="M134.7,61.5c0.9,0.1,2,0.1,3,0.2c-0.9,1.5-2.6,1.8-4.1,2.1c-0.8-0.4-1.7-0.7-2.4-1.1
	C132,61.7,133.3,61.6,134.7,61.5z"/>
<path class="st17" d="M92.6,106c2.7-0.5,5.4-1.1,8.3-1.3c1.7-0.1,4.4-1.2,4,2.4l0.1-0.1c-3.7,0.1-7.3,0.2-10.9,0.2
	C92.7,107.8,92.5,107.2,92.6,106z"/>
<path class="st50" d="M104.9,107.1c5.3,1.4,1.8,5.2,1.8,8c-0.6-2.7-1.1-5.4-1.7-8.1L104.9,107.1z"/>
<path class="st56" d="M71.5,107.9c2.7,0.6,5.9-0.4,9.1,2.8c-3.8-0.5-6.4-0.9-9.1-1.3C71.1,109,71.1,108.4,71.5,107.9z"/>
<path class="st58" d="M71.5,107.9c0,0.6,0,1.1,0,1.7c-2,0-4.1,0.5-5.7-1.8C67.8,106.6,69.7,106.7,71.5,107.9z"/>
<path class="st30" d="M87.4,111c1.7,0.6,3.5,0.7,4.8,2.8c-2.7,0.9-4.4-0.4-6.1-1.5C86.2,111.4,86.9,111.3,87.4,111z"/>
<path class="st67" d="M92.6,106c0.5,0.4,0.9,0.8,1.4,1.2c-2.8,1.1-5.3-0.1-8-1.2C88.2,106,90.5,106,92.6,106z"/>
<path class="st96" d="M87.4,111c-0.5,0.4-0.8,0.8-1.3,1.2c-1.4-0.4-3.3,0.2-4.4-2.2C84,110.4,85.6,110.7,87.4,111z"/>
<path class="st127" d="M98.3,115c1.1,0.4,2.1,0.7,3.7,1.2C100,117.2,98.8,117,98.3,115z"/>
</svg>
