<?xml version="1.0" encoding="utf-8"?>
<!-- Generator: Adobe Illustrator 23.0.1, SVG Export Plug-In . SVG Version: 6.00 Build 0)  -->
<svg version="1.1" id="Layer_1" xmlns="http://www.w3.org/2000/svg" xmlns:xlink="http://www.w3.org/1999/xlink" x="0px" y="0px"
	 viewBox="0 0 500 500" style="enable-background:new 0 0 500 500;" xml:space="preserve">
<style type="text/css">
	.st0{fill:#231F20;}
</style>
<path class="st0" d="M291,178.1v-21.4l-79.7-39.2V140l15.8,7.3v40.3l-15.8,7.3v22.5L291,178.1z M241.5,154l29,13.2l-0.2,0.2l0.2,0.2
	l-29,13.4V154z"/>
<path class="st0" d="M255.4,98.8c3.1,7.4,7.6,12.5,16.3,12.5c17.1,0,19.2-16.2,19.2-29.9V32.2h-79.7v55.5c0,15.1,6.2,27.9,23.2,27.9
	C245.3,115.7,253.1,109.2,255.4,98.8z M276.7,52.2v29.2c0,5.6-1.6,11.1-8.3,10.5c-6.2-0.4-8-5.1-8-10.5V52.2H276.7z M225.7,81.4
	V52.2h20.9v29.2c0,7.6-0.9,13.8-10.2,13.8C227.9,95.2,225.7,88.9,225.7,81.4z"/>
</svg>
