<?xml version="1.0" encoding="utf-8"?>
<!-- Generator: Adobe Illustrator 23.0.1, SVG Export Plug-In . SVG Version: 6.00 Build 0)  -->
<svg version="1.1" id="Layer_1" xmlns="http://www.w3.org/2000/svg" xmlns:xlink="http://www.w3.org/1999/xlink" x="0px" y="0px"
	 viewBox="0 0 500 500" style="enable-background:new 0 0 500 500;" xml:space="preserve">
<style type="text/css">
	.st0{fill:#231F20;}
</style>
<g>
	<polygon class="st0" points="209,228.4 240.6,251.8 209,275.2 209,299.7 258.2,261.8 288.7,261.8 288.7,241.8 258.2,241.8 
		209,203.9 	"/>
	<polygon class="st0" points="255.1,179.8 255.1,126.6 240.7,126.6 240.7,179.8 223.3,179.8 223.3,124.8 209,124.8 209,199.9 
		288.7,199.9 288.7,122.6 274.3,122.6 274.3,179.8 	"/>
	<path class="st0" d="M256.9,46.8c-2.7-12.7-10.2-20.7-24.1-20.7c-18.3,0-23.8,15.4-23.8,31v53.5h79.7v-20h-31.8v-23l31.8-20.9V23
		L256.9,46.8z M242.6,59.3v31.4h-19.2V59.3c0-6.5,1.8-12.9,9.6-12.9C240.7,46.4,242.6,52.9,242.6,59.3z"/>
</g>
</svg>
