<?xml version="1.0" encoding="utf-8"?>
<!-- Generator: Adobe Illustrator 23.0.1, SVG Export Plug-In . SVG Version: 6.00 Build 0)  -->
<svg version="1.1" id="Layer_1" xmlns="http://www.w3.org/2000/svg" xmlns:xlink="http://www.w3.org/1999/xlink" x="0px" y="0px"
	 viewBox="0 0 500 500" style="enable-background:new 0 0 500 500;" xml:space="preserve">
<style type="text/css">
	.st0{fill:#231F20;}
</style>
<path class="st0" d="M290.6,88c0-10.9-6.5-18.5-16.9-20.9c7.4-3.3,12.5-7.8,12.5-16.3c0-17.2-16.2-19.4-29.9-19.4h-49.2v79.8h55.5
	C277.8,111.2,290.6,105,290.6,88z M227.1,45.9h29.2c5.6,0,11.1,1.5,10.7,8.3c-0.5,6-5.3,7.8-10.7,7.8h-29.2V45.9z M227.1,96.7V76
	h29.2c7.6,0,14,0.9,14,10c0,8.5-6.4,10.7-14,10.7H227.1z"/>
<path class="st0" d="M238.4,120.1l-39.2,79.7h22.3l7.4-15.8h40.3l7.3,15.8h22.3l-39-79.7H238.4z M235.5,169.4l13.4-29l0.2,0.4v-0.4
	l13.4,29H235.5z"/>
<polygon class="st0" points="291.7,311.5 291.7,297.2 211,297.2 211,376.8 293.7,376.8 293.7,362.5 231.1,362.5 231.1,343.3 
	289.9,343.3 289.9,328.9 231.1,328.9 231.1,311.5 "/>
<path class="st0" d="M295.5,409.7c0-18.3-15.2-23.8-30.8-23.8H211v79.8h20.1V434H254l21.1,31.8h23.8L275,434
	C287.7,431.3,295.5,423.7,295.5,409.7z M262.3,419.5h-31.2v-19.1h31.2c6.5,0,12.9,1.8,12.9,9.6C275.2,417.7,268.9,419.5,262.3,419.5
	z"/>
</svg>
