<?xml version="1.0" encoding="utf-8"?>
<!-- Generator: Adobe Illustrator 23.0.1, SVG Export Plug-In . SVG Version: 6.00 Build 0)  -->
<svg version="1.1" id="Layer_1" xmlns="http://www.w3.org/2000/svg" xmlns:xlink="http://www.w3.org/1999/xlink" x="0px" y="0px"
	 viewBox="0 0 500 500" style="enable-background:new 0 0 500 500;" xml:space="preserve">
<style type="text/css">
	.st0{fill:none;stroke:#000000;stroke-width:2;stroke-miterlimit:10;}
</style>
<path class="st0" d="M245.1,96c7.1,1.1,7.1,6.5,7.1,11.8v2.9l-13.3-2.1c-0.8-0.1-1.4-0.8-1.4-1.6v-1.4c0-3.5,0-6.9,2-8.7
	C240.7,95.9,242.5,95.7,245.1,96L245.1,96z M226.5,98.3V118c0,1.4,0.9,2.5,2.4,2.7l50.8,8c1.1,0.1,1.9-0.6,1.9-1.6v-10
	c0-0.9-0.7-1.8-1.6-1.9l-14.3-2.2c-1.3-0.2-2.4-1.4-2.4-2.7V104c0-13.1-6.4-20.6-18.8-22.6c-5.5-0.9-9.8,0-12.8,2.5
	C228.2,86.7,226.5,91.7,226.5,98.3L226.5,98.3z"/>
<path d="M245.1,237.2c7.1,1.1,7.1,6.5,7.1,11.8v2.9l-13.3-2.1c-0.8-0.1-1.4-0.8-1.4-1.6v-1.4c0-3.5,0-6.9,2-8.7
	C240.7,237.2,242.5,236.8,245.1,237.2L245.1,237.2z M226.5,239.5v19.8c0,1.4,0.9,2.5,2.4,2.7l50.8,8c1.1,0.1,1.9-0.6,1.9-1.6V259
	c0-1.4-0.9-2.5-2.4-2.7l-13.6-2.1c-1.3-0.2-2.4-1.4-2.4-2.7v-6.2c0-13.1-6.4-20.6-18.8-22.6c-5.5-0.9-9.8,0-12.8,2.5
	C228.2,227.9,226.5,232.9,226.5,239.5L226.5,239.5z"/>
<path d="M263.2,193.5c5.4,0.9,9.1,5.2,9.1,10.7c0,2.7-0.9,4.9-2.6,6.4c-1.6,1.4-4,1.9-6.7,1.5c-5.4-0.8-9.2-5.2-9.2-10.6
	c0-2.7,0.9-4.8,2.6-6.4C258.2,193.7,260.6,193.2,263.2,193.5L263.2,193.5z M244.8,180.4v9.5c0,0.8,0.6,1.5,1.4,1.6l2.7,0.5l-0.9,0.7
	c-2.9,2-4,6.6-4,11.2c0,10.5,7.9,19.4,19.1,21.2c5.5,0.9,10.8-0.4,14.6-3.5c3.4-2.9,4.8-7.1,4.8-12c0-8.5-5.4-13.2-5.4-13.2l2.6,0.5
	c1.1,0.1,1.9-0.6,1.9-1.6v-8.6c0-1.4-0.9-2.5-2.4-2.7l-32.5-5.2C245.6,178.6,244.8,179.3,244.8,180.4L244.8,180.4z"/>
<path class="st0" d="M263.2,52.4c5.4,0.9,9.1,5.2,9.1,10.7c0,2.7-0.9,4.9-2.6,6.4c-1.6,1.4-4,1.9-6.7,1.5c-5.4-0.8-9.2-5.2-9.2-10.6
	c0-2.7,0.9-4.8,2.6-6.4C258.2,52.5,260.6,51.9,263.2,52.4L263.2,52.4z M244.8,39.1v9.5c0,0.8,0.6,1.5,1.4,1.6l2.7,0.5l-0.9,0.7
	c-2.9,2-4,6.6-4,11.2c0,10.5,7.9,19.4,19.1,21.2c5.5,0.9,10.8-0.4,14.6-3.5c3.4-2.9,4.8-7.1,4.8-12c0-8.5-5.4-13.2-5.4-13.2l2.6,0.5
	c1.1,0.1,1.9-0.6,1.9-1.6v-8.6c0-1.4-0.9-2.5-2.4-2.7l-32.5-5.2C245.6,37.3,244.8,38.2,244.8,39.1L244.8,39.1z"/>
<path d="M244.8,129.8v9.5c0,0.9,0.5,1.8,1.2,2.2l19.4,13.2l-18.6,5.5c-1.2,0.4-2,1.4-2,2.6v9.4c0,1.2,1.1,1.9,2.2,1.5l30.8-10.5
	l13.9,9.9c1.1,0.8,2.6,0,2.6-1.3v-9.5c0-0.9-0.5-1.8-1.2-2.2l-45.8-31.6C246.2,127.8,244.8,128.5,244.8,129.8L244.8,129.8z"/>
<path class="st0" d="M227.9,27.9l51.6,8.1c1.1,0.1,1.9-0.6,1.9-1.6v-8.1c0-1.4-0.9-2.5-2.4-2.7l-50.8-8c-1.1-0.1-1.9,0.6-1.9,1.6
	v9.2C226.5,27.1,227.1,27.8,227.9,27.9L227.9,27.9z"/>
</svg>
