<?xml version="1.0" encoding="utf-8"?>
<!-- Generator: Adobe Illustrator 23.0.1, SVG Export Plug-In . SVG Version: 6.00 Build 0)  -->
<svg version="1.1" id="Layer_1" xmlns="http://www.w3.org/2000/svg" xmlns:xlink="http://www.w3.org/1999/xlink" x="0px" y="0px"
	 viewBox="0 0 500 500" style="enable-background:new 0 0 500 500;" xml:space="preserve">
<style type="text/css">
	.st0{fill:none;stroke:#000000;stroke-width:2;stroke-miterlimit:10;}
</style>
<path class="st0" d="M362.7,89.8c-2-2.2-4.5-4.1-7.3-5.6c-1.6-0.9-3.5-1.6-5.5-2.4c-0.5-0.1-1.1-0.4-1.5-0.5
	c-1.1-0.4-2.1-0.6-3.2-0.8c-1.1-0.2-2.2-0.5-3.4-0.6c-4-0.7-8.5-0.9-13.2-0.9h-40c-0.9,0-1.9,0.2-2.7,0.6c-1.9,0.9-3.2,2.6-3.5,4.8
	l-8.5,54l-7.9,50.2l-2.1,13.8c-0.4,2.4,1.4,4.5,3.8,4.5h26.6c3.2,0,5.8-2.2,6.4-5.4l0.2-1.3l5.1-31.8l0.4-1.8
	c0.5-3.1,3.2-5.4,6.4-5.4h4c25.8,0,45.9-10.5,51.8-40.7C370.4,107.8,369.1,97.2,362.7,89.8z"/>
</svg>
