<?xml version="1.0" encoding="utf-8"?>
<!-- Generator: Adobe Illustrator 23.0.1, SVG Export Plug-In . SVG Version: 6.00 Build 0)  -->
<svg version="1.1" id="Layer_1" xmlns="http://www.w3.org/2000/svg" xmlns:xlink="http://www.w3.org/1999/xlink" x="0px" y="0px"
	 viewBox="0 0 500 500" style="enable-background:new 0 0 500 500;" xml:space="preserve">
<style type="text/css">
	.st0{fill-rule:evenodd;clip-rule:evenodd;}
</style>
<g>
	<path class="st0" d="M324.1,54.9c0,0,0.1-0.1,0.1-0.2c2.7-5.1,8-8.5,14-8.5c8.7,0,15.9,7.3,15.9,16.4c0,9-7.2,16.4-15.9,16.4
		c-6.1,0-11.4-3.5-14-8.7c-0.1-0.1-0.1-0.1-0.2-0.3c0,0,5.1-3.7,5.1-3.6c0,0.1,0,0.2,0.1,0.2c1.5,3.7,5,6.1,9,6
		c5.4,0,9.8-4.5,9.8-10c0-5.6-4.4-10-9.8-10c-3.9,0-7.3,2.4-8.8,5.8c-0.1,0.1-0.1,0.2-0.1,0.3L324.1,54.9L324.1,54.9z"/>
	<polygon class="st0" points="317.5,78.5 311.4,78.5 311.4,67.1 295.3,67.1 295.3,78.5 289.1,78.5 289.1,46.7 295.3,46.7 
		295.3,60.7 311.4,60.7 311.4,46.7 317.5,46.7 317.5,78.5 317.5,78.5 	"/>
	<polygon class="st0" points="202.6,46.7 202.6,78.5 180.4,78.5 180.4,72.1 196.4,72.1 196.4,65.7 181.6,65.7 181.6,59.4 
		196.4,59.4 196.4,53 178.1,53 178.1,46.7 202.6,46.7 	"/>
	<polygon class="st0" points="169.4,46.7 169.4,78.5 163.2,78.5 163.2,53 145.9,53 145.9,46.7 169.4,46.7 169.4,46.7 	"/>
	<polygon class="st0" points="236,46.7 236.2,46.7 242.3,46.7 242.3,78.5 241.8,78.5 233.6,78.5 220,59.4 220,78.5 213.8,78.5 
		213.8,46.7 218.7,46.7 236,70.7 236,46.7 236,46.7 	"/>
	<path class="st0" d="M265.7,72.1l5.4-12.7H260L265.7,72.1L265.7,72.1z M273.9,53l2.8-6.3h7.4L270,78.5h-8.6l-14.2-31.8h7.4l2.9,6.3
		H273.9L273.9,53z"/>
</g>
</svg>
