<?xml version="1.0" encoding="utf-8"?>
<!-- Generator: Adobe Illustrator 23.0.1, SVG Export Plug-In . SVG Version: 6.00 Build 0)  -->
<svg version="1.1" id="Layer_1" xmlns="http://www.w3.org/2000/svg" xmlns:xlink="http://www.w3.org/1999/xlink" x="0px" y="0px"
	 viewBox="0 0 500 500" style="enable-background:new 0 0 500 500;" xml:space="preserve">
<style type="text/css">
	.st0{fill:none;stroke:#000000;stroke-width:3;stroke-miterlimit:10;}
</style>
<g>
	
		<ellipse transform="matrix(0.1639 -0.9865 0.9865 0.1639 96.8244 347.6085)" class="st0" cx="253.5" cy="116.7" rx="8.7" ry="6.2"/>
	<polyline class="st0" points="253.5,143.3 264.6,141.4 273.2,134.5 275.4,130.4 276.2,126 281.6,130 285.6,136.6 292.5,141.5 
		300.3,140.5 303.9,130.5 303.1,122.3 298.2,118.5 292.5,114.3 286.3,111.5 278.8,112.1 278.3,108.7 278.7,103.3 275.3,94.2 
		271.5,91.7 270.8,86.8 272.2,75 271.4,64.1 266.5,53.1 264.4,51.1 260.1,50.5 	"/>
	<polyline class="st0" points="262.9,86.6 263.3,70.6 262.7,60.5 258.7,47.3 256.3,42.9 250.6,42 248.1,42.9 247.2,47.5 	"/>
	<polyline class="st0" points="252.2,86.1 253.4,77.1 252,62.2 251,52.2 244.7,45.3 239.6,47.1 234.2,54.1 233.3,67.8 231.7,89.6 
		227.1,97.1 223.8,104.1 223.4,120.5 231.4,135 236.9,140.5 244.8,141.8 	"/>
	<polyline class="st0" points="235.3,140.3 234.1,147.2 239.2,150 247.7,151.5 254.8,151 256.9,150.9 263.5,147.8 264.6,141.4 	"/>
	<path d="M238.1,149.5l-1.2,7.4l-2.9,17l-0.5,22.5l-0.2,14.5l3.6,31.9c0,0,1.7,8.5,3,11.2c1.9,3.7,2.9,5.5,9.8,6.5
		c5.2,0.8,9.5-3.2,10.7-6c1.2-2.9,0.7-9-0.5-11.4s-5-9.4-5-9.4L250,215l-1.9-13.3l2.5-30.4l2.7-16.2l1.7-4.2"/>
</g>
</svg>
