<?xml version="1.0" encoding="utf-8"?>
<!-- Generator: Adobe Illustrator 23.0.1, SVG Export Plug-In . SVG Version: 6.00 Build 0)  -->
<svg version="1.1" id="Layer_1" xmlns="http://www.w3.org/2000/svg" xmlns:xlink="http://www.w3.org/1999/xlink" x="0px" y="0px"
	 viewBox="0 0 500 500" style="enable-background:new 0 0 500 500;" xml:space="preserve">
<g>
	<path d="M259,220.5c-0.2-10.1-0.9-20-2-29.9c-1-9.9-2.4-19.7-4-29.5s-3.5-19.5-5.7-29.1c-0.6-2.4-1.2-4.8-1.8-7.2
		c-0.6-2.4-1.1-4.8-1.5-7.2c-0.9-4.8-1.6-9.6-2.1-14.5c-0.5-4.5-0.8-9.1-1-13.7c-0.9-32,4.8-62.9,10.1-73l-1.1-0.6l0,0l0,0l-1-0.5
		c-7.4,14.2-15.7,68-6.3,109.9c0.2,0.7,0.3,1.5,0.5,2.3c0.3,1.7,0.6,3.5,0.9,5.2c1.5,9.7,2.6,19.4,3.5,29.2s1.5,19.5,1.8,29.3
		s0.3,19.5-0.2,29.2c-0.3,4.8-0.7,9.6-1.4,14.2c-0.4,2.3-0.8,4.6-1.3,6.8s-1.2,4.2-2,5.9c-0.1,0.1-0.1,0.3-0.2,0.4
		c-1.2,3.1,0.4,6.5,3.5,7.7c3.1,1.2,6.5-0.4,7.7-3.5l0,0c1.1-2.9,1.7-5.6,2.1-8.2c0.5-2.7,0.7-5.2,0.9-7.8
		C259,230.6,259.1,225.6,259,220.5z"/>
</g>
</svg>
