<?xml version="1.0" encoding="utf-8"?>
<!-- Generator: Adobe Illustrator 23.0.1, SVG Export Plug-In . SVG Version: 6.00 Build 0)  -->
<svg version="1.1" id="Layer_1" xmlns="http://www.w3.org/2000/svg" xmlns:xlink="http://www.w3.org/1999/xlink" x="0px" y="0px"
	 viewBox="0 0 500 500" style="enable-background:new 0 0 500 500;" xml:space="preserve">
<g>
	<path d="M267.1,250c0-8.9-6.8-16.2-15.5-17l-0.5-216.8h-2.3L248.5,233c-8.7,0.8-15.5,8.1-15.5,17c0,8.9,6.8,16.2,15.5,17l-0.1,44.9
		c-2.5,4.3-3.8,9-3.8,14c0,6.1,2,11.7,5.6,16.8c3.6-5,5.6-10.7,5.6-16.8c0-5-1.3-9.6-3.8-14l-0.1-44.9
		C260.4,266.2,267.1,258.9,267.1,250z"/>
</g>
</svg>
