<?xml version="1.0" encoding="utf-8"?>
<!-- Generator: Adobe Illustrator 23.0.1, SVG Export Plug-In . SVG Version: 6.00 Build 0)  -->
<svg version="1.1" id="Layer_1" xmlns="http://www.w3.org/2000/svg" xmlns:xlink="http://www.w3.org/1999/xlink" x="0px" y="0px"
	 viewBox="0 0 500 500" style="enable-background:new 0 0 500 500;" xml:space="preserve">
<g>
	<path d="M250,2c33.5,0,66,6.6,96.5,19.5c29.5,12.5,56.1,30.4,78.8,53.1c22.8,22.8,40.7,49.3,53.1,78.8C491.4,184,498,216.5,498,250
		s-6.6,66-19.5,96.5c-12.5,29.5-30.4,56.1-53.1,78.8c-22.8,22.8-49.3,40.7-78.8,53.1C316,491.4,283.5,498,250,498s-66-6.6-96.5-19.5
		c-29.5-12.5-56.1-30.4-78.8-53.1c-22.8-22.8-40.7-49.3-53.1-78.8C8.6,316,2,283.5,2,250s6.6-66,19.5-96.5
		C34,123.9,51.9,97.4,74.6,74.6c22.8-22.8,49.3-40.7,78.8-53.1C184,8.6,216.5,2,250,2 M250,0C111.9,0,0,111.9,0,250
		s111.9,250,250,250s250-111.9,250-250S388.1,0,250,0L250,0z"/>
</g>
</svg>
