<?xml version="1.0" encoding="utf-8"?>
<!-- Generator: Adobe Illustrator 23.0.1, SVG Export Plug-In . SVG Version: 6.00 Build 0)  -->
<svg version="1.1" id="Layer_1" xmlns="http://www.w3.org/2000/svg" xmlns:xlink="http://www.w3.org/1999/xlink" x="0px" y="0px"
	 viewBox="0 0 50 50" style="enable-background:new 0 0 50 50;" xml:space="preserve">
<title>close</title>
<path d="M42.8,45.8c-0.9,0-1.7-0.4-2.3-1l-35-35c-1.3-1.3-1.3-3.3,0-4.6s3.3-1.3,4.6,0l35,35c1.3,1.3,1.3,3.3,0,4.6
	C44.4,45.4,43.6,45.7,42.8,45.8L42.8,45.8z"/>
<path d="M7.8,45.8c-1.8,0-3.3-1.5-3.2-3.3c0-0.9,0.3-1.7,0.9-2.3l35-35c1.3-1.3,3.3-1.3,4.6,0c1.3,1.3,1.3,3.3,0,4.6l0,0l-35,35
	C9.4,45.4,8.6,45.8,7.8,45.8z"/>
</svg>
