<?xml version="1.0" encoding="utf-8"?>
<!-- Generator: Adobe Illustrator 23.0.1, SVG Export Plug-In . SVG Version: 6.00 Build 0)  -->
<svg version="1.1" id="Layer_1" xmlns="http://www.w3.org/2000/svg" xmlns:xlink="http://www.w3.org/1999/xlink" x="0px" y="0px"
	 viewBox="0 0 50 50" style="enable-background:new 0 0 50 50;" xml:space="preserve">
<title>close</title>
<path d="M45,11.4H5.5c-1.6,0-2.9-1.3-2.9-2.9c0-1.6,1.3-2.9,2.9-2.9H45c1.6,0,2.9,1.3,2.9,2.9C47.9,10.1,46.6,11.4,45,11.4z"/>
<path d="M45,27.9H5.5c-1.6,0-2.9-1.3-2.9-2.9c0-1.6,1.3-2.9,2.9-2.9H45c1.6,0,2.9,1.3,2.9,2.9C47.9,26.6,46.6,27.9,45,27.9z"/>
<path d="M45,44.4H5.5c-1.6,0-2.9-1.3-2.9-2.9c0-1.6,1.3-2.9,2.9-2.9H45c1.6,0,2.9,1.3,2.9,2.9C47.9,43.1,46.6,44.4,45,44.4z"/>
</svg>
