<?xml version="1.0" encoding="utf-8"?>
<!-- Generator: Adobe Illustrator 23.0.1, SVG Export Plug-In . SVG Version: 6.00 Build 0)  -->
<svg version="1.1" id="Layer_1" xmlns="http://www.w3.org/2000/svg" xmlns:xlink="http://www.w3.org/1999/xlink" x="0px" y="0px"
	 viewBox="0 0 500 500" style="enable-background:new 0 0 500 500;" xml:space="preserve">
<path d="M240.8,217.3c0-3.6,0.4-7,0.7-10.2c0.4-2.7,0.6-5.2,0.6-7.7c0.1-3.8-0.5-7.6-0.6-11.7c0-2.4,0.5-4.8,0.5-7.3
	c0-2.4-0.5-4.8-0.5-7.3c0.1-2.4,0.5-4.8,0.7-7.1c0.2-2,0.7-3.9,1.1-5.8c0.6-2.6,1-4.9,0.6-6.5c-0.1-0.4-0.4-1.1-0.6-1.5
	c-0.5-1.2-0.7-2.3-1-3.5c-0.7-3.6-0.8-7-0.7-10c0-0.5,0.1-1.1,0.1-1.5c0-2.5,0.1-4.9,0.1-7.4c0-2.5,0.1-4.9,0.1-7.4
	c0-2.5-0.4-5-0.4-7.4c0-3.7,0-7.6,0-11.3c3.5-1.7,3.9,0.2,7.7,0.2s4-1.4,7.5,0.2c0,3.7-0.1,7.1-0.1,10.8c0,2.5,0.2,4.9,0.2,7.4
	c0,2.5,0.1,5,0.1,7.4c0,2.5-0.4,5-0.4,7.4c0,0.6,0.2,1.1,0.2,1.7c0,2.5-0.1,4.5,0.2,6.4c0.1,0.2,0.1,0.7,0.2,1.1
	c0.5,1.3,1.5,2.6,1.9,4.2c0.5,2.4,0,4.6-0.1,6.8c-0.2,2.4-0.6,4.6-1.1,6.7c-0.4,1.4-0.5,2.9-0.7,4c-0.4,3.2-1,6.4-1,9.8
	c0,3.2,0.4,6.4,0.4,9.8c0.1,4,0.2,8.2,0.1,12.3c-0.1,3.1-0.6,6.1-1,8.9c-0.4,3-0.5,5.8-0.5,8.6c0,0.1-0.1,0.1-0.1,0.2
	c0,1.1,0.4,2.3,0.6,3.7c0.5,2,0.8,5,0.7,8c-3.6,1.2-3.9-0.7-7.7-1s-3.9,0.7-7.6,0c0-1-0.4-2.4-0.7-3.9c-0.4-1.8-0.8-4.2-1-6.7
	C240.2,217.5,240.8,217.4,240.8,217.3z"/>
</svg>
