<?xml version="1.0" encoding="utf-8"?>
<!-- Generator: Adobe Illustrator 23.0.1, SVG Export Plug-In . SVG Version: 6.00 Build 0)  -->
<svg version="1.1" id="Layer_1" xmlns="http://www.w3.org/2000/svg" xmlns:xlink="http://www.w3.org/1999/xlink" x="0px" y="0px"
	 viewBox="0 0 500 500" style="enable-background:new 0 0 500 500;" xml:space="preserve">
<path d="M261.7,230.8c-3.7,0.8-3.7,0.1-7.5,0.1c-3.8,0-3.8,0.6-7.5-0.1c0-1.5-0.4-2.9-0.4-4.4c0-2.9,0.1-5.8,0.1-8.8
	c0-2.4-0.4-3.9-1-6.2c-0.4-1.4-1.2-3.1-1.5-5.1c-0.4-1.9-0.2-4.5-0.2-7c0-2.5,0.8-5,1.2-6.8c0.5-2.6,0.8-4.6,1.4-5.7
	c0.1-0.1,1,0,1-0.1c0.4-2.4-0.5-5-1-7.7c-0.5-2.4-1.2-4.9-1.9-7.4c-0.6-2.4-1.1-4.8-1.5-7.1c-0.5-2.4-1.1-4.8-1.2-7.3
	c-0.1-2.4,0.5-4.9,0.5-7.3c0-2.4-0.5-4.9-0.4-7.3c0-2.4,0.5-4.9,0.6-7.3c0-2,0.5-4,0.5-6.2c-0.1-3-1.3-6.1-1.2-9.3
	c0.1-3,1.4-5.9,1.9-9c0.5-2.5-0.6-4.9-0.6-7.3c-0.1-2.4-0.2-4.6-0.5-7.1c-0.2-2.5-0.5-5.2-0.6-8.1c-0.1-2.5,0.5-5,0.7-7.5
	c0.2-2.9,0.5-5.8,0-8c-0.1-0.8,0-1.8-0.4-2.9c-0.6-1.8-2.1-3.7-2.5-6.5c-0.2-2.1,0.4-4.5,0.1-6.7c-0.2-2.3-0.6-4.4-1-6.5
	c-0.4-2.6-1.3-5.1-1.7-7.7s-0.8-5.1-1.2-7.7c-0.2-2.6,0.4-5.2,0.2-7.9c-0.1-2.6-0.6-5.4-0.6-8.1c3.6-1.3,3.9-0.1,7.6-0.1
	c3.7,0,4.2-1.4,7.6,0.1c0,3.3,0.5,6.7,0.7,10c0.2,3.2,0.6,6.5,1,9.8c0.4,3.2,0.4,6.5,0.8,9.9c0.2,2.3,1,4.4,1.2,6.7
	c0.2,2.3,0.2,4.5,0.5,6.8c0.1,1.1,1,1.8,1.4,3.1c0.5,1.3,1,3,1.3,4.9c0.8,4-0.7,8.3-1,12c-0.1,2.1,0,4.2,0,5.7
	c0.1,2.5,1.2,4.9,1.4,7.1c0.2,3-0.5,6.1-0.5,9.3c0,2.9,0.8,5.9,0.2,9.3c-0.5,2.5-0.8,5-0.8,7.6c0,2.5,0.5,5.1,0.5,7.7
	c0,2.1,0.2,4.4,0.2,6.5c0,2.5-0.1,5-0.1,7.5c0,2.3-1.1,4.5-1.1,6.8c0,2.3,0.4,4.5,0.5,6.8c0.1,3.3,1.3,7.1,2.4,11.1
	c0.6,2.4,1.3,4.8,1.8,7.3c0.5,2.4,1,4.9,1.1,7.5c0.1,2.4-0.7,4.9-1.2,7.4c-0.5,2.1-0.5,4-1.1,5.1c-0.2,0.4-0.7,0.6-0.7,0.7
	c-0.4,1.8-0.8,6.4-0.5,8.3c0.2,1.4,1.1,2.5,1.4,3.8c0.7,2.7,1.8,5.8,1.7,10.4c0,2.9-0.4,5.8-0.4,8.7
	C261.8,227.9,261.7,229.2,261.7,230.8z"/>
</svg>
