<?xml version="1.0" encoding="utf-8"?>
<!-- Generator: Adobe Illustrator 23.0.1, SVG Export Plug-In . SVG Version: 6.00 Build 0)  -->
<svg version="1.1" id="Layer_1" xmlns="http://www.w3.org/2000/svg" xmlns:xlink="http://www.w3.org/1999/xlink" x="0px" y="0px"
	 viewBox="0 0 500 500" style="enable-background:new 0 0 500 500;" xml:space="preserve">
<path d="M251,22.9c1.2,3.1,2.5,6.7,3.1,9.9c0.6,3.2,0.7,6.7,0.7,10c0,3.3-0.5,6.7-0.8,10c-0.4,3.3-0.6,6.7-1.2,9.9
	c-0.6,3.3-1.7,6.4-2.4,9.5c-0.7,3.6-0.1,7.1,0.2,10.7c0.4,3.5,1,7,1.8,10.5c0.8,4,1.4,8.1,1.9,12.4c0.4,3.9,0.7,8.1-0.2,12.6
	c-0.6,3.1-1.2,6.2-1.8,9.3c-0.6,3.2-1.8,6.1-2,9.3c-0.2,2.6-0.2,5.4-0.2,8s0.4,5.4,0.5,8c0.1,5.1,0.4,5.1,0.5,10.4
	c0.1,5.1-0.4,5.2-0.2,10.4c0.1,5.1,0.5,5.1,0.6,10.4c0.1,5.1,0,5.1,0.1,10.4c0.1,5.1,0.1,5.1,0.2,10.4c0.1,5.1,0.5,5.1,0.6,10.4
	c0.1,5.1,1.3,10.5,0.4,10.5c-2.7-0.1-4.8,1.8-5.9-0.1c-1.3-2.1-0.6-4.8-0.7-10c-0.1-5.1-0.5-5.1-0.6-10.4c-0.1-5.1,0.4-5.2,0.1-10.4
	c-0.1-5.1-0.5-5.1-0.6-10.4c-0.1-5.1,0.4-5.2,0.2-10.4s0.1-5.2,0-10.4s-0.7-5.1-0.8-10.4c-0.1-2.7,0.4-5.7,0.4-8.4s-0.4-5.7-0.1-8.4
	c0.2-3.3,1.1-6.7,1.7-9.9c0.6-3.3,1.1-6.7,1.8-9.9c0.7-3.6,1.2-7.1,0.8-10.6c-0.4-3.5-1.9-6.7-2.6-10.4c-0.8-4-1.7-8.1-2-12.5
	c-0.4-3.9-0.2-8.2,0.7-12.6c0.7-3.6,1.5-7.3,2.1-10.8c0.6-3.8,1.5-7.4,1.8-11.1c0.2-3.8-0.4-7.5-0.8-11.2c-0.5-3.8-1.4-7.4-2.7-10.8
	C245.6,22.8,247.9,23.2,251,22.9z"/>
</svg>
