<?xml version="1.0" encoding="utf-8"?>
<!-- Generator: Adobe Illustrator 23.0.1, SVG Export Plug-In . SVG Version: 6.00 Build 0)  -->
<svg version="1.1" id="Layer_1" xmlns="http://www.w3.org/2000/svg" xmlns:xlink="http://www.w3.org/1999/xlink" x="0px" y="0px"
	 viewBox="0 0 500 500" style="enable-background:new 0 0 500 500;" xml:space="preserve">
<style type="text/css">
	.st0{fill:#FFFFFF;stroke:#000000;stroke-width:2;stroke-miterlimit:10;}
	.st1{fill:none;}
	.st2{stroke:#000000;stroke-width:2;stroke-miterlimit:10;}
	.st3{fill:none;stroke:#000000;stroke-width:2;stroke-miterlimit:10;}
</style>
<path class="st0" d="M250,249"/>
<path class="st1" d="M252.7,252l0-6.1l-5.3,2.9C249.7,247.6,252.7,249.3,252.7,252z"/>
<g>
	<path class="st2" d="M264.8,99.5c-3.5-17.2-8.4-31.6-14.6-40c0,0-20.6,26.2-24.8,80.8c-0.1,1.7-0.3,3.4-0.4,5
		C235.6,123.3,252.2,108.3,264.8,99.5z"/>
	<path class="st3" d="M271.4,171.6c1.7-24.5-1.9-49.3-6.6-72.1c-12.5,8.8-29.2,23.8-39.7,45.8c-5.1,60.5,25.9,103.9,25.9,103.9
		S269,205.8,271.4,171.6z"/>
</g>
</svg>
