<?xml version="1.0" encoding="utf-8"?>
<!-- Generator: Adobe Illustrator 23.0.1, SVG Export Plug-In . SVG Version: 6.00 Build 0)  -->
<svg version="1.1" id="Layer_1" xmlns="http://www.w3.org/2000/svg" xmlns:xlink="http://www.w3.org/1999/xlink" x="0px" y="0px"
	 viewBox="0 0 500 500" style="enable-background:new 0 0 500 500;" xml:space="preserve">
<style type="text/css">
	.st0{fill:#FFFFFF;stroke:#000000;stroke-width:2;stroke-miterlimit:10;}
	.st1{fill:none;}
	.st2{stroke:#000000;stroke-width:2;stroke-miterlimit:10;}
	.st3{fill:none;stroke:#000000;stroke-width:2;stroke-miterlimit:10;}
</style>
<path class="st0" d="M250,249"/>
<path class="st1" d="M252.7,252v-6.2l-5.4,2.9C249.7,247.5,252.7,249.3,252.7,252z"/>
<g>
	<path class="st2" d="M248.9,17c0,0-11.3,16.2-19.8,49.8c12.8,9.3,35,27.6,50.9,53.9C275.4,68.1,248.9,17,248.9,17z"/>
	<path class="st3" d="M219.7,132.6c-3.4,78.8,31,116.8,31,116.8s23.7-41.2,29.2-101.5c0.8-8.9,0.7-18.2-0.1-27.3
		c-16-26.3-38-44.6-50.9-53.9C224.6,84,220.9,105.9,219.7,132.6z"/>
</g>
</svg>
