<?xml version="1.0" encoding="utf-8"?>
<!-- Generator: Adobe Illustrator 23.0.1, SVG Export Plug-In . SVG Version: 6.00 Build 0)  -->
<svg version="1.1" id="Layer_1" xmlns="http://www.w3.org/2000/svg" xmlns:xlink="http://www.w3.org/1999/xlink" x="0px" y="0px"
	 viewBox="0 0 500 500" style="enable-background:new 0 0 500 500;" xml:space="preserve">
<style type="text/css">
	.st0{stroke:#000000;stroke-width:2;stroke-miterlimit:10;}
	.st1{fill:none;stroke:#000000;stroke-width:2;stroke-miterlimit:10;}
	.st2{fill:#FFFFFF;stroke:#000000;stroke-width:2;stroke-miterlimit:10;}
	.st3{fill:none;}
</style>
<g>
	<polygon class="st0" points="256.8,185.8 260.1,192.7 254,189.1 256.5,195.9 247.9,190.8 252.1,200.6 253.2,201.7 240.1,218.3 
		256.8,232.6 243,252.1 248.9,257.3 272.1,233.9 256.9,219.2 274.6,198.7 262.1,184.5 262.9,190.3 	"/>
	<polygon class="st1" points="276.7,153.9 249.1,125 311.3,63.9 250.4,15.7 186.5,118.1 249.7,154.8 228.3,177.5 252.1,200.6 
		247.9,190.8 256.5,195.9 254,189.1 260.1,192.7 256.8,185.8 262.9,190.3 262.1,184.5 254.5,175.7 	"/>
</g>
<path class="st2" d="M250,249"/>
<path class="st3" d="M252.7,252l0-6.1l-5.3,2.9C249.7,247.6,252.7,249.3,252.7,252z"/>
</svg>
