<?xml version="1.0" encoding="utf-8"?>
<!-- Generator: Adobe Illustrator 23.0.1, SVG Export Plug-In . SVG Version: 6.00 Build 0)  -->
<svg version="1.1" id="Layer_1" xmlns="http://www.w3.org/2000/svg" xmlns:xlink="http://www.w3.org/1999/xlink" x="0px" y="0px"
	 viewBox="0 0 500 500" style="enable-background:new 0 0 500 500;" xml:space="preserve">
<style type="text/css">
	.st0{fill:#FFFFFF;stroke:#000000;stroke-width:2;stroke-miterlimit:10;}
	.st1{fill:none;}
</style>
<path class="st0" d="M250,250"/>
<path class="st1" d="M248,253.5l5.8-2l-4.5-4.1C251.3,249.3,250.6,252.6,248,253.5z"/>
<polygon class="st1" points="262.5,128.6 252.1,132.2 244.2,137.9 241.3,138.9 248.1,143 259.7,139 263.8,135.6 270.6,132.7 
	275.5,121.6 274.6,119.2 266.9,123.4 "/>
<polygon class="st1" points="257.5,162.1 262.5,155.9 265.8,148.1 255.4,151.7 252,152.8 250.8,155 "/>
<path d="M241.5,41.4l20,20.6l14,16.7l1.9,9l-2.9,6l-7.8,9.1l-13.8,5.3l-9.3,13.3l-2.1-6.1l-3.1-9.1l-3.8-2.4l-5,3.5l-2.1,10.4
	l-4.2,4.9l-4.1-1.8l-5.2,0.8l1.3,6.5l3,8.6l-5.7,3.7l-7.4,5.8l-4.4,3.8l1.8,5.3l6.2,2.1l8.9-2.3l7.7-2.9l3.6,4.7l13.4,11.5l8.6,9.7
	l7.8,4.5l7.1-2.5l3.4-4.6l6.3-16.8l4.6-9.5l5.1-1l-6.5,25.8l-6,21.4L249.6,231l-3,8l2.3,6.6l4.2,1.5l6.2-2.1l26.6-44.9l20.6-46.6
	l-1.3-13l3.4-16l7.5-29.4l-2.7-12.9l-4.8-5.3l-5.1-3.2l-15.3-14.8l-29.2-37L242.2-0.7c-13.7,0.4-27.2,2-40.6,4.6l9.7,8.2L241.5,41.4
	z M255.4,151.7l10.4-3.6l-3.2,7.8l-5,6.2l-6.7-7.1l1.2-2.2L255.4,151.7z M275.5,121.6l-4.8,11.1l-6.8,2.9l-4.1,3.4l-11.5,4l-6.9-4.1
	l2.9-1l7.9-5.7l10.4-3.6l4.4-5.2l7.7-4.2L275.5,121.6z"/>
</svg>
