<?xml version="1.0" encoding="utf-8"?>
<!-- Generator: Adobe Illustrator 23.0.1, SVG Export Plug-In . SVG Version: 6.00 Build 0)  -->
<svg version="1.1" id="Layer_1" xmlns="http://www.w3.org/2000/svg" xmlns:xlink="http://www.w3.org/1999/xlink" x="0px" y="0px"
	 viewBox="0 0 500 500" style="enable-background:new 0 0 500 500;" xml:space="preserve">
<style type="text/css">
	.st0{fill:#FFFFFF;stroke:#000000;stroke-width:2;stroke-miterlimit:10;}
	.st1{fill:none;}
</style>
<path class="st0" d="M250,250"/>
<path class="st1" d="M251.1,246.1l-5.1,3.3l5.4,2.9C248.9,251,248.8,247.6,251.1,246.1z"/>
<polygon class="st1" points="263.8,337.1 260.4,344.4 259.1,352.7 268.4,346.8 271.3,344.8 272,342.4 "/>
<path d="M229.8,90l4.3,17.9l4.1,23.1l4,14.4l-2.7,9.6l-5.3,15.5l-7.2,12.2l-4.1,4.9l-1.2,5l1.7,2.6l3.6,0.8l4.5-1.1l5.1-3.3l4.9-3.2
	l4-5.1l1.5-2.4l1.8,9.2l-2.9,16.1l-1.8,21l-0.6,13.8l3.1,4.7l3.4,0.9l3.8-0.2l2.7-3.2l1.7-6.4l1-14.4l1.5-13.6l0-7.3l-0.2-6.3
	l7.3,9.5l4.9,5.5l10.2,6.2l12.4,4.5l7.3,0.9l5.2-1.1l2.6-4.2l-2.1-5l-6.3-2.4l-8.1-2.6l-10.5-7.2l-4.5-5.7l-4.5-6l-0.9-2.7l1.2-0.2
	l5,7.7l6.2,5.7l7.9,4.4l8.9,2.6l9,4l5.9-0.8l3.7-2.4l0.2-2.3l-2.3-3.5l-8.8-4.1l-13.5-6.6l-6.2-4.4l-4.5-6.6l-0.2-4.6l2.4-1.5l7.8,3
	l14.1,2.9l11.8,1.8l3.7-1.3l2.4-1.9l0.4-2.5l-1.4-2.2l-2.4-3.7l-13.4-2.5l-14.1-3.7l-7-4.4l-4.4-3.8l-4.3-7l-4.3-13.1l-5-16.8
	l-3-19.3l1.7-19l-1.1-30.6l-9.7-48.8c-15.3-0.6-30.4,0.2-45.3,2.3L229.8,90z"/>
</svg>
