<?xml version="1.0" encoding="utf-8"?>
<!-- Generator: Adobe Illustrator 23.0.1, SVG Export Plug-In . SVG Version: 6.00 Build 0)  -->
<svg version="1.1" id="Layer_1" xmlns="http://www.w3.org/2000/svg" xmlns:xlink="http://www.w3.org/1999/xlink" x="0px" y="0px"
	 viewBox="0 0 500 500" style="enable-background:new 0 0 500 500;" xml:space="preserve">
<path d="M292.2,84.3c-1-6.2-5.3-11.3-11.3-13.2c-1.9-0.5-4-0.7-6-0.6c-0.3,0-0.6,0-0.9,0c-0.1,0-0.2,0-0.2-0.1
	c-0.1-0.1-0.1-0.1-0.1-0.2c0-0.5-0.1-1-0.2-1.5c0-0.7-0.1-1.5-0.2-2.2c-0.1-0.9-0.2-1.8-0.3-2.6c0-0.7-0.1-1.5-0.2-2.2
	c-0.1-0.4-0.2-0.8-0.1-1.2c0-0.3,0.2-0.5,0.5-0.6c3.8-1.2,7.7-2.4,11.5-3.5c0.1,0,0.1-0.1,0.1-0.1c0-0.2,0.1-0.3,0.1-0.5
	c0.4-1.9,0.7-3.9,0.8-5.9c0-0.6,0-1.1-0.2-1.7c-0.2-1.8-0.6-3.6-1.1-5.3c0-0.2-0.1-0.4-0.2-0.6c-0.1-0.3-0.1-0.7,0.2-1
	c1.5-1.2,2.3-3.1,2-5c-0.1-0.4-0.1-0.8-0.1-1.2c0.1-0.2,0.2-0.3,0.4-0.4l0.4-0.1c0.3-0.1,0.4-0.3,0.5-0.6c-0.1-1.4-0.4-2.8-0.9-4.2
	c-0.2-0.4-0.4-0.8-0.7-1.1l-0.2-0.2l-0.3-0.1c-1.4-0.3-2.8-0.3-4.2,0c-0.5,0.1-1,0.2-1.6,0.2c-0.1,0-0.2,0-0.3,0
	c-0.1,0-0.1-0.1-0.1-0.1c0-0.2-0.1-0.4,0-0.5c-0.1-1,0-2,0.3-2.9c0-0.1,0-0.3,0-0.4c0-0.1,0-0.2,0.1-0.2l0.1-0.1
	c1.4-0.5,2.5-1.6,3.2-2.9c0.3-0.8,0.4-1.6,0.1-2.4c-0.3-1.5-1.2-2.8-2.4-3.8c-0.5-0.6-0.8-1.3-0.9-2.1c-0.5-1.2-1.6-2.1-2.9-2.2
	c-0.8-0.1-1.6-0.3-2.4-0.6c-0.3-0.2-0.6-0.5-0.8-0.8l-0.1-0.2c-0.1-0.2-0.3-0.3-0.5-0.3c-0.7-0.1-1.4,0-2,0.4c-1.4,1-2.9,2-4.3,2.9
	c-3.2,0.8-6.2,2.2-8.8,4.2c-3.6,3.3-5.5,8.1-5.1,13c-0.1,2.1,0,4.2,0.2,6.2c0.1,1.4,0,2.9-0.3,4.3c0,0.1,0,0.3,0,0.4
	c0,0.1,0,0.2-0.1,0.2l-0.1,0c-0.1,0-0.3,0-0.4,0l-0.1,0c0-0.1-0.1-0.1-0.1-0.2l0-0.7c0-0.1-0.1-0.2-0.2-0.3l-0.1,0
	c-2.1-0.5-4.2-1-6.2-1.5c-0.2-0.1-0.3-0.2-0.4-0.4l0-0.2c-0.8-2.6-1.5-5.2-2.1-7.9c0.1-1.2,0.3-2.4,0.8-3.5c0.5-1.5,0.8-3,0.8-4.5
	c-0.1-1.2-0.4-2.5-1.1-3.5c-1.8-1.8-4.3-2.7-6.8-2.3c-1.8,0.3-3.6,1.1-5,2.2c-0.7,0.7-1.1,1.6-1.2,2.6c-0.2,1.3-0.3,2.6-0.2,3.8
	c0,0.4,0,0.8,0,1.2c0,0.1-0.1,0.2-0.2,0.3c-0.4,0.2-0.8,0.3-1.2,0.3c-3.2,0.5-6,2.1-8.2,4.4c-0.9,1-1.8,2-2.8,2.9
	c-1,0.5-1.9,1.1-2.7,1.9c-0.8,0.7-1.5,1.4-2.1,2.3c-1.3,1.2-2.8,2.1-4.5,2.8c-2,0.6-4,1.1-6.1,1.4c-1.6,0.7-3.2,1.6-4.6,2.7
	c-1.5,0.7-2.9,1.6-4.2,2.7c-0.2,0.1-0.2,0.3-0.1,0.5c1.6,2.3,3.3,4.5,5.1,6.6c0.9,1,1.8,2,2.7,3c1,0.7,1.7,1.8,1.9,3
	c0.7,2.3,2.4,4.3,4.6,5.3c1.8,1.8,3.8,3.4,5.9,4.9c1.5,0.4,2.9,1.2,4,2.2c1.9,1.6,4.2,2.4,6.7,2.3c0.1,0,0.2-0.1,0.3-0.2l0-0.1
	c0.3-1,0.6-2,0.9-3c0-0.1,0.1-0.1,0.1-0.1c0.2,0,0.4-0.1,0.5,0c0.2,0,0.3,0,0.5,0c0.4,0,0.7,0.3,0.7,0.7c0,0.2,0,0.4,0,0.6
	c0,0.1,0,0.2,0.1,0.2c0.1,0.1,0.1,0.1,0.2,0.1l1,0c0.1,0,0.2,0,0.2,0.1c0.1,0.1,0.1,0.1,0.1,0.2c0,0.3-0.1,0.6-0.3,0.9
	c-1.2,1.3-2.4,2.4-3.8,3.5c-1.4,0.8-2.8,1.7-4.1,2.6c-0.3,0.2-0.7,0.2-1,0c-2.6-1.6-5.5-2.6-8.5-2.9c-1.5-0.1-3,0-4.5,0.1
	c-5.7,0.9-10.6,4.7-12.9,10c-1,2.1-1.5,4.4-1.6,6.8c-0.3,0.9-0.3,1.9,0,2.8c0.3,3,1.4,5.9,3.3,8.3c3.4,4.6,8.9,7,14.6,6.6
	c1.8,0,3.5-0.4,5.1-1c3.3-1.3,6.2-3.6,8.3-6.6c1.8-2.6,3.2-5.5,4.1-8.6c0-0.1,0.1-0.1,0.1-0.1c0.2,0,0.4-0.1,0.5,0
	c1.8,0.1,3.7,0,5.5-0.1c0.9-0.1,1.7-0.2,2.6-0.4c2.7-0.3,4.9-2.1,5.9-4.6c0.1-0.3,0.2-0.5,0.3-0.8c0-0.1,0.1-0.2,0.2-0.3l0.2-0.1
	c0.8-0.3,1.6-0.6,2.4-0.8c0.2,0,0.3,0,0.5,0.1c0.7,0.3,1.5,0.5,2.2,0.7c0.4,0.1,0.7-0.1,0.9-0.4c0.1-0.1,0.1-0.2,0.2-0.3
	c0-0.1,0.1-0.2,0.2-0.2c0,0,0,0,0.1,0c0,0,0.1,0,0.1,0c1.1,0.6,2.3,1.2,3.5,1.8c0.4,0.1,0.8,0,1.1-0.2c0.7-0.4,1.3-1,1.4-1.8l0-0.4
	c-0.6-1.3-1.6-2.4-2.8-3.2c-0.8-1.1-1.6-2.3-2.1-3.5l-0.1-0.4c0-0.3,0-0.7,0-1c0-0.1,0.1-0.3,0.1-0.4c0.6-0.6,1.2-1.1,1.9-1.6
	c2.9-2.3,5.9-4.5,9-6.7c0.2-0.2,0.5-0.3,0.7-0.4c0,0,0.1,0,0.1,0c0,0,0.1,0,0.1,0c0.1,0.1,0.2,0.2,0.3,0.4c0.6,1.1,1.1,2.3,1.6,3.4
	c0.1,0.1,0,0.2,0,0.3c-0.2,0.2-0.4,0.4-0.7,0.5c-3.1,2.5-5.2,6.1-6,10c-0.1,0.6-0.1,1.2-0.2,1.7c-0.3,1-0.3,2.1,0,3.1
	c0.3,3.4,1.7,6.7,3.9,9.3c4,4,9.5,6,15,5.5c2.8,0,5.6-0.9,7.9-2.6c2.2-1.5,4-3.4,5.6-5.5C292.3,92.8,293,88.5,292.2,84.3z
	 M222.4,93.2L222.4,93.2c0.1,0.2,0.1,0.2,0.1,0.3c0,0.1,0,0.2,0,0.2c0,0,0,0.1-0.1,0.1c0,0,0,0-0.1,0c-2.2,0.3-4.5,0.7-6.7,1.1
	c-0.2,0-0.3,0.1-0.5,0.1c0,0-0.1,0-0.1,0c0,0,0,0,0,0c0-0.1-0.1-0.1,0-0.2c0.1-0.2,0.2-0.4,0.4-0.5l4.4-0.9c0.8-0.2,1.5-0.4,2.3-0.4
	C222.3,93.1,222.4,93.1,222.4,93.2z M219.4,86c0.9,1.1,1.7,2.3,2.3,3.7c0,0,0,0.1,0,0.1c0,0,0,0.1-0.1,0.1c-0.1,0.1-0.3,0.1-0.4,0.2
	c-2.2,0.7-4.4,1.3-6.6,2c-0.3,0.1-0.6,0.2-0.9,0.2c-0.1,0-0.2-0.1-0.3-0.2c-0.1-0.3,0-0.6,0.1-0.9c1.7-1.8,3.5-3.6,5.3-5.3
	C219,85.8,219.2,85.8,219.4,86z M216.6,105.5c-2.3,1.5-5,2.2-7.8,2c-3.1-0.3-6-1.8-8.1-4.1c-2.4-2.6-3.6-6.1-3.4-9.7
	c0.2-3.5,1.9-6.8,4.6-9.1c1.9-1.6,4.1-2.6,6.6-2.8c2.8-0.3,5.5,0.4,7.9,1.8c0.1,0.1,0.2,0.2,0.3,0.3c0,0,0,0.1,0,0.2l-0.2,0.2
	c-1.6,1.6-3.2,3.2-4.9,4.8c-0.7,0.8-1.5,1.5-2.5,2.1c-1.4,0.3-2.4,1.4-2.7,2.8c-0.3,1.4,0.3,2.8,1.5,3.5c0.4,0.2,0.9,0.4,1.4,0.5
	l0.2,0.1c0.1,0,0.3,0,0.4,0c0.3-0.1,0.6-0.2,0.8-0.2c0.1,0,0.2,0,0.3-0.1c0.1,0,0.1,0,0.1-0.1c0.3-0.2,0.5-0.4,0.8-0.5
	c0.4-0.3,0.8-0.5,1.3-0.6c1.2,0,2.3,0,3.5,0c1.6-0.3,3.2-0.3,4.8-0.2c0.2,0,0.4,0,0.5,0c0.1,0,0.2,0.2,0.2,0.3
	C221.9,100.3,219.7,103.5,216.6,105.5z M244,46.9c0.1-0.7,0.3-1.4,0.5-2.2l0-0.1c0-0.1,0.2-0.2,0.3-0.2c1.4-0.1,2.8,0.1,4.2,0.5
	c1.2,0.1,2.3-0.2,3.3-0.8c0.1,0,0.2-0.1,0.3-0.1c0.1,0,0.2,0,0.3,0.1c0.1,0,0.3,0.1,0.4,0.1l0.2,0c0.2,0.1,0.3,0.2,0.4,0.4
	c0,0.1,0,0.2,0,0.3c0,0.1,0,0.1,0,0.2c0,0.4,0.1,0.7,0.3,1l0.1,0.1c0.3,0.2,0.7,0.3,1,0.3c0.2,0,0.4,0,0.6,0c0.1,0,0.2,0,0.2,0.1
	c0.1,0.1,0.1,0.1,0.1,0.2c0,0.8-0.2,1.7-0.6,2.4c0,0.1-0.2,0.2-0.3,0.2c-0.3,0-0.6,0-0.9,0c-0.2,0-0.4,0.1-0.6,0.2l-0.6,0.5
	l-0.1,0.1c-0.1,0.1-0.3,0.1-0.4,0.1c-2.5,0-5,0-7.5,0c-0.2,0-0.4,0-0.5,0c-0.1,0-0.1-0.1-0.1-0.1c-0.2-1-0.4-1.9-0.6-2.9
	c0-0.2-0.1-0.3-0.1-0.5L244,46.9L244,46.9z M231.4,72.2l0-0.2c0-0.3-0.1-0.6-0.2-0.9c-0.1-0.2-0.1-0.3-0.1-0.5c0-0.1,0-0.2,0.1-0.2
	c0.1-0.1,0.1-0.1,0.2-0.1c0.5,0,1,0,1.4,0c1.2,0.3,2.4,0.7,3.5,1.1c0.2,0.1,0.5,0.2,0.7,0.4c0.3,0.1,0.5,0.3,0.7,0.5
	c0.1,0.1,0.1,0.2,0.1,0.2c0,0.1-0.1,0.2-0.1,0.2l-0.3,0c-1.8,0-3.5,0-5.3,0C231.7,72.6,231.5,72.4,231.4,72.2z M231.9,88.5
	C231.8,88.5,231.8,88.5,231.9,88.5c-0.1-0.1-0.1-0.2-0.1-0.2c0-0.3,0-0.6-0.1-0.8c-0.2-0.5-0.2-1-0.2-1.5c0-0.1,0-0.2,0.1-0.2
	c0.1-0.1,0.2-0.1,0.3-0.1c0.3-0.1,0.7-0.2,1.1-0.2c0.1,0,0.1,0,0.2,0c0.1,0,0.1,0,0.2-0.1c0.2-0.1,0.4-0.1,0.5-0.1
	c0.1,0,0.1,0,0.2,0c0,0,0.1,0.1,0.1,0.1c0,0.1,0,0.2,0,0.3c0.1,0.5,0.2,1,0.2,1.5c0,0.2,0,0.4,0,0.5c0,0.1-0.1,0.1-0.1,0.1
	C233.5,87.9,232.7,88.2,231.9,88.5C231.9,88.5,231.9,88.5,231.9,88.5z M236.7,92.9c-0.1,0.1-0.2,0.2-0.3,0.3
	c-0.1,0.1-0.3,0.2-0.5,0.2c-1-0.1-1.9-0.6-2.5-1.5c-0.1-0.1-0.1-0.1-0.2-0.2c0-0.1-0.1-0.1-0.1-0.2c0,0,0-0.1,0-0.1c0,0,0,0,0-0.1
	l0.3-0.1c1.2-0.4,2.6,0.1,3.3,1.2C236.8,92.6,236.8,92.7,236.7,92.9z M237.3,87.4C237.3,87.4,237.3,87.4,237.3,87.4
	c-0.1,0-0.2,0-0.2-0.1l-0.1-0.2c-0.2-0.4-0.4-0.8-0.6-1.2c0-0.1-0.1-0.2-0.1-0.2c0,0,0,0,0-0.1c0-0.1,0-0.1,0.1-0.2l0.1,0
	c0.2,0,0.4,0,0.5,0c0.6,0,1.1,0,1.7,0c0.1,0,0.1,0,0.2,0.1c0,0,0,0,0,0.1c0,0,0,0.1,0,0.1c-0.4,0.5-0.8,1-1.2,1.5
	C237.6,87.2,237.5,87.3,237.3,87.4z M240.5,90.4c-0.4,0.7-0.9,1.4-1.3,2.1l0,0.1c0,0,0,0-0.1,0c0,0,0,0-0.1,0l0-0.1
	c0-0.1,0-0.2-0.1-0.3c-0.1-0.2-0.1-0.4-0.2-0.5c-0.2-0.3-0.3-0.6-0.3-0.9c0-0.1,0.1-0.2,0.2-0.3c0.5-0.1,1.1-0.3,1.6-0.5l0.1,0
	c0.1,0,0.2,0,0.2,0.1C240.6,90.2,240.6,90.3,240.5,90.4z M257,69.8c-0.7,1.4-1.7,2.7-2.9,3.8c-1.7,1.3-3.4,2.7-5,4.1
	c-0.1,0.1-0.3,0.2-0.5,0.1c-0.1,0-0.1,0-0.2-0.1c0,0,0,0,0-0.1c0,0,0-0.1,0-0.1c0-0.1,0.1-0.2,0.1-0.3c0.3-0.3,0.5-0.5,0.8-0.8
	l0.1-0.1l0-0.3c-0.2-0.8-0.5-1.5-0.8-2.3c-0.2-0.3-0.3-0.6-0.4-1c0-0.9,0-1.8,0-2.8c0-0.1,0-0.2,0.1-0.2l0.1-0.1
	c0.3-0.1,0.6-0.3,0.9-0.4c2.1-0.7,4.1-1.4,6.2-2.1l0.2-0.1c0.2-0.1,0.4,0,0.6,0.1c0.3,0.3,0.6,0.5,0.8,0.8l0.1,0.1l0.1,0.4
	C257.3,69,257.2,69.4,257,69.8z M260.8,58.1c0,0.4-0.3,0.6-0.7,0.7c-0.2,0-0.5,0-0.7,0c-0.1,0-0.2,0-0.3,0c0,0-0.1,0-0.1,0.1
	c0,0,0,0.1-0.1,0.1c0,0.1,0,0.2,0,0.3c0.2,0.2,0.3,0.4,0.5,0.7c0.2,0.3,0.4,0.6,0.5,0.9c0,1,0,2,0,3c0,0.1-0.1,0.2-0.2,0.3
	c-1.2,0.4-2.4,0.8-3.6,1.2c-1.9,0.6-3.8,1.2-5.7,1.8c-0.6,0.2-1.2,0.4-1.8,0.4c-0.1,0-0.2,0-0.2-0.1c-0.1-0.1-0.1-0.1-0.1-0.2
	c0-0.7,0-1.3,0-2c0-0.4-0.1-0.8-0.2-1.1c0.1-1,0-2-0.3-2.9l0-0.2c0-0.1-0.1-0.2-0.2-0.3c-0.8-0.5-1.6-1-2.4-1.4
	c-1.3-0.8-2.7-1.3-4.2-1.5c-0.2,0-0.3,0-0.5-0.1c-0.1,0-0.1-0.1-0.1-0.1c0-0.1,0-0.2,0-0.3c0-0.2-0.1-0.4-0.2-0.6l0-0.1
	c0-0.1,0.1-0.1,0.1-0.2c0.4-0.3,0.9-0.3,1.3,0c0.8,0.6,1.9,0.9,2.9,0.8c0.6-0.1,1.1-0.4,1.5-0.9c0.1-0.1,0.3-0.1,0.4-0.1
	c0.5,0,1.1,0,1.6,0c1.3-0.1,2.5,0,3.8,0.2l0.1,0c0.1,0,0.1,0,0.2-0.1c0.2-0.4,0.4-0.8,0.4-1.2c0-0.1,0-0.2,0.1-0.2
	c0.1,0,0.1-0.1,0.2-0.1c0.2,0,0.4,0,0.6-0.1c0.5-0.2,1-0.2,1.5,0c1.1,0.7,2.3,1.1,3.6,1.2c0.1,0,0.3-0.1,0.4-0.1
	c0.5-0.5,0.9-1.2,1.1-1.9c0-0.2,0-0.3,0.1-0.5c0,0,0-0.1,0.1-0.1c0,0,0.1,0,0.1,0c0.1,0.1,0.2,0.2,0.3,0.4c0,0.1,0.1,0.3,0.1,0.4
	C260.8,55.6,260.9,56.8,260.8,58.1z M272.1,75.7C272.1,75.7,272.1,75.7,272.1,75.7c0.1,0,0.1,0,0.1,0c0,0.1,0.1,0.1,0.1,0.2
	c0,1.8,0,3.5,0,5.3c0,0.1,0,0.1-0.1,0.2c0,0,0,0-0.1,0c0,0-0.1,0-0.1,0c-0.1-0.1-0.2-0.2-0.3-0.3c-1-1.3-2-2.6-2.8-4
	c0,0,0-0.1,0-0.1c0,0,0,0,0-0.1l0.2-0.1c0.3-0.2,0.6-0.3,1-0.5c0.5-0.2,1-0.4,1.6-0.6C271.8,75.9,271.9,75.8,272.1,75.7z
	 M264.1,63.8c-0.1-0.3,0.1-0.7,0.4-0.8c0.9-0.4,1.8-0.7,2.8-1c0.6-0.2,1.2-0.4,1.8-0.6c0.2,0,0.3,0,0.5,0c0.1,0,0.1,0.1,0.1,0.1
	c0.3,2.2,0.7,4.3,1.1,6.5c0.1,0.5,0.2,1.1,0.3,1.6c0,0.2,0,0.5,0.1,0.7l0.1,0.2c0.1,0.2,0.1,0.3,0.1,0.5c0,0.1-0.1,0.2-0.2,0.3
	c-1.2,0.3-2.3,0.7-3.5,1.1c-0.2,0-0.3,0-0.5,0c-0.1,0-0.1-0.1-0.1-0.1C266,69.4,265.1,66.6,264.1,63.8z M287.6,89.6
	c-0.4,3.7-2.4,7-5.4,9.2c-1.5,1.1-3.3,1.8-5.1,2.1c-0.6,0-1.2,0-1.7,0.1l-0.2,0.1c-0.1,0-0.3,0-0.4,0c-0.4-0.2-0.9-0.3-1.4-0.2
	c-1.3-0.2-2.7-0.7-3.9-1.2c-3.6-1.9-6.1-5.3-6.8-9.2c-0.7-4,0.5-8,3.2-11c0.1-0.1,0.2-0.2,0.3-0.3c0,0,0.1,0,0.2,0l0.2,0.2
	c1.5,2.2,2.9,4.4,4.3,6.7c0.3,0.4,0.5,0.8,0.6,1.3c0,0.5,0,1.1,0,1.6c0,0.3,0,0.5,0,0.8c0.5,1.1,1.6,1.7,2.8,1.8
	c1.1,0.2,2.3-0.1,3.2-0.8c0.8-0.9,1.1-2,0.9-3.2c-0.2-1.1-1-2.1-2-2.6c-0.2-0.1-0.3-0.3-0.3-0.5c0-1.5-0.2-3-0.4-4.4
	c-0.1-0.7-0.2-1.5-0.2-2.2c-0.2-0.5-0.2-1.1-0.2-1.7c0-0.2,0-0.4,0-0.5c0-0.1,0.1-0.1,0.1-0.1c0.1,0,0.2,0,0.3,0
	c5.8,0.4,10.6,4.6,11.7,10.3C287.6,87,287.6,88.3,287.6,89.6z"/>
</svg>
